%TF.GenerationSoftware,KiCad,Pcbnew,7.0.9*%
%TF.CreationDate,2024-02-06T13:27:41-04:00*%
%TF.ProjectId,proyecto_micro_v1,70726f79-6563-4746-9f5f-6d6963726f5f,rev?*%
%TF.SameCoordinates,Original*%
%TF.FileFunction,Soldermask,Top*%
%TF.FilePolarity,Negative*%
%FSLAX46Y46*%
G04 Gerber Fmt 4.6, Leading zero omitted, Abs format (unit mm)*
G04 Created by KiCad (PCBNEW 7.0.9) date 2024-02-06 13:27:41*
%MOMM*%
%LPD*%
G01*
G04 APERTURE LIST*
G04 Aperture macros list*
%AMRoundRect*
0 Rectangle with rounded corners*
0 $1 Rounding radius*
0 $2 $3 $4 $5 $6 $7 $8 $9 X,Y pos of 4 corners*
0 Add a 4 corners polygon primitive as box body*
4,1,4,$2,$3,$4,$5,$6,$7,$8,$9,$2,$3,0*
0 Add four circle primitives for the rounded corners*
1,1,$1+$1,$2,$3*
1,1,$1+$1,$4,$5*
1,1,$1+$1,$6,$7*
1,1,$1+$1,$8,$9*
0 Add four rect primitives between the rounded corners*
20,1,$1+$1,$2,$3,$4,$5,0*
20,1,$1+$1,$4,$5,$6,$7,0*
20,1,$1+$1,$6,$7,$8,$9,0*
20,1,$1+$1,$8,$9,$2,$3,0*%
G04 Aperture macros list end*
%ADD10C,0.010000*%
%ADD11RoundRect,0.177600X-0.194400X0.224400X-0.194400X-0.224400X0.194400X-0.224400X0.194400X0.224400X0*%
%ADD12RoundRect,0.075000X-0.700000X-0.075000X0.700000X-0.075000X0.700000X0.075000X-0.700000X0.075000X0*%
%ADD13RoundRect,0.075000X-0.075000X-0.700000X0.075000X-0.700000X0.075000X0.700000X-0.075000X0.700000X0*%
%ADD14RoundRect,0.177600X-0.224400X-0.194400X0.224400X-0.194400X0.224400X0.194400X-0.224400X0.194400X0*%
%ADD15RoundRect,0.102000X-0.610000X-0.610000X0.610000X-0.610000X0.610000X0.610000X-0.610000X0.610000X0*%
%ADD16C,1.424000*%
%ADD17RoundRect,0.177600X0.224400X0.194400X-0.224400X0.194400X-0.224400X-0.194400X0.224400X-0.194400X0*%
%ADD18RoundRect,0.167100X-0.589900X-0.399900X0.589900X-0.399900X0.589900X0.399900X-0.589900X0.399900X0*%
%ADD19RoundRect,0.416400X-0.340600X-1.305600X0.340600X-1.305600X0.340600X1.305600X-0.340600X1.305600X0*%
%ADD20RoundRect,0.102000X0.280000X0.300000X-0.280000X0.300000X-0.280000X-0.300000X0.280000X-0.300000X0*%
%ADD21RoundRect,0.102000X0.300000X-0.280000X0.300000X0.280000X-0.300000X0.280000X-0.300000X-0.280000X0*%
%ADD22RoundRect,0.102000X-0.280000X-0.300000X0.280000X-0.300000X0.280000X0.300000X-0.280000X0.300000X0*%
%ADD23RoundRect,0.102000X-0.802500X-0.802500X0.802500X-0.802500X0.802500X0.802500X-0.802500X0.802500X0*%
%ADD24C,1.809000*%
%ADD25RoundRect,0.250000X0.550000X-1.050000X0.550000X1.050000X-0.550000X1.050000X-0.550000X-1.050000X0*%
%ADD26RoundRect,0.102000X0.300000X-0.270000X0.300000X0.270000X-0.300000X0.270000X-0.300000X-0.270000X0*%
%ADD27RoundRect,0.102000X-0.492500X-0.492500X0.492500X-0.492500X0.492500X0.492500X-0.492500X0.492500X0*%
%ADD28C,1.189000*%
%ADD29RoundRect,0.102000X0.750000X1.350000X-0.750000X1.350000X-0.750000X-1.350000X0.750000X-1.350000X0*%
%ADD30RoundRect,0.177600X0.194400X-0.224400X0.194400X0.224400X-0.194400X0.224400X-0.194400X-0.224400X0*%
G04 APERTURE END LIST*
%TO.C,U4*%
D10*
X138220000Y-82010000D02*
X137940000Y-82010000D01*
X137940000Y-81810000D01*
X138220000Y-81810000D01*
X138220000Y-82010000D01*
G36*
X138220000Y-82010000D02*
G01*
X137940000Y-82010000D01*
X137940000Y-81810000D01*
X138220000Y-81810000D01*
X138220000Y-82010000D01*
G37*
X138220000Y-82410000D02*
X137940000Y-82410000D01*
X137940000Y-82210000D01*
X138220000Y-82210000D01*
X138220000Y-82410000D01*
G36*
X138220000Y-82410000D02*
G01*
X137940000Y-82410000D01*
X137940000Y-82210000D01*
X138220000Y-82210000D01*
X138220000Y-82410000D01*
G37*
%TO.C,U5*%
X173460000Y-75870000D02*
X173180000Y-75870000D01*
X173180000Y-75670000D01*
X173460000Y-75670000D01*
X173460000Y-75870000D01*
G36*
X173460000Y-75870000D02*
G01*
X173180000Y-75870000D01*
X173180000Y-75670000D01*
X173460000Y-75670000D01*
X173460000Y-75870000D01*
G37*
X173460000Y-75470000D02*
X173180000Y-75470000D01*
X173180000Y-75270000D01*
X173460000Y-75270000D01*
X173460000Y-75470000D01*
G36*
X173460000Y-75470000D02*
G01*
X173180000Y-75470000D01*
X173180000Y-75270000D01*
X173460000Y-75270000D01*
X173460000Y-75470000D01*
G37*
%TD*%
D11*
%TO.C,C12*%
X137230000Y-70880000D03*
X136370000Y-70880000D03*
%TD*%
D12*
%TO.C,IC1*%
X141855000Y-72480000D03*
X141855000Y-72980000D03*
X141855000Y-73480000D03*
X141855000Y-73980000D03*
X141855000Y-74480000D03*
X141855000Y-74980000D03*
X141855000Y-75480000D03*
X141855000Y-75980000D03*
X141855000Y-76480000D03*
X141855000Y-76980000D03*
X141855000Y-77480000D03*
X141855000Y-77980000D03*
X141855000Y-78480000D03*
X141855000Y-78980000D03*
X141855000Y-79480000D03*
X141855000Y-79980000D03*
D13*
X143780000Y-81905000D03*
X144280000Y-81905000D03*
X144780000Y-81905000D03*
X145280000Y-81905000D03*
X145780000Y-81905000D03*
X146280000Y-81905000D03*
X146780000Y-81905000D03*
X147280000Y-81905000D03*
X147780000Y-81905000D03*
X148280000Y-81905000D03*
X148780000Y-81905000D03*
X149280000Y-81905000D03*
X149780000Y-81905000D03*
X150280000Y-81905000D03*
X150780000Y-81905000D03*
X151280000Y-81905000D03*
D12*
X153205000Y-79980000D03*
X153205000Y-79480000D03*
X153205000Y-78980000D03*
X153205000Y-78480000D03*
X153205000Y-77980000D03*
X153205000Y-77480000D03*
X153205000Y-76980000D03*
X153205000Y-76480000D03*
X153205000Y-75980000D03*
X153205000Y-75480000D03*
X153205000Y-74980000D03*
X153205000Y-74480000D03*
X153205000Y-73980000D03*
X153205000Y-73480000D03*
X153205000Y-72980000D03*
X153205000Y-72480000D03*
D13*
X151280000Y-70555000D03*
X150780000Y-70555000D03*
X150280000Y-70555000D03*
X149780000Y-70555000D03*
X149280000Y-70555000D03*
X148780000Y-70555000D03*
X148280000Y-70555000D03*
X147780000Y-70555000D03*
X147280000Y-70555000D03*
X146780000Y-70555000D03*
X146280000Y-70555000D03*
X145780000Y-70555000D03*
X145280000Y-70555000D03*
X144780000Y-70555000D03*
X144280000Y-70555000D03*
X143780000Y-70555000D03*
%TD*%
D14*
%TO.C,C4*%
X155490000Y-72180000D03*
X155490000Y-73040000D03*
%TD*%
D15*
%TO.C,J1*%
X168442500Y-73690000D03*
D16*
X165902500Y-73690000D03*
X163362500Y-73690000D03*
%TD*%
D17*
%TO.C,C7*%
X136640000Y-80150000D03*
X136640000Y-79290000D03*
%TD*%
D11*
%TO.C,C2*%
X151824000Y-84018000D03*
X150964000Y-84018000D03*
%TD*%
D18*
%TO.C,U1*%
X187215000Y-73780000D03*
X187215000Y-76070000D03*
X187215000Y-78360000D03*
D19*
X193905000Y-76070000D03*
%TD*%
D20*
%TO.C,R6*%
X141335000Y-81610000D03*
X140465000Y-81610000D03*
%TD*%
D17*
%TO.C,C8*%
X137978000Y-80124000D03*
X137978000Y-79264000D03*
%TD*%
D21*
%TO.C,R3*%
X145760000Y-68645000D03*
X145760000Y-67775000D03*
%TD*%
D11*
%TO.C,C11*%
X136950000Y-76040000D03*
X136090000Y-76040000D03*
%TD*%
D22*
%TO.C,R5*%
X139360000Y-79720000D03*
X140230000Y-79720000D03*
%TD*%
D23*
%TO.C,J4*%
X194252000Y-68053000D03*
D24*
X191712000Y-68053000D03*
X189172000Y-68053000D03*
X186632000Y-68053000D03*
X184092000Y-68053000D03*
X181552000Y-68053000D03*
X179012000Y-68053000D03*
X176472000Y-68053000D03*
X173932000Y-68053000D03*
X171392000Y-68053000D03*
X168852000Y-68053000D03*
X166312000Y-68053000D03*
X163772000Y-68053000D03*
X161232000Y-68053000D03*
X158692000Y-68053000D03*
%TD*%
D25*
%TO.C,U3*%
X176610000Y-76860000D03*
X176610000Y-73260000D03*
%TD*%
D26*
%TO.C,L1*%
X137040000Y-82162000D03*
X137040000Y-81298000D03*
%TD*%
D17*
%TO.C,C3*%
X140390000Y-71110000D03*
X140390000Y-70250000D03*
%TD*%
D11*
%TO.C,C9*%
X138850000Y-78190000D03*
X137990000Y-78190000D03*
%TD*%
D14*
%TO.C,C13*%
X185278500Y-78600000D03*
X185278500Y-79460000D03*
%TD*%
D11*
%TO.C,C14*%
X141130000Y-82840000D03*
X140270000Y-82840000D03*
%TD*%
%TO.C,C5*%
X145051000Y-84074000D03*
X144191000Y-84074000D03*
%TD*%
D27*
%TO.C,J2*%
X162150000Y-78040000D03*
D28*
X164690000Y-78040000D03*
X167230000Y-78040000D03*
X169770000Y-78040000D03*
%TD*%
D20*
%TO.C,R7*%
X140065000Y-75780000D03*
X139195000Y-75780000D03*
%TD*%
D29*
%TO.C,Y1*%
X139010000Y-73270000D03*
X137110000Y-73270000D03*
%TD*%
D23*
%TO.C,J3*%
X194250000Y-83590000D03*
D24*
X191710000Y-83590000D03*
X189170000Y-83590000D03*
X186630000Y-83590000D03*
X184090000Y-83590000D03*
X181550000Y-83590000D03*
X179010000Y-83590000D03*
X176470000Y-83590000D03*
X173930000Y-83590000D03*
X171390000Y-83590000D03*
X168850000Y-83590000D03*
X166310000Y-83590000D03*
X163770000Y-83590000D03*
X161230000Y-83590000D03*
X158690000Y-83590000D03*
%TD*%
D25*
%TO.C,U2*%
X181970000Y-76930000D03*
X181970000Y-73330000D03*
%TD*%
D21*
%TO.C,R1*%
X149291000Y-84463000D03*
X149291000Y-83593000D03*
%TD*%
D14*
%TO.C,C10*%
X183758500Y-78547000D03*
X183758500Y-79407000D03*
%TD*%
D20*
%TO.C,R2*%
X138855000Y-77070000D03*
X137985000Y-77070000D03*
%TD*%
D21*
%TO.C,R4*%
X139170000Y-82195000D03*
X139170000Y-81325000D03*
%TD*%
D30*
%TO.C,C1*%
X143121000Y-67862000D03*
X143981000Y-67862000D03*
%TD*%
D17*
%TO.C,C6*%
X185223500Y-75447000D03*
X185223500Y-74587000D03*
%TD*%
M02*
