%TF.GenerationSoftware,KiCad,Pcbnew,7.0.9*%
%TF.CreationDate,2024-02-06T13:27:41-04:00*%
%TF.ProjectId,proyecto_micro_v1,70726f79-6563-4746-9f5f-6d6963726f5f,rev?*%
%TF.SameCoordinates,Original*%
%TF.FileFunction,Copper,L1,Top*%
%TF.FilePolarity,Positive*%
%FSLAX46Y46*%
G04 Gerber Fmt 4.6, Leading zero omitted, Abs format (unit mm)*
G04 Created by KiCad (PCBNEW 7.0.9) date 2024-02-06 13:27:41*
%MOMM*%
%LPD*%
G01*
G04 APERTURE LIST*
G04 Aperture macros list*
%AMRoundRect*
0 Rectangle with rounded corners*
0 $1 Rounding radius*
0 $2 $3 $4 $5 $6 $7 $8 $9 X,Y pos of 4 corners*
0 Add a 4 corners polygon primitive as box body*
4,1,4,$2,$3,$4,$5,$6,$7,$8,$9,$2,$3,0*
0 Add four circle primitives for the rounded corners*
1,1,$1+$1,$2,$3*
1,1,$1+$1,$4,$5*
1,1,$1+$1,$6,$7*
1,1,$1+$1,$8,$9*
0 Add four rect primitives between the rounded corners*
20,1,$1+$1,$2,$3,$4,$5,0*
20,1,$1+$1,$4,$5,$6,$7,0*
20,1,$1+$1,$6,$7,$8,$9,0*
20,1,$1+$1,$8,$9,$2,$3,0*%
G04 Aperture macros list end*
%TA.AperFunction,SMDPad,CuDef*%
%ADD10RoundRect,0.075600X-0.194400X0.224400X-0.194400X-0.224400X0.194400X-0.224400X0.194400X0.224400X0*%
%TD*%
%TA.AperFunction,SMDPad,CuDef*%
%ADD11RoundRect,0.075000X-0.700000X-0.075000X0.700000X-0.075000X0.700000X0.075000X-0.700000X0.075000X0*%
%TD*%
%TA.AperFunction,SMDPad,CuDef*%
%ADD12RoundRect,0.075000X-0.075000X-0.700000X0.075000X-0.700000X0.075000X0.700000X-0.075000X0.700000X0*%
%TD*%
%TA.AperFunction,SMDPad,CuDef*%
%ADD13R,0.280000X0.200000*%
%TD*%
%TA.AperFunction,SMDPad,CuDef*%
%ADD14RoundRect,0.075600X-0.224400X-0.194400X0.224400X-0.194400X0.224400X0.194400X-0.224400X0.194400X0*%
%TD*%
%TA.AperFunction,ComponentPad*%
%ADD15R,1.220000X1.220000*%
%TD*%
%TA.AperFunction,ComponentPad*%
%ADD16C,1.220000*%
%TD*%
%TA.AperFunction,SMDPad,CuDef*%
%ADD17RoundRect,0.075600X0.224400X0.194400X-0.224400X0.194400X-0.224400X-0.194400X0.224400X-0.194400X0*%
%TD*%
%TA.AperFunction,SMDPad,CuDef*%
%ADD18RoundRect,0.065100X-0.589900X-0.399900X0.589900X-0.399900X0.589900X0.399900X-0.589900X0.399900X0*%
%TD*%
%TA.AperFunction,SMDPad,CuDef*%
%ADD19RoundRect,0.314400X-0.340600X-1.305600X0.340600X-1.305600X0.340600X1.305600X-0.340600X1.305600X0*%
%TD*%
%TA.AperFunction,SMDPad,CuDef*%
%ADD20R,0.560000X0.600000*%
%TD*%
%TA.AperFunction,SMDPad,CuDef*%
%ADD21R,0.600000X0.560000*%
%TD*%
%TA.AperFunction,ComponentPad*%
%ADD22R,1.605000X1.605000*%
%TD*%
%TA.AperFunction,ComponentPad*%
%ADD23C,1.605000*%
%TD*%
%TA.AperFunction,SMDPad,CuDef*%
%ADD24RoundRect,0.250000X0.550000X-1.050000X0.550000X1.050000X-0.550000X1.050000X-0.550000X-1.050000X0*%
%TD*%
%TA.AperFunction,SMDPad,CuDef*%
%ADD25R,0.600000X0.540000*%
%TD*%
%TA.AperFunction,ComponentPad*%
%ADD26R,0.985000X0.985000*%
%TD*%
%TA.AperFunction,ComponentPad*%
%ADD27C,0.985000*%
%TD*%
%TA.AperFunction,SMDPad,CuDef*%
%ADD28R,1.500000X2.700000*%
%TD*%
%TA.AperFunction,SMDPad,CuDef*%
%ADD29RoundRect,0.075600X0.194400X-0.224400X0.194400X0.224400X-0.194400X0.224400X-0.194400X-0.224400X0*%
%TD*%
%TA.AperFunction,ViaPad*%
%ADD30C,0.500000*%
%TD*%
%TA.AperFunction,Conductor*%
%ADD31C,0.200000*%
%TD*%
%TA.AperFunction,Conductor*%
%ADD32C,0.500000*%
%TD*%
%TA.AperFunction,Conductor*%
%ADD33C,0.100000*%
%TD*%
G04 APERTURE END LIST*
D10*
%TO.P,C12,1*%
%TO.N,OSC_IN*%
X137230000Y-70880000D03*
%TO.P,C12,2*%
%TO.N,GND*%
X136370000Y-70880000D03*
%TD*%
D11*
%TO.P,IC1,1,VBAT*%
%TO.N,+3V3*%
X141855000Y-72480000D03*
%TO.P,IC1,2,PC13-TAMPER-RTC*%
%TO.N,unconnected-(IC1-PC13-TAMPER-RTC-Pad2)*%
X141855000Y-72980000D03*
%TO.P,IC1,3,PC14-OSC32_IN*%
%TO.N,unconnected-(IC1-PC14-OSC32_IN-Pad3)*%
X141855000Y-73480000D03*
%TO.P,IC1,4,PC15-OSC32_OUT*%
%TO.N,unconnected-(IC1-PC15-OSC32_OUT-Pad4)*%
X141855000Y-73980000D03*
%TO.P,IC1,5,PD0_OSC_IN*%
%TO.N,OSC_IN*%
X141855000Y-74480000D03*
%TO.P,IC1,6,PD1_OSC_OUT*%
%TO.N,OSC_OUT*%
X141855000Y-74980000D03*
%TO.P,IC1,7,NRST*%
%TO.N,NRST*%
X141855000Y-75480000D03*
%TO.P,IC1,8,PC0*%
%TO.N,unconnected-(IC1-PC0-Pad8)*%
X141855000Y-75980000D03*
%TO.P,IC1,9,PC1*%
%TO.N,unconnected-(IC1-PC1-Pad9)*%
X141855000Y-76480000D03*
%TO.P,IC1,10,PC2*%
%TO.N,unconnected-(IC1-PC2-Pad10)*%
X141855000Y-76980000D03*
%TO.P,IC1,11,PC3*%
%TO.N,unconnected-(IC1-PC3-Pad11)*%
X141855000Y-77480000D03*
%TO.P,IC1,12,VSSA*%
%TO.N,GND*%
X141855000Y-77980000D03*
%TO.P,IC1,13,VDDA*%
%TO.N,VDDA*%
X141855000Y-78480000D03*
%TO.P,IC1,14,PA0-WKUP*%
%TO.N,PA0*%
X141855000Y-78980000D03*
%TO.P,IC1,15,PA1*%
%TO.N,PA1*%
X141855000Y-79480000D03*
%TO.P,IC1,16,PA2*%
%TO.N,ADC_0*%
X141855000Y-79980000D03*
D12*
%TO.P,IC1,17,PA3*%
%TO.N,unconnected-(IC1-PA3-Pad17)*%
X143780000Y-81905000D03*
%TO.P,IC1,18,VSS_4*%
%TO.N,GND*%
X144280000Y-81905000D03*
%TO.P,IC1,19,VDD_4*%
%TO.N,+3V3*%
X144780000Y-81905000D03*
%TO.P,IC1,20,PA4*%
%TO.N,unconnected-(IC1-PA4-Pad20)*%
X145280000Y-81905000D03*
%TO.P,IC1,21,PA5*%
%TO.N,unconnected-(IC1-PA5-Pad21)*%
X145780000Y-81905000D03*
%TO.P,IC1,22,PA6*%
%TO.N,unconnected-(IC1-PA6-Pad22)*%
X146280000Y-81905000D03*
%TO.P,IC1,23,PA7*%
%TO.N,unconnected-(IC1-PA7-Pad23)*%
X146780000Y-81905000D03*
%TO.P,IC1,24,PC4*%
%TO.N,unconnected-(IC1-PC4-Pad24)*%
X147280000Y-81905000D03*
%TO.P,IC1,25,PC5*%
%TO.N,unconnected-(IC1-PC5-Pad25)*%
X147780000Y-81905000D03*
%TO.P,IC1,26,PB0*%
%TO.N,unconnected-(IC1-PB0-Pad26)*%
X148280000Y-81905000D03*
%TO.P,IC1,27,PB1*%
%TO.N,unconnected-(IC1-PB1-Pad27)*%
X148780000Y-81905000D03*
%TO.P,IC1,28,PB2*%
%TO.N,Net-(IC1-PB2)*%
X149280000Y-81905000D03*
%TO.P,IC1,29,PB10*%
%TO.N,unconnected-(IC1-PB10-Pad29)*%
X149780000Y-81905000D03*
%TO.P,IC1,30,PB11*%
%TO.N,unconnected-(IC1-PB11-Pad30)*%
X150280000Y-81905000D03*
%TO.P,IC1,31,VSS_1*%
%TO.N,GND*%
X150780000Y-81905000D03*
%TO.P,IC1,32,VDD_1*%
%TO.N,+3V3*%
X151280000Y-81905000D03*
D11*
%TO.P,IC1,33,PB12*%
%TO.N,unconnected-(IC1-PB12-Pad33)*%
X153205000Y-79980000D03*
%TO.P,IC1,34,PB13*%
%TO.N,unconnected-(IC1-PB13-Pad34)*%
X153205000Y-79480000D03*
%TO.P,IC1,35,PB14*%
%TO.N,unconnected-(IC1-PB14-Pad35)*%
X153205000Y-78980000D03*
%TO.P,IC1,36,PB15*%
%TO.N,unconnected-(IC1-PB15-Pad36)*%
X153205000Y-78480000D03*
%TO.P,IC1,37,PC6*%
%TO.N,PC6*%
X153205000Y-77980000D03*
%TO.P,IC1,38,PC7*%
%TO.N,PC7*%
X153205000Y-77480000D03*
%TO.P,IC1,39,PC8*%
%TO.N,PC8*%
X153205000Y-76980000D03*
%TO.P,IC1,40,PC9*%
%TO.N,PC9*%
X153205000Y-76480000D03*
%TO.P,IC1,41,PA8*%
%TO.N,PA8*%
X153205000Y-75980000D03*
%TO.P,IC1,42,PA9*%
%TO.N,PA9*%
X153205000Y-75480000D03*
%TO.P,IC1,43,PA10*%
%TO.N,PA10*%
X153205000Y-74980000D03*
%TO.P,IC1,44,PA11*%
%TO.N,PA11*%
X153205000Y-74480000D03*
%TO.P,IC1,45,PA12*%
%TO.N,PA13*%
X153205000Y-73980000D03*
%TO.P,IC1,46,PA13*%
%TO.N,SWDIO*%
X153205000Y-73480000D03*
%TO.P,IC1,47,VSS_2*%
%TO.N,GND*%
X153205000Y-72980000D03*
%TO.P,IC1,48,VDD_2*%
%TO.N,+3V3*%
X153205000Y-72480000D03*
D12*
%TO.P,IC1,49,PA14*%
%TO.N,SWCLK*%
X151280000Y-70555000D03*
%TO.P,IC1,50,PA15*%
%TO.N,RECEPTORA*%
X150780000Y-70555000D03*
%TO.P,IC1,51,PC10*%
%TO.N,PC10*%
X150280000Y-70555000D03*
%TO.P,IC1,52,PC11*%
%TO.N,PC11*%
X149780000Y-70555000D03*
%TO.P,IC1,53,PC12*%
%TO.N,M_0*%
X149280000Y-70555000D03*
%TO.P,IC1,54,PD2*%
%TO.N,M_1*%
X148780000Y-70555000D03*
%TO.P,IC1,55,PB3*%
%TO.N,LIM_L*%
X148280000Y-70555000D03*
%TO.P,IC1,56,PB4*%
%TO.N,LIM_R*%
X147780000Y-70555000D03*
%TO.P,IC1,57,PB5*%
%TO.N,PB5*%
X147280000Y-70555000D03*
%TO.P,IC1,58,PB6*%
%TO.N,PB6*%
X146780000Y-70555000D03*
%TO.P,IC1,59,PB7*%
%TO.N,PB7*%
X146280000Y-70555000D03*
%TO.P,IC1,60,BOOT0*%
%TO.N,BOOT _0*%
X145780000Y-70555000D03*
%TO.P,IC1,61,PB8*%
%TO.N,PB8*%
X145280000Y-70555000D03*
%TO.P,IC1,62,PB9*%
%TO.N,PB9*%
X144780000Y-70555000D03*
%TO.P,IC1,63,VSS_3*%
%TO.N,GND*%
X144280000Y-70555000D03*
%TO.P,IC1,64,VDD_3*%
%TO.N,+3V3*%
X143780000Y-70555000D03*
%TD*%
D13*
%TO.P,U4,1*%
%TO.N,Net-(R4-Pad2)*%
X138080000Y-81910000D03*
%TO.P,U4,2*%
%TO.N,GND*%
X138080000Y-82310000D03*
%TD*%
D14*
%TO.P,C4,1*%
%TO.N,+3V3*%
X155490000Y-72180000D03*
%TO.P,C4,2*%
%TO.N,GND*%
X155490000Y-73040000D03*
%TD*%
D15*
%TO.P,J1,01,01*%
%TO.N,GND*%
X168442500Y-73690000D03*
D16*
%TO.P,J1,02,02*%
%TO.N,Net-(J1-Pad02)*%
X165902500Y-73690000D03*
%TO.P,J1,03,03*%
%TO.N,+3V3*%
X163362500Y-73690000D03*
%TD*%
D17*
%TO.P,C7,1*%
%TO.N,VDDA*%
X136640000Y-80150000D03*
%TO.P,C7,2*%
%TO.N,GND*%
X136640000Y-79290000D03*
%TD*%
D10*
%TO.P,C2,1*%
%TO.N,+3V3*%
X151824000Y-84018000D03*
%TO.P,C2,2*%
%TO.N,GND*%
X150964000Y-84018000D03*
%TD*%
D18*
%TO.P,U1,1,GND/ADJ*%
%TO.N,GND*%
X187215000Y-73780000D03*
%TO.P,U1,2,VOUT*%
%TO.N,+3V3*%
X187215000Y-76070000D03*
%TO.P,U1,3,VIN*%
%TO.N,+5V*%
X187215000Y-78360000D03*
D19*
%TO.P,U1,4*%
%TO.N,N/C*%
X193905000Y-76070000D03*
%TD*%
D13*
%TO.P,U5,1*%
%TO.N,+3V3*%
X173320000Y-75770000D03*
%TO.P,U5,2*%
%TO.N,GND*%
X173320000Y-75370000D03*
%TD*%
D20*
%TO.P,R6,1*%
%TO.N,ADC_0*%
X141335000Y-81610000D03*
%TO.P,R6,2*%
%TO.N,Net-(R4-Pad2)*%
X140465000Y-81610000D03*
%TD*%
D17*
%TO.P,C8,1*%
%TO.N,VDDA*%
X137978000Y-80124000D03*
%TO.P,C8,2*%
%TO.N,GND*%
X137978000Y-79264000D03*
%TD*%
D21*
%TO.P,R3,1*%
%TO.N,BOOT _0*%
X145760000Y-68645000D03*
%TO.P,R3,2*%
%TO.N,Net-(J1-Pad02)*%
X145760000Y-67775000D03*
%TD*%
D10*
%TO.P,C11,1*%
%TO.N,Net-(C11-Pad1)*%
X136950000Y-76040000D03*
%TO.P,C11,2*%
%TO.N,GND*%
X136090000Y-76040000D03*
%TD*%
D20*
%TO.P,R5,1*%
%TO.N,Net-(R4-Pad2)*%
X139360000Y-79720000D03*
%TO.P,R5,2*%
%TO.N,ADC*%
X140230000Y-79720000D03*
%TD*%
D22*
%TO.P,J4,1,1*%
%TO.N,PB7*%
X194252000Y-68053000D03*
D23*
%TO.P,J4,2,2*%
%TO.N,PB6*%
X191712000Y-68053000D03*
%TO.P,J4,3,3*%
%TO.N,PB5*%
X189172000Y-68053000D03*
%TO.P,J4,4,4*%
%TO.N,ADC*%
X186632000Y-68053000D03*
%TO.P,J4,5,5*%
%TO.N,LIM_R*%
X184092000Y-68053000D03*
%TO.P,J4,6,6*%
%TO.N,LIM_L*%
X181552000Y-68053000D03*
%TO.P,J4,7,7*%
%TO.N,M_1*%
X179012000Y-68053000D03*
%TO.P,J4,8,8*%
%TO.N,M_0*%
X176472000Y-68053000D03*
%TO.P,J4,9,9*%
%TO.N,PC11*%
X173932000Y-68053000D03*
%TO.P,J4,10,10*%
%TO.N,PC10*%
X171392000Y-68053000D03*
%TO.P,J4,11,11*%
%TO.N,RECEPTORA*%
X168852000Y-68053000D03*
%TO.P,J4,12,12*%
%TO.N,+5V*%
X166312000Y-68053000D03*
%TO.P,J4,13,13*%
%TO.N,PA0*%
X163772000Y-68053000D03*
%TO.P,J4,14,14*%
%TO.N,GND*%
X161232000Y-68053000D03*
%TO.P,J4,15,15*%
%TO.N,PA1*%
X158692000Y-68053000D03*
%TD*%
D24*
%TO.P,U3,1*%
%TO.N,+3V3*%
X176610000Y-76860000D03*
%TO.P,U3,2*%
%TO.N,GND*%
X176610000Y-73260000D03*
%TD*%
D25*
%TO.P,L1,1*%
%TO.N,+3V3*%
X137040000Y-82162000D03*
%TO.P,L1,2*%
%TO.N,VDDA*%
X137040000Y-81298000D03*
%TD*%
D17*
%TO.P,C3,1*%
%TO.N,+3V3*%
X140390000Y-71110000D03*
%TO.P,C3,2*%
%TO.N,GND*%
X140390000Y-70250000D03*
%TD*%
D10*
%TO.P,C9,1*%
%TO.N,NRST*%
X138850000Y-78190000D03*
%TO.P,C9,2*%
%TO.N,GND*%
X137990000Y-78190000D03*
%TD*%
D14*
%TO.P,C13,1*%
%TO.N,+5V*%
X185278500Y-78600000D03*
%TO.P,C13,2*%
%TO.N,GND*%
X185278500Y-79460000D03*
%TD*%
D10*
%TO.P,C14,1*%
%TO.N,ADC_0*%
X141130000Y-82840000D03*
%TO.P,C14,2*%
%TO.N,GND*%
X140270000Y-82840000D03*
%TD*%
%TO.P,C5,1*%
%TO.N,+3V3*%
X145051000Y-84074000D03*
%TO.P,C5,2*%
%TO.N,GND*%
X144191000Y-84074000D03*
%TD*%
D26*
%TO.P,J2,01,01*%
%TO.N,+5V*%
X162150000Y-78040000D03*
D27*
%TO.P,J2,02,02*%
%TO.N,SWDIO*%
X164690000Y-78040000D03*
%TO.P,J2,03,03*%
%TO.N,SWCLK*%
X167230000Y-78040000D03*
%TO.P,J2,04,04*%
%TO.N,GND*%
X169770000Y-78040000D03*
%TD*%
D20*
%TO.P,R7,1*%
%TO.N,OSC_OUT*%
X140065000Y-75780000D03*
%TO.P,R7,2*%
%TO.N,Net-(C11-Pad1)*%
X139195000Y-75780000D03*
%TD*%
D28*
%TO.P,Y1,1*%
%TO.N,Net-(C11-Pad1)*%
X139010000Y-73270000D03*
%TO.P,Y1,2*%
%TO.N,OSC_IN*%
X137110000Y-73270000D03*
%TD*%
D22*
%TO.P,J3,1,1*%
%TO.N,+3V3*%
X194250000Y-83590000D03*
D23*
%TO.P,J3,2,2*%
%TO.N,PB9*%
X191710000Y-83590000D03*
%TO.P,J3,3,3*%
%TO.N,PB8*%
X189170000Y-83590000D03*
%TO.P,J3,4,4*%
%TO.N,PA13*%
X186630000Y-83590000D03*
%TO.P,J3,5,5*%
%TO.N,PA11*%
X184090000Y-83590000D03*
%TO.P,J3,6,6*%
%TO.N,PA10*%
X181550000Y-83590000D03*
%TO.P,J3,7,7*%
%TO.N,PA9*%
X179010000Y-83590000D03*
%TO.P,J3,8,8*%
%TO.N,PA8*%
X176470000Y-83590000D03*
%TO.P,J3,9,9*%
%TO.N,PC9*%
X173930000Y-83590000D03*
%TO.P,J3,10,10*%
%TO.N,PC8*%
X171390000Y-83590000D03*
%TO.P,J3,11,11*%
%TO.N,PC7*%
X168850000Y-83590000D03*
%TO.P,J3,12,12*%
%TO.N,GND*%
X166310000Y-83590000D03*
%TO.P,J3,13,13*%
%TO.N,NRST*%
X163770000Y-83590000D03*
%TO.P,J3,14,14*%
X161230000Y-83590000D03*
%TO.P,J3,15,15*%
%TO.N,PC6*%
X158690000Y-83590000D03*
%TD*%
D24*
%TO.P,U2,1*%
%TO.N,+3V3*%
X181970000Y-76930000D03*
%TO.P,U2,2*%
%TO.N,GND*%
X181970000Y-73330000D03*
%TD*%
D21*
%TO.P,R1,1*%
%TO.N,GND*%
X149291000Y-84463000D03*
%TO.P,R1,2*%
%TO.N,Net-(IC1-PB2)*%
X149291000Y-83593000D03*
%TD*%
D14*
%TO.P,C10,1*%
%TO.N,+5V*%
X183758500Y-78547000D03*
%TO.P,C10,2*%
%TO.N,GND*%
X183758500Y-79407000D03*
%TD*%
D20*
%TO.P,R2,1*%
%TO.N,NRST*%
X138855000Y-77070000D03*
%TO.P,R2,2*%
%TO.N,+3V3*%
X137985000Y-77070000D03*
%TD*%
D21*
%TO.P,R4,1*%
%TO.N,GND*%
X139170000Y-82195000D03*
%TO.P,R4,2*%
%TO.N,Net-(R4-Pad2)*%
X139170000Y-81325000D03*
%TD*%
D29*
%TO.P,C1,1*%
%TO.N,+3V3*%
X143121000Y-67862000D03*
%TO.P,C1,2*%
%TO.N,GND*%
X143981000Y-67862000D03*
%TD*%
D17*
%TO.P,C6,1*%
%TO.N,+3V3*%
X185223500Y-75447000D03*
%TO.P,C6,2*%
%TO.N,GND*%
X185223500Y-74587000D03*
%TD*%
D30*
%TO.N,+3V3*%
X172478781Y-70976921D03*
%TO.N,GND*%
X190400000Y-77120000D03*
X154820004Y-73039998D03*
X143420000Y-77970000D03*
X138530000Y-83030000D03*
X135670000Y-73790000D03*
X146980000Y-85170000D03*
X143510010Y-71810005D03*
X136640000Y-78190000D03*
%TO.N,NRST*%
X140340000Y-76860000D03*
%TO.N,RECEPTORA*%
X151770000Y-69190000D03*
%TO.N,M_0*%
X149580644Y-73000957D03*
%TO.N,M_1*%
X149013150Y-73491318D03*
%TO.N,LIM_L*%
X148589176Y-74109986D03*
%TO.N,LIM_R*%
X147813853Y-73768891D03*
%TO.N,PC10*%
X151498613Y-72090500D03*
%TO.N,PC11*%
X150417983Y-72989766D03*
%TO.N,PB5*%
X147350470Y-73190615D03*
%TO.N,PB6*%
X146613853Y-73551935D03*
%TO.N,PB7*%
X145980000Y-73181431D03*
%TO.N,ADC*%
X188690000Y-71290000D03*
X140530000Y-80790000D03*
%TO.N,PA0*%
X140110000Y-68350000D03*
X144470000Y-78040000D03*
%TO.N,PA1*%
X145520000Y-78090000D03*
%TD*%
D31*
%TO.N,+3V3*%
X175704500Y-75770000D02*
X176753500Y-76819000D01*
X136540000Y-82162000D02*
X137040000Y-82162000D01*
X153580000Y-72180000D02*
X153280000Y-72480000D01*
X140090000Y-71090000D02*
X139500000Y-70500000D01*
X186592000Y-75447000D02*
X187215000Y-76070000D01*
X142690000Y-82232072D02*
X142690000Y-81090000D01*
X141780000Y-72480000D02*
X140390000Y-71090000D01*
X173320000Y-75770000D02*
X175704500Y-75770000D01*
X144780000Y-81005000D02*
X144780000Y-81905000D01*
X142690000Y-81090000D02*
X143370000Y-80410000D01*
X139500000Y-69850000D02*
X141488000Y-67862000D01*
X183453000Y-75447000D02*
X181970000Y-76930000D01*
X138650000Y-84860000D02*
X140062072Y-84860000D01*
X145051000Y-83157000D02*
X144780000Y-82886000D01*
X143370000Y-80410000D02*
X144185000Y-80410000D01*
X163362500Y-73690000D02*
X161852500Y-72180000D01*
X144780000Y-81005000D02*
X145285000Y-80500000D01*
X140390000Y-71090000D02*
X140090000Y-71090000D01*
X145285000Y-80500000D02*
X150775000Y-80500000D01*
X140062072Y-84860000D02*
X142690000Y-82232072D01*
X137985000Y-77070000D02*
X136340000Y-77070000D01*
X151280000Y-81005000D02*
X151280000Y-82660000D01*
X137040000Y-82162000D02*
X137040000Y-83250000D01*
X141488000Y-67862000D02*
X143121000Y-67862000D01*
X144780000Y-82886000D02*
X144780000Y-81005000D01*
X151824000Y-83204000D02*
X151824000Y-84018000D01*
X139500000Y-70500000D02*
X139500000Y-69850000D01*
X151280000Y-82660000D02*
X151824000Y-83204000D01*
X136340000Y-77070000D02*
X135530000Y-77880000D01*
X145051000Y-84074000D02*
X145051000Y-83157000D01*
X144185000Y-80410000D02*
X144780000Y-81005000D01*
X145051000Y-84074000D02*
X147066000Y-84074000D01*
X143121000Y-67862000D02*
X143121000Y-69821000D01*
X150775000Y-80500000D02*
X151280000Y-81005000D01*
X147066000Y-84074000D02*
X147210000Y-83930000D01*
X135530000Y-81152000D02*
X136540000Y-82162000D01*
X185223500Y-75447000D02*
X186592000Y-75447000D01*
X155490000Y-72180000D02*
X153580000Y-72180000D01*
X137040000Y-83250000D02*
X138650000Y-84860000D01*
X141855000Y-72480000D02*
X143040000Y-72480000D01*
X143121000Y-69821000D02*
X143780000Y-70480000D01*
X143040000Y-72480000D02*
X143690000Y-73130000D01*
X135530000Y-77880000D02*
X135530000Y-81152000D01*
X161852500Y-72180000D02*
X155490000Y-72180000D01*
X185223500Y-75447000D02*
X183453000Y-75447000D01*
%TO.N,GND*%
X139170000Y-82195000D02*
X139170000Y-82390000D01*
X137978000Y-79264000D02*
X136666000Y-79264000D01*
X136640000Y-79290000D02*
X136640000Y-78190000D01*
X174602500Y-75370000D02*
X176753500Y-73219000D01*
X154760006Y-72980000D02*
X154820004Y-73039998D01*
X173320000Y-75370000D02*
X174602500Y-75370000D01*
X139170000Y-82195000D02*
X139170000Y-82380000D01*
D32*
X189000000Y-80000000D02*
X190400000Y-78600000D01*
D31*
X161232000Y-68053000D02*
X164909000Y-71730000D01*
X155490000Y-73039998D02*
X154820004Y-73039998D01*
X136090000Y-76040000D02*
X136090000Y-75510000D01*
X136090000Y-75510000D02*
X135670000Y-75090000D01*
X144230000Y-71412410D02*
X143832410Y-71810000D01*
D32*
X185560000Y-79460000D02*
X186100000Y-80000000D01*
D31*
X141640000Y-70250000D02*
X143200000Y-71810000D01*
X150780000Y-83834000D02*
X150780000Y-81980000D01*
X150602000Y-84018000D02*
X150157000Y-84463000D01*
X144191000Y-84074000D02*
X144191000Y-84541000D01*
X166482500Y-71730000D02*
X168442500Y-73690000D01*
D32*
X176753500Y-73219000D02*
X181907500Y-73219000D01*
X190400000Y-78600000D02*
X190400000Y-76790000D01*
D31*
X143200000Y-71810000D02*
X143640000Y-71810000D01*
D33*
X155260650Y-73137650D02*
X155358302Y-73039998D01*
X155358302Y-73039998D02*
X155490000Y-73039998D01*
D31*
X150964000Y-84018000D02*
X150602000Y-84018000D01*
D33*
X143380000Y-71810000D02*
X143510005Y-71810000D01*
D31*
X137850000Y-78190000D02*
X136640000Y-78190000D01*
X143832410Y-71810000D02*
X143510000Y-71810000D01*
X164909000Y-71730000D02*
X166482500Y-71730000D01*
X139170000Y-82390000D02*
X138530000Y-83030000D01*
X150157000Y-84463000D02*
X149291000Y-84463000D01*
X143981000Y-67862000D02*
X144230000Y-68111000D01*
D32*
X186100000Y-80000000D02*
X189000000Y-80000000D01*
D31*
X144280000Y-81980000D02*
X144280000Y-83985000D01*
D33*
X150964000Y-84018000D02*
X150780000Y-83834000D01*
D32*
X185278500Y-79460000D02*
X185560000Y-79460000D01*
D31*
X136666000Y-79264000D02*
X136640000Y-79290000D01*
D33*
X143380000Y-71810000D02*
X143510000Y-71810000D01*
D31*
X144820000Y-85170000D02*
X148584000Y-85170000D01*
X138010000Y-78030000D02*
X137850000Y-78190000D01*
D33*
X143510005Y-71810000D02*
X143510010Y-71810005D01*
D31*
X153239350Y-72980000D02*
X154760006Y-72980000D01*
D32*
X186408000Y-74587000D02*
X187215000Y-73780000D01*
D31*
X139170000Y-82195000D02*
X139055000Y-82310000D01*
X139170000Y-82380000D02*
X139630000Y-82840000D01*
D32*
X187390000Y-73780000D02*
X187215000Y-73780000D01*
X185223500Y-74587000D02*
X186408000Y-74587000D01*
D31*
X144191000Y-84541000D02*
X144820000Y-85170000D01*
X144230000Y-68111000D02*
X144230000Y-71412410D01*
D33*
X143460000Y-77980000D02*
X143480000Y-77960000D01*
D32*
X183822500Y-73186000D02*
X185223500Y-74587000D01*
X183832500Y-79481000D02*
X183758500Y-79407000D01*
D33*
X144280000Y-83985000D02*
X144191000Y-84074000D01*
D32*
X183758500Y-79407000D02*
X185225500Y-79407000D01*
D31*
X135670000Y-71580000D02*
X135670000Y-73790000D01*
D32*
X185225500Y-79407000D02*
X185278500Y-79460000D01*
X181940500Y-73186000D02*
X183822500Y-73186000D01*
D31*
X141780000Y-77980000D02*
X143460000Y-77980000D01*
X140390000Y-70250000D02*
X141640000Y-70250000D01*
X139630000Y-82840000D02*
X140270000Y-82840000D01*
D33*
X143640000Y-71810000D02*
X143380000Y-71810000D01*
D31*
X148584000Y-85170000D02*
X149291000Y-84463000D01*
X139055000Y-82310000D02*
X138080000Y-82310000D01*
X135670000Y-75090000D02*
X135670000Y-73790000D01*
D32*
X190400000Y-76790000D02*
X187390000Y-73780000D01*
D31*
X136370000Y-70880000D02*
X135670000Y-71580000D01*
D32*
X181907500Y-73219000D02*
X181940500Y-73186000D01*
D31*
%TO.N,VDDA*%
X137040000Y-81298000D02*
X137040000Y-80550000D01*
X138226000Y-80124000D02*
X138680000Y-79670000D01*
X139870000Y-78480000D02*
X141780000Y-78480000D01*
X139330000Y-79020000D02*
X139870000Y-78480000D01*
X137952000Y-80150000D02*
X137978000Y-80124000D01*
X137040000Y-80550000D02*
X136640000Y-80150000D01*
X137978000Y-80124000D02*
X138226000Y-80124000D01*
X138680000Y-79020000D02*
X139330000Y-79020000D01*
X136640000Y-80150000D02*
X137952000Y-80150000D01*
X138680000Y-79670000D02*
X138680000Y-79020000D01*
%TO.N,NRST*%
X140755000Y-75650686D02*
X140755000Y-76445000D01*
X140925686Y-75480000D02*
X140755000Y-75650686D01*
D32*
X161230000Y-83590000D02*
X163770000Y-83590000D01*
D31*
X138851000Y-78141072D02*
X138851000Y-77070000D01*
X138851000Y-77070000D02*
X140130000Y-77070000D01*
X140755000Y-76445000D02*
X140340000Y-76860000D01*
X140130000Y-77070000D02*
X140340000Y-76860000D01*
D33*
X141779000Y-75481000D02*
X141780000Y-75480000D01*
D31*
X141780000Y-75480000D02*
X140925686Y-75480000D01*
D32*
%TO.N,+5V*%
X183811500Y-78600000D02*
X183758500Y-78547000D01*
D33*
X183772500Y-78533000D02*
X183758500Y-78547000D01*
D32*
X185278500Y-78600000D02*
X183811500Y-78600000D01*
X182590000Y-78980000D02*
X173205000Y-78980000D01*
X171220000Y-77000000D02*
X173202500Y-78982500D01*
X173205000Y-78980000D02*
X173202500Y-78982500D01*
X183023000Y-78547000D02*
X182590000Y-78980000D01*
X169260000Y-70590000D02*
X171220000Y-72550000D01*
X166312000Y-70242000D02*
X166660000Y-70590000D01*
X163092500Y-78982500D02*
X162150000Y-78040000D01*
X166312000Y-68053000D02*
X166312000Y-70242000D01*
X183758500Y-78547000D02*
X183023000Y-78547000D01*
X171220000Y-72550000D02*
X171220000Y-77000000D01*
X187215000Y-78360000D02*
X187028000Y-78547000D01*
X173202500Y-78982500D02*
X163092500Y-78982500D01*
X166660000Y-70590000D02*
X169260000Y-70590000D01*
X187215000Y-78360000D02*
X185518500Y-78360000D01*
X185518500Y-78360000D02*
X185278500Y-78600000D01*
D31*
%TO.N,OSC_OUT*%
X139955000Y-75740000D02*
X139955000Y-75535000D01*
X140510000Y-74980000D02*
X141780000Y-74980000D01*
X139955000Y-75535000D02*
X140510000Y-74980000D01*
%TO.N,OSC_IN*%
X140530000Y-72210000D02*
X139200000Y-70880000D01*
X137230000Y-70880000D02*
X137150000Y-70960000D01*
X137150000Y-73530000D02*
X137450000Y-73830000D01*
X141780000Y-74480000D02*
X140805000Y-74480000D01*
X137067500Y-72687500D02*
X137460000Y-73080000D01*
X139200000Y-70880000D02*
X137230000Y-70880000D01*
X140530000Y-74205000D02*
X140530000Y-72210000D01*
X137150000Y-70960000D02*
X137150000Y-73530000D01*
X140805000Y-74480000D02*
X140530000Y-74205000D01*
%TO.N,ADC_0*%
X141335000Y-80425000D02*
X141780000Y-79980000D01*
X141130000Y-81815000D02*
X141335000Y-81610000D01*
X141130000Y-82840000D02*
X141130000Y-81815000D01*
X141335000Y-81610000D02*
X141335000Y-80425000D01*
%TO.N,Net-(IC1-PB2)*%
X149291000Y-83593000D02*
X149291000Y-81991000D01*
D33*
X149291000Y-81991000D02*
X149280000Y-81980000D01*
D31*
%TO.N,SWDIO*%
X154131471Y-73480000D02*
X153279998Y-73480000D01*
X154321471Y-73670000D02*
X154131471Y-73480000D01*
X164690000Y-78040000D02*
X160320000Y-73670000D01*
X160320000Y-73670000D02*
X154321471Y-73670000D01*
D33*
X153280000Y-73480000D02*
X153279998Y-73480000D01*
D31*
%TO.N,SWCLK*%
X164640000Y-75450000D02*
X164640000Y-73090000D01*
X167230000Y-78040000D02*
X164640000Y-75450000D01*
X164640000Y-73090000D02*
X162030000Y-70480000D01*
X162030000Y-70480000D02*
X151280000Y-70480000D01*
D33*
%TO.N,BOOT _0*%
X145760000Y-70460000D02*
X145780000Y-70480000D01*
D31*
X145760000Y-68645000D02*
X145760000Y-70460000D01*
%TO.N,Net-(J1-Pad02)*%
X165902500Y-73690000D02*
X161902500Y-69690000D01*
X161902500Y-69690000D02*
X157500000Y-69690000D01*
X157500000Y-69690000D02*
X155585000Y-67775000D01*
X155585000Y-67775000D02*
X145760000Y-67775000D01*
%TO.N,RECEPTORA*%
X151337590Y-69190000D02*
X151770000Y-69190000D01*
X150780000Y-70555000D02*
X150780000Y-69747590D01*
X150780000Y-69747590D02*
X151337590Y-69190000D01*
%TO.N,PC6*%
X158690000Y-82415000D02*
X158690000Y-83590000D01*
X153280000Y-77980000D02*
X154255000Y-77980000D01*
X154255000Y-77980000D02*
X158690000Y-82415000D01*
%TO.N,M_0*%
X149280000Y-72700313D02*
X149580644Y-73000957D01*
X149280000Y-70480000D02*
X149280000Y-72700313D01*
%TO.N,PC7*%
X167630000Y-82370000D02*
X168850000Y-83590000D01*
X156050000Y-77480000D02*
X160940000Y-82370000D01*
X153280000Y-77480000D02*
X156050000Y-77480000D01*
X160940000Y-82370000D02*
X167630000Y-82370000D01*
%TO.N,M_1*%
X148880000Y-73358168D02*
X149013150Y-73491318D01*
X148880000Y-72821057D02*
X148880000Y-73358168D01*
X148780000Y-72721057D02*
X148880000Y-72821057D01*
X148780000Y-70480000D02*
X148780000Y-72721057D01*
%TO.N,LIM_L*%
X148413150Y-73242789D02*
X148413150Y-73739847D01*
X148280000Y-70480000D02*
X148280000Y-72705930D01*
X148350470Y-72857213D02*
X148472437Y-72979180D01*
X148472437Y-73993247D02*
X148589176Y-74109986D01*
X148350470Y-72776401D02*
X148350470Y-72857213D01*
X148472437Y-73183502D02*
X148413150Y-73242789D01*
X148413150Y-73739847D02*
X148472437Y-73799134D01*
X148472437Y-72979180D02*
X148472437Y-73183502D01*
X148472437Y-73799134D02*
X148472437Y-73993247D01*
X148280000Y-72705930D02*
X148350470Y-72776401D01*
%TO.N,LIM_R*%
X147861474Y-73528141D02*
X147931410Y-73598077D01*
X147950470Y-72942086D02*
X147950470Y-73439144D01*
X147780000Y-70480000D02*
X147780000Y-72771616D01*
X147931410Y-73598077D02*
X147931410Y-73651334D01*
X147931410Y-73651334D02*
X147813853Y-73768891D01*
X147780000Y-72771616D02*
X147950470Y-72942086D01*
X147950470Y-73439144D02*
X147861474Y-73528141D01*
%TO.N,PC10*%
X150280000Y-72050000D02*
X150280000Y-70480000D01*
X151139113Y-72450000D02*
X150680000Y-72450000D01*
X151498613Y-72090500D02*
X151139113Y-72450000D01*
X150680000Y-72450000D02*
X150280000Y-72050000D01*
%TO.N,PC8*%
X167875685Y-82050000D02*
X169850000Y-82050000D01*
X161105686Y-81970000D02*
X167795686Y-81970000D01*
X153280000Y-76980000D02*
X156115686Y-76980000D01*
X167795686Y-81970000D02*
X167875685Y-82050000D01*
X169850000Y-82050000D02*
X171390000Y-83590000D01*
X156115686Y-76980000D02*
X161105686Y-81970000D01*
%TO.N,PC9*%
X167961374Y-81570001D02*
X168041373Y-81650000D01*
X168041373Y-81650000D02*
X171990000Y-81650000D01*
X156181570Y-76480000D02*
X161271570Y-81570000D01*
X153280000Y-76480000D02*
X156181570Y-76480000D01*
X161271570Y-81570000D02*
X167961374Y-81570001D01*
X171990000Y-81650000D02*
X173930000Y-83590000D01*
%TO.N,PA8*%
X174130000Y-81250000D02*
X176470000Y-83590000D01*
X161437256Y-81170000D02*
X168127060Y-81170001D01*
X156247256Y-75980000D02*
X161437256Y-81170000D01*
X168127060Y-81170001D02*
X168207061Y-81250000D01*
X153280000Y-75980000D02*
X156247256Y-75980000D01*
X168207061Y-81250000D02*
X174130000Y-81250000D01*
%TO.N,PA9*%
X156312944Y-75480000D02*
X161602944Y-80770000D01*
X153280000Y-75480000D02*
X156312944Y-75480000D01*
X168292749Y-80770000D02*
X168372749Y-80850000D01*
X176270000Y-80850000D02*
X179010000Y-83590000D01*
X161602944Y-80770000D02*
X168292749Y-80770000D01*
X168372749Y-80850000D02*
X176270000Y-80850000D01*
%TO.N,PA10*%
X156378629Y-74980000D02*
X161768629Y-80370000D01*
X161768629Y-80370000D02*
X168127053Y-80370001D01*
X153280000Y-74980000D02*
X156378629Y-74980000D01*
X168458420Y-80369997D02*
X168458427Y-80369999D01*
X168468431Y-80380003D02*
X178340004Y-80380004D01*
X168127053Y-80370001D02*
X168127055Y-80369999D01*
X168458427Y-80369999D02*
X168468431Y-80380003D01*
X168127055Y-80369999D02*
X168458420Y-80369997D01*
X178340004Y-80380004D02*
X181550000Y-83590000D01*
%TO.N,PA11*%
X168292734Y-79969997D02*
X168624106Y-79969997D01*
X153280000Y-74480000D02*
X156444314Y-74480000D01*
X168634117Y-79980003D02*
X180480003Y-79980003D01*
X167961367Y-79970001D02*
X168292732Y-79969999D01*
X156444314Y-74480000D02*
X161934314Y-79970000D01*
X161934314Y-79970000D02*
X167961367Y-79970001D01*
X168624106Y-79969997D02*
X168624113Y-79969999D01*
X180480003Y-79980003D02*
X184090000Y-83590000D01*
X168624113Y-79969999D02*
X168634117Y-79980003D01*
X168292732Y-79969999D02*
X168292734Y-79969997D01*
%TO.N,PA13*%
X154155786Y-74070000D02*
X156600000Y-74070000D01*
X182609997Y-79569997D02*
X186630000Y-83590000D01*
X153280000Y-73980000D02*
X154065786Y-73980000D01*
X168127049Y-79569997D02*
X182609997Y-79569997D01*
X162100000Y-79570000D02*
X168127044Y-79570001D01*
X156600000Y-74070000D02*
X162100000Y-79570000D01*
X154065786Y-73980000D02*
X154155786Y-74070000D01*
X168127044Y-79570001D02*
X168127049Y-79569997D01*
%TO.N,PB8*%
X145280000Y-73710000D02*
X156610000Y-85040000D01*
X145280000Y-70480000D02*
X145280000Y-73710000D01*
X187720000Y-85040000D02*
X189170000Y-83590000D01*
X156610000Y-85040000D02*
X187720000Y-85040000D01*
%TO.N,PB9*%
X144780000Y-70480000D02*
X144740000Y-70520000D01*
X144740000Y-70520000D02*
X144740000Y-73899315D01*
X144740000Y-73899315D02*
X156330685Y-85490000D01*
X189810000Y-85490000D02*
X191710000Y-83590000D01*
X156330685Y-85490000D02*
X189810000Y-85490000D01*
%TO.N,PC11*%
X149780000Y-72351783D02*
X150417983Y-72989766D01*
X149780000Y-70480000D02*
X149780000Y-72351783D01*
%TO.N,PB5*%
X147280000Y-70480000D02*
X147280000Y-73120145D01*
X147280000Y-73120145D02*
X147350470Y-73190615D01*
%TO.N,PB6*%
X146780000Y-70480000D02*
X146780000Y-73385788D01*
X146780000Y-73385788D02*
X146613853Y-73551935D01*
%TO.N,PB7*%
X146280000Y-70480000D02*
X146280000Y-72881431D01*
X146280000Y-72881431D02*
X145980000Y-73181431D01*
%TO.N,ADC*%
X186632000Y-68053000D02*
X186632000Y-69232000D01*
X140230000Y-79745000D02*
X140230000Y-80490000D01*
X140075000Y-79590000D02*
X140230000Y-79745000D01*
X186632000Y-69232000D02*
X188690000Y-71290000D01*
X140230000Y-80490000D02*
X140530000Y-80790000D01*
%TO.N,PA0*%
X162269500Y-66550500D02*
X141899500Y-66550500D01*
X141780000Y-78980000D02*
X143540000Y-78980000D01*
X143540000Y-78980000D02*
X144480000Y-78040000D01*
X163772000Y-68053000D02*
X162269500Y-66550500D01*
X141899500Y-66550500D02*
X140080000Y-68370000D01*
%TO.N,PA1*%
X141780000Y-79480000D02*
X144130000Y-79480000D01*
X144130000Y-79480000D02*
X145520000Y-78090000D01*
%TO.N,Net-(R4-Pad2)*%
X139205000Y-79590000D02*
X139360000Y-79745000D01*
X139360000Y-81135000D02*
X139170000Y-81325000D01*
X139360000Y-79745000D02*
X139360000Y-81135000D01*
X139455000Y-81610000D02*
X139170000Y-81325000D01*
X140465000Y-81610000D02*
X139455000Y-81610000D01*
X138665000Y-81325000D02*
X139170000Y-81325000D01*
X138080000Y-81910000D02*
X138665000Y-81325000D01*
%TO.N,Net-(C11-Pad1)*%
X139010000Y-74890000D02*
X139010000Y-73270000D01*
X139010000Y-73830000D02*
X139350000Y-73830000D01*
X139010000Y-74890000D02*
X139010000Y-73830000D01*
X138895000Y-75005000D02*
X139010000Y-74890000D01*
X136950000Y-76040000D02*
X137860000Y-76040000D01*
X138895000Y-75550000D02*
X138895000Y-75005000D01*
X139085000Y-75740000D02*
X138895000Y-75550000D01*
X137860000Y-76040000D02*
X139010000Y-74890000D01*
%TD*%
%TA.AperFunction,Conductor*%
%TO.N,+3V3*%
G36*
X144083599Y-72421561D02*
G01*
X144128814Y-72474829D01*
X144139500Y-72525188D01*
X144139500Y-73855886D01*
X144138969Y-73863984D01*
X144138535Y-73867286D01*
X144134318Y-73899314D01*
X144134318Y-73899315D01*
X144140841Y-73948861D01*
X144154955Y-74056075D01*
X144154956Y-74056077D01*
X144204157Y-74174860D01*
X144215464Y-74202156D01*
X144311718Y-74327597D01*
X144339995Y-74349295D01*
X144346085Y-74354635D01*
X147380288Y-77388838D01*
X150409269Y-80417819D01*
X150442754Y-80479142D01*
X150437770Y-80548834D01*
X150395898Y-80604767D01*
X150330434Y-80629184D01*
X150321588Y-80629500D01*
X150167272Y-80629500D01*
X150080393Y-80640938D01*
X150054764Y-80644313D01*
X150054762Y-80644313D01*
X150046708Y-80645374D01*
X150046316Y-80642399D01*
X150013684Y-80642399D01*
X150013292Y-80645374D01*
X150005237Y-80644313D01*
X150005236Y-80644313D01*
X149967660Y-80639366D01*
X149892727Y-80629500D01*
X149892720Y-80629500D01*
X149667280Y-80629500D01*
X149667272Y-80629500D01*
X149580393Y-80640938D01*
X149554764Y-80644313D01*
X149554762Y-80644313D01*
X149546708Y-80645374D01*
X149546316Y-80642399D01*
X149513684Y-80642399D01*
X149513292Y-80645374D01*
X149505237Y-80644313D01*
X149505236Y-80644313D01*
X149467660Y-80639366D01*
X149392727Y-80629500D01*
X149392720Y-80629500D01*
X149167280Y-80629500D01*
X149167272Y-80629500D01*
X149080393Y-80640938D01*
X149054764Y-80644313D01*
X149054762Y-80644313D01*
X149046708Y-80645374D01*
X149046316Y-80642399D01*
X149013684Y-80642399D01*
X149013292Y-80645374D01*
X149005237Y-80644313D01*
X149005236Y-80644313D01*
X148967660Y-80639366D01*
X148892727Y-80629500D01*
X148892720Y-80629500D01*
X148667280Y-80629500D01*
X148667272Y-80629500D01*
X148580393Y-80640938D01*
X148554764Y-80644313D01*
X148554762Y-80644313D01*
X148546708Y-80645374D01*
X148546316Y-80642399D01*
X148513684Y-80642399D01*
X148513292Y-80645374D01*
X148505237Y-80644313D01*
X148505236Y-80644313D01*
X148467660Y-80639366D01*
X148392727Y-80629500D01*
X148392720Y-80629500D01*
X148167280Y-80629500D01*
X148167272Y-80629500D01*
X148080393Y-80640938D01*
X148054764Y-80644313D01*
X148054762Y-80644313D01*
X148046708Y-80645374D01*
X148046316Y-80642399D01*
X148013684Y-80642399D01*
X148013292Y-80645374D01*
X148005237Y-80644313D01*
X148005236Y-80644313D01*
X147967660Y-80639366D01*
X147892727Y-80629500D01*
X147892720Y-80629500D01*
X147667280Y-80629500D01*
X147667272Y-80629500D01*
X147580393Y-80640938D01*
X147554764Y-80644313D01*
X147554762Y-80644313D01*
X147546708Y-80645374D01*
X147546316Y-80642399D01*
X147513684Y-80642399D01*
X147513292Y-80645374D01*
X147505237Y-80644313D01*
X147505236Y-80644313D01*
X147467660Y-80639366D01*
X147392727Y-80629500D01*
X147392720Y-80629500D01*
X147167280Y-80629500D01*
X147167272Y-80629500D01*
X147080393Y-80640938D01*
X147054764Y-80644313D01*
X147054762Y-80644313D01*
X147046708Y-80645374D01*
X147046316Y-80642399D01*
X147013684Y-80642399D01*
X147013292Y-80645374D01*
X147005237Y-80644313D01*
X147005236Y-80644313D01*
X146967660Y-80639366D01*
X146892727Y-80629500D01*
X146892720Y-80629500D01*
X146667280Y-80629500D01*
X146667272Y-80629500D01*
X146580393Y-80640938D01*
X146554764Y-80644313D01*
X146554762Y-80644313D01*
X146546708Y-80645374D01*
X146546316Y-80642399D01*
X146513684Y-80642399D01*
X146513292Y-80645374D01*
X146505237Y-80644313D01*
X146505236Y-80644313D01*
X146467660Y-80639366D01*
X146392727Y-80629500D01*
X146392720Y-80629500D01*
X146167280Y-80629500D01*
X146167272Y-80629500D01*
X146080393Y-80640938D01*
X146054764Y-80644313D01*
X146054762Y-80644313D01*
X146046708Y-80645374D01*
X146046316Y-80642399D01*
X146013684Y-80642399D01*
X146013292Y-80645374D01*
X146005237Y-80644313D01*
X146005236Y-80644313D01*
X145967660Y-80639366D01*
X145892727Y-80629500D01*
X145892720Y-80629500D01*
X145667280Y-80629500D01*
X145667272Y-80629500D01*
X145580393Y-80640938D01*
X145554764Y-80644313D01*
X145554762Y-80644313D01*
X145546708Y-80645374D01*
X145546316Y-80642399D01*
X145513684Y-80642399D01*
X145513292Y-80645374D01*
X145505237Y-80644313D01*
X145505236Y-80644313D01*
X145467660Y-80639366D01*
X145392727Y-80629500D01*
X145392720Y-80629500D01*
X145167280Y-80629500D01*
X145167272Y-80629500D01*
X145074566Y-80641706D01*
X145054764Y-80644313D01*
X145054763Y-80644313D01*
X145046707Y-80645374D01*
X145046472Y-80643595D01*
X145012729Y-80645804D01*
X144930000Y-80634911D01*
X144927845Y-80636801D01*
X144910315Y-80696502D01*
X144881487Y-80727838D01*
X144855486Y-80747789D01*
X144790319Y-80772984D01*
X144721874Y-80758946D01*
X144704515Y-80747790D01*
X144678512Y-80727838D01*
X144637310Y-80671410D01*
X144631120Y-80635894D01*
X144629999Y-80634911D01*
X144547270Y-80645804D01*
X144513527Y-80643593D01*
X144513293Y-80645374D01*
X144505236Y-80644313D01*
X144485434Y-80641706D01*
X144392727Y-80629500D01*
X144392720Y-80629500D01*
X144167280Y-80629500D01*
X144167272Y-80629500D01*
X144080393Y-80640938D01*
X144054764Y-80644313D01*
X144054762Y-80644313D01*
X144046708Y-80645374D01*
X144046316Y-80642399D01*
X144013684Y-80642399D01*
X144013292Y-80645374D01*
X144005237Y-80644313D01*
X144005236Y-80644313D01*
X143967660Y-80639366D01*
X143892727Y-80629500D01*
X143892720Y-80629500D01*
X143667280Y-80629500D01*
X143667272Y-80629500D01*
X143554764Y-80644313D01*
X143554763Y-80644313D01*
X143414770Y-80702300D01*
X143414767Y-80702301D01*
X143414767Y-80702302D01*
X143294549Y-80794549D01*
X143217854Y-80894500D01*
X143202300Y-80914770D01*
X143144313Y-81054763D01*
X143144313Y-81054764D01*
X143129500Y-81167272D01*
X143129500Y-82642727D01*
X143144313Y-82755235D01*
X143144313Y-82755236D01*
X143199509Y-82888492D01*
X143202302Y-82895233D01*
X143294549Y-83015451D01*
X143414767Y-83107698D01*
X143554764Y-83165687D01*
X143571687Y-83167915D01*
X143635580Y-83196179D01*
X143674052Y-83254502D01*
X143679500Y-83290853D01*
X143679500Y-83305611D01*
X143659815Y-83372650D01*
X143630987Y-83403986D01*
X143585722Y-83438719D01*
X143493378Y-83559062D01*
X143493376Y-83559065D01*
X143435330Y-83699204D01*
X143435329Y-83699207D01*
X143435329Y-83699208D01*
X143435311Y-83699346D01*
X143420500Y-83811834D01*
X143420500Y-84336165D01*
X143435329Y-84448790D01*
X143435330Y-84448795D01*
X143493376Y-84588934D01*
X143493378Y-84588936D01*
X143585718Y-84709276D01*
X143585719Y-84709277D01*
X143585721Y-84709279D01*
X143596016Y-84717179D01*
X143635091Y-84768101D01*
X143666462Y-84843838D01*
X143666463Y-84843840D01*
X143666464Y-84843841D01*
X143762718Y-84969282D01*
X143790995Y-84990980D01*
X143797085Y-84996320D01*
X144364669Y-85563904D01*
X144370020Y-85570005D01*
X144391718Y-85598282D01*
X144446738Y-85640500D01*
X144520532Y-85697124D01*
X144561735Y-85753552D01*
X144565890Y-85823298D01*
X144531678Y-85884218D01*
X144469961Y-85916971D01*
X144445046Y-85919500D01*
X135951569Y-85919500D01*
X135884530Y-85899815D01*
X135863888Y-85883181D01*
X134936819Y-84956111D01*
X134903334Y-84894788D01*
X134900500Y-84868430D01*
X134900500Y-82412000D01*
X136240000Y-82412000D01*
X136240000Y-82479844D01*
X136246401Y-82539372D01*
X136246403Y-82539379D01*
X136296645Y-82674086D01*
X136296649Y-82674093D01*
X136382809Y-82789187D01*
X136382812Y-82789190D01*
X136497906Y-82875350D01*
X136497913Y-82875354D01*
X136632620Y-82925596D01*
X136632627Y-82925598D01*
X136692155Y-82931999D01*
X136692172Y-82932000D01*
X136790000Y-82932000D01*
X136790000Y-82412000D01*
X136240000Y-82412000D01*
X134900500Y-82412000D01*
X134900500Y-75424835D01*
X134920185Y-75357796D01*
X134972989Y-75312041D01*
X135042147Y-75302097D01*
X135105703Y-75331122D01*
X135139061Y-75377383D01*
X135145462Y-75392838D01*
X135145463Y-75392840D01*
X135145464Y-75392841D01*
X135241718Y-75518282D01*
X135269995Y-75539980D01*
X135276085Y-75545320D01*
X135289858Y-75559093D01*
X135298260Y-75567495D01*
X135331745Y-75628818D01*
X135333518Y-75671361D01*
X135319501Y-75777831D01*
X135319500Y-75777848D01*
X135319500Y-76302165D01*
X135334329Y-76414790D01*
X135334330Y-76414795D01*
X135392376Y-76554934D01*
X135392378Y-76554937D01*
X135484721Y-76675279D01*
X135605062Y-76767621D01*
X135605065Y-76767623D01*
X135689420Y-76802563D01*
X135745208Y-76825671D01*
X135857842Y-76840500D01*
X135857849Y-76840500D01*
X136322151Y-76840500D01*
X136322158Y-76840500D01*
X136434792Y-76825671D01*
X136472548Y-76810031D01*
X136542017Y-76802563D01*
X136567448Y-76810030D01*
X136605208Y-76825671D01*
X136717842Y-76840500D01*
X136717849Y-76840500D01*
X137182151Y-76840500D01*
X137182158Y-76840500D01*
X137294792Y-76825671D01*
X137294799Y-76825667D01*
X137300186Y-76824225D01*
X137332280Y-76820000D01*
X137950500Y-76820000D01*
X138017539Y-76839685D01*
X138063294Y-76892489D01*
X138074500Y-76944000D01*
X138074501Y-77196000D01*
X138054817Y-77263039D01*
X138002013Y-77308794D01*
X137950501Y-77320000D01*
X137205000Y-77320000D01*
X137205000Y-77417837D01*
X137205422Y-77421761D01*
X137193010Y-77490520D01*
X137145395Y-77541652D01*
X137077694Y-77558926D01*
X137016159Y-77539999D01*
X136967692Y-77509545D01*
X136967691Y-77509544D01*
X136967690Y-77509544D01*
X136920621Y-77493074D01*
X136808056Y-77453685D01*
X136640003Y-77434751D01*
X136639997Y-77434751D01*
X136471943Y-77453685D01*
X136312305Y-77509545D01*
X136312302Y-77509547D01*
X136169115Y-77599518D01*
X136169109Y-77599523D01*
X136049523Y-77719109D01*
X136049518Y-77719115D01*
X135959547Y-77862302D01*
X135959545Y-77862305D01*
X135903685Y-78021943D01*
X135884751Y-78189997D01*
X135884751Y-78190002D01*
X135903686Y-78358057D01*
X135959543Y-78517690D01*
X135991696Y-78568859D01*
X136010697Y-78636095D01*
X135990330Y-78702931D01*
X135985079Y-78710318D01*
X135912378Y-78805063D01*
X135912376Y-78805065D01*
X135854330Y-78945204D01*
X135854329Y-78945209D01*
X135839500Y-79057834D01*
X135839500Y-79522165D01*
X135854329Y-79634790D01*
X135854329Y-79634792D01*
X135869968Y-79672549D01*
X135877435Y-79742019D01*
X135869968Y-79767450D01*
X135854329Y-79805208D01*
X135839500Y-79917834D01*
X135839500Y-80382165D01*
X135850466Y-80465450D01*
X135853123Y-80485635D01*
X135854329Y-80494790D01*
X135854330Y-80494795D01*
X135912376Y-80634934D01*
X135912378Y-80634937D01*
X135985984Y-80730861D01*
X136004721Y-80755279D01*
X136125064Y-80847622D01*
X136162951Y-80863315D01*
X136217355Y-80907154D01*
X136239421Y-80973448D01*
X136239500Y-80977876D01*
X136239500Y-81615870D01*
X136239501Y-81615876D01*
X136245908Y-81675483D01*
X136250347Y-81687383D01*
X136255330Y-81757075D01*
X136250348Y-81774043D01*
X136246402Y-81784621D01*
X136246401Y-81784627D01*
X136240000Y-81844155D01*
X136240000Y-81912000D01*
X136323088Y-81912000D01*
X136390127Y-81931685D01*
X136397389Y-81936726D01*
X136483058Y-82000858D01*
X136497668Y-82011795D01*
X136497671Y-82011797D01*
X136542618Y-82028561D01*
X136632517Y-82062091D01*
X136692127Y-82068500D01*
X137166001Y-82068499D01*
X137233039Y-82088183D01*
X137278794Y-82140987D01*
X137290000Y-82192499D01*
X137290000Y-82932000D01*
X137387828Y-82932000D01*
X137387844Y-82931999D01*
X137447372Y-82925598D01*
X137447376Y-82925597D01*
X137582093Y-82875350D01*
X137589876Y-82871101D01*
X137590524Y-82872288D01*
X137647325Y-82851094D01*
X137715600Y-82865937D01*
X137765012Y-82915335D01*
X137779873Y-82983606D01*
X137779408Y-82988659D01*
X137774751Y-83029994D01*
X137774751Y-83030002D01*
X137793685Y-83198056D01*
X137849545Y-83357694D01*
X137849547Y-83357697D01*
X137939518Y-83500884D01*
X137939523Y-83500890D01*
X138059109Y-83620476D01*
X138059115Y-83620481D01*
X138202302Y-83710452D01*
X138202305Y-83710454D01*
X138202309Y-83710455D01*
X138202310Y-83710456D01*
X138274913Y-83735860D01*
X138361943Y-83766314D01*
X138529997Y-83785249D01*
X138530000Y-83785249D01*
X138530003Y-83785249D01*
X138698056Y-83766314D01*
X138727966Y-83755848D01*
X138857690Y-83710456D01*
X138857692Y-83710454D01*
X138857694Y-83710454D01*
X138857697Y-83710452D01*
X139000884Y-83620481D01*
X139000885Y-83620480D01*
X139000890Y-83620477D01*
X139120477Y-83500890D01*
X139175436Y-83413422D01*
X139227770Y-83367133D01*
X139296823Y-83356485D01*
X139327878Y-83364834D01*
X139473238Y-83425044D01*
X139594168Y-83440964D01*
X139658063Y-83469230D01*
X139664224Y-83474898D01*
X139737931Y-83531455D01*
X139774243Y-83559319D01*
X139785063Y-83567621D01*
X139785065Y-83567623D01*
X139869420Y-83602563D01*
X139925208Y-83625671D01*
X140037842Y-83640500D01*
X140037849Y-83640500D01*
X140502151Y-83640500D01*
X140502158Y-83640500D01*
X140614792Y-83625671D01*
X140652548Y-83610031D01*
X140722017Y-83602563D01*
X140747448Y-83610030D01*
X140785208Y-83625671D01*
X140897842Y-83640500D01*
X140897849Y-83640500D01*
X141362151Y-83640500D01*
X141362158Y-83640500D01*
X141474792Y-83625671D01*
X141614936Y-83567622D01*
X141735279Y-83475279D01*
X141827622Y-83354936D01*
X141885671Y-83214792D01*
X141900500Y-83102158D01*
X141900500Y-82577842D01*
X141885671Y-82465208D01*
X141880599Y-82452964D01*
X141873130Y-82383498D01*
X141904403Y-82321018D01*
X141920845Y-82306248D01*
X141972546Y-82267546D01*
X142058796Y-82152331D01*
X142109091Y-82017483D01*
X142115500Y-81957873D01*
X142115499Y-81262128D01*
X142109091Y-81202517D01*
X142095948Y-81167280D01*
X142058797Y-81067671D01*
X142058793Y-81067664D01*
X141972547Y-80952455D01*
X141971812Y-80951720D01*
X141971314Y-80950807D01*
X141967232Y-80945355D01*
X141968016Y-80944767D01*
X141938332Y-80890394D01*
X141935500Y-80864045D01*
X141935500Y-80754500D01*
X141955185Y-80687461D01*
X142007989Y-80641706D01*
X142059500Y-80630500D01*
X142592713Y-80630500D01*
X142592720Y-80630500D01*
X142705236Y-80615687D01*
X142845233Y-80557698D01*
X142965451Y-80465451D01*
X143057698Y-80345233D01*
X143115687Y-80205236D01*
X143117915Y-80188313D01*
X143146183Y-80124416D01*
X143204508Y-80085946D01*
X143240854Y-80080500D01*
X144086572Y-80080500D01*
X144094670Y-80081030D01*
X144130000Y-80085682D01*
X144130001Y-80085682D01*
X144182254Y-80078802D01*
X144286762Y-80065044D01*
X144432841Y-80004536D01*
X144454884Y-79987622D01*
X144558282Y-79908282D01*
X144579983Y-79879999D01*
X144585311Y-79873922D01*
X145595240Y-78863993D01*
X145656561Y-78830510D01*
X145669024Y-78828457D01*
X145688059Y-78826313D01*
X145847690Y-78770456D01*
X145847693Y-78770453D01*
X145847697Y-78770452D01*
X145990884Y-78680481D01*
X145990885Y-78680480D01*
X145990890Y-78680477D01*
X146110477Y-78560890D01*
X146200452Y-78417697D01*
X146200454Y-78417694D01*
X146200454Y-78417692D01*
X146200456Y-78417690D01*
X146256313Y-78258059D01*
X146256313Y-78258058D01*
X146256314Y-78258056D01*
X146275249Y-78090002D01*
X146275249Y-78089997D01*
X146256314Y-77921943D01*
X146217310Y-77810476D01*
X146200456Y-77762310D01*
X146200455Y-77762309D01*
X146200454Y-77762305D01*
X146200452Y-77762302D01*
X146110481Y-77619115D01*
X146110476Y-77619109D01*
X145990890Y-77499523D01*
X145990884Y-77499518D01*
X145847697Y-77409547D01*
X145847694Y-77409545D01*
X145688056Y-77353685D01*
X145520003Y-77334751D01*
X145519997Y-77334751D01*
X145351943Y-77353685D01*
X145192307Y-77409545D01*
X145097085Y-77469378D01*
X145029849Y-77488378D01*
X144963013Y-77468010D01*
X144943432Y-77452065D01*
X144940890Y-77449523D01*
X144940884Y-77449518D01*
X144797697Y-77359547D01*
X144797694Y-77359545D01*
X144638056Y-77303685D01*
X144470003Y-77284751D01*
X144469997Y-77284751D01*
X144301943Y-77303685D01*
X144142307Y-77359545D01*
X144059367Y-77411660D01*
X143992130Y-77430660D01*
X143925295Y-77410292D01*
X143905714Y-77394347D01*
X143890890Y-77379523D01*
X143890884Y-77379518D01*
X143747697Y-77289547D01*
X143747694Y-77289545D01*
X143588056Y-77233685D01*
X143420003Y-77214751D01*
X143419996Y-77214751D01*
X143267345Y-77231950D01*
X143198523Y-77219895D01*
X143147144Y-77172546D01*
X143129520Y-77104936D01*
X143130459Y-77093338D01*
X143130500Y-77092713D01*
X143130500Y-76867286D01*
X143130500Y-76867280D01*
X143115687Y-76754764D01*
X143115686Y-76754763D01*
X143114626Y-76746705D01*
X143117689Y-76746301D01*
X143117689Y-76713698D01*
X143114626Y-76713295D01*
X143123527Y-76645682D01*
X143130500Y-76592720D01*
X143130500Y-76367280D01*
X143115687Y-76254764D01*
X143115686Y-76254763D01*
X143114626Y-76246705D01*
X143117689Y-76246301D01*
X143117689Y-76213698D01*
X143114626Y-76213295D01*
X143127950Y-76112086D01*
X143130500Y-76092720D01*
X143130500Y-75867280D01*
X143115687Y-75754764D01*
X143115686Y-75754763D01*
X143114626Y-75746705D01*
X143117689Y-75746301D01*
X143117689Y-75713698D01*
X143114626Y-75713295D01*
X143117702Y-75689929D01*
X143130500Y-75592720D01*
X143130500Y-75367280D01*
X143115687Y-75254764D01*
X143115686Y-75254763D01*
X143114626Y-75246705D01*
X143117689Y-75246301D01*
X143117689Y-75213698D01*
X143114626Y-75213295D01*
X143119047Y-75179712D01*
X143130500Y-75092720D01*
X143130500Y-74867280D01*
X143115687Y-74754764D01*
X143115686Y-74754763D01*
X143114626Y-74746705D01*
X143117689Y-74746301D01*
X143117689Y-74713698D01*
X143114626Y-74713295D01*
X143116315Y-74700463D01*
X143130500Y-74592720D01*
X143130500Y-74367280D01*
X143115687Y-74254764D01*
X143115686Y-74254763D01*
X143114626Y-74246705D01*
X143117689Y-74246301D01*
X143117689Y-74213698D01*
X143114626Y-74213295D01*
X143122367Y-74154493D01*
X143130500Y-74092720D01*
X143130500Y-73867280D01*
X143115687Y-73754764D01*
X143115686Y-73754763D01*
X143114626Y-73746705D01*
X143117689Y-73746301D01*
X143117689Y-73713698D01*
X143114626Y-73713295D01*
X143115687Y-73705236D01*
X143130500Y-73592720D01*
X143130500Y-73367280D01*
X143115687Y-73254764D01*
X143115686Y-73254763D01*
X143114626Y-73246705D01*
X143117689Y-73246301D01*
X143117689Y-73213698D01*
X143114626Y-73213295D01*
X143115687Y-73205236D01*
X143130500Y-73092720D01*
X143130500Y-72867280D01*
X143115687Y-72754764D01*
X143115686Y-72754763D01*
X143114626Y-72746705D01*
X143116406Y-72746470D01*
X143114196Y-72712729D01*
X143125259Y-72628699D01*
X143153526Y-72564803D01*
X143211850Y-72526332D01*
X143281715Y-72525501D01*
X143289153Y-72527844D01*
X143341949Y-72546318D01*
X143510007Y-72565254D01*
X143510010Y-72565254D01*
X143510013Y-72565254D01*
X143678066Y-72546319D01*
X143687863Y-72542891D01*
X143837700Y-72490461D01*
X143949527Y-72420194D01*
X144016764Y-72401194D01*
X144083599Y-72421561D01*
G37*
%TD.AperFunction*%
%TA.AperFunction,Conductor*%
G36*
X152135203Y-82144199D02*
G01*
X152141681Y-82150231D01*
X155699269Y-85707819D01*
X155732754Y-85769142D01*
X155727770Y-85838834D01*
X155685898Y-85894767D01*
X155620434Y-85919184D01*
X155611588Y-85919500D01*
X148958954Y-85919500D01*
X148891915Y-85899815D01*
X148846160Y-85847011D01*
X148836216Y-85777853D01*
X148865241Y-85714297D01*
X148883468Y-85697124D01*
X148957262Y-85640500D01*
X149012282Y-85598282D01*
X149033983Y-85569999D01*
X149039319Y-85563914D01*
X149323416Y-85279818D01*
X149384739Y-85246333D01*
X149411097Y-85243499D01*
X149638871Y-85243499D01*
X149638872Y-85243499D01*
X149698483Y-85237091D01*
X149833331Y-85186796D01*
X149948546Y-85100546D01*
X149948548Y-85100542D01*
X149949280Y-85099812D01*
X149950192Y-85099314D01*
X149955645Y-85095232D01*
X149956232Y-85096016D01*
X150010606Y-85066332D01*
X150036955Y-85063500D01*
X150113572Y-85063500D01*
X150121670Y-85064030D01*
X150157000Y-85068682D01*
X150157001Y-85068682D01*
X150209254Y-85061802D01*
X150313762Y-85048044D01*
X150459841Y-84987536D01*
X150524678Y-84937785D01*
X150585282Y-84891282D01*
X150606983Y-84862999D01*
X150612311Y-84856922D01*
X150616932Y-84852301D01*
X150678253Y-84818818D01*
X150720799Y-84817046D01*
X150731842Y-84818500D01*
X150731849Y-84818500D01*
X151196151Y-84818500D01*
X151196158Y-84818500D01*
X151308792Y-84803671D01*
X151347197Y-84787762D01*
X151416666Y-84780293D01*
X151442104Y-84787762D01*
X151479337Y-84803184D01*
X151573999Y-84815646D01*
X151574000Y-84815646D01*
X151574000Y-84689218D01*
X151593685Y-84622179D01*
X151599625Y-84613731D01*
X151616322Y-84591972D01*
X151661622Y-84532936D01*
X151661729Y-84532679D01*
X151672344Y-84507049D01*
X151719671Y-84392792D01*
X151734500Y-84280158D01*
X151734500Y-84268000D01*
X152074000Y-84268000D01*
X152074000Y-84815645D01*
X152074001Y-84815646D01*
X152168653Y-84803186D01*
X152168665Y-84803183D01*
X152308679Y-84745188D01*
X152308680Y-84745188D01*
X152428922Y-84652922D01*
X152521188Y-84532680D01*
X152521188Y-84532679D01*
X152579183Y-84392665D01*
X152579185Y-84392660D01*
X152594000Y-84280129D01*
X152594000Y-84268000D01*
X152074000Y-84268000D01*
X151734500Y-84268000D01*
X151734500Y-83755842D01*
X151719671Y-83643208D01*
X151684924Y-83559320D01*
X151661623Y-83503065D01*
X151661621Y-83503063D01*
X151599624Y-83422266D01*
X151574430Y-83357097D01*
X151574000Y-83346780D01*
X151574000Y-83220351D01*
X152074000Y-83220351D01*
X152074000Y-83768000D01*
X152593999Y-83768000D01*
X152593999Y-83755868D01*
X152579187Y-83643346D01*
X152579183Y-83643334D01*
X152521188Y-83503320D01*
X152521188Y-83503319D01*
X152428922Y-83383077D01*
X152308679Y-83290811D01*
X152168662Y-83232815D01*
X152074000Y-83220351D01*
X151574000Y-83220351D01*
X151574000Y-83219517D01*
X151593685Y-83152478D01*
X151639020Y-83113194D01*
X151637942Y-83111326D01*
X151644977Y-83107264D01*
X151765094Y-83015094D01*
X151857263Y-82894978D01*
X151915198Y-82755108D01*
X151915199Y-82755104D01*
X151929999Y-82642697D01*
X151930000Y-82642683D01*
X151930000Y-82237912D01*
X151949685Y-82170873D01*
X152002489Y-82125118D01*
X152071647Y-82115174D01*
X152135203Y-82144199D01*
G37*
%TD.AperFunction*%
%TA.AperFunction,Conductor*%
G36*
X195065469Y-65570185D02*
G01*
X195086111Y-65586819D01*
X196028533Y-66529240D01*
X196062018Y-66590563D01*
X196064851Y-66616357D01*
X196109765Y-76488260D01*
X196109765Y-85018165D01*
X196090080Y-85085204D01*
X196073446Y-85105846D01*
X195296111Y-85883181D01*
X195234788Y-85916666D01*
X195208430Y-85919500D01*
X190529096Y-85919500D01*
X190462057Y-85899815D01*
X190416302Y-85847011D01*
X190406358Y-85777853D01*
X190435383Y-85714297D01*
X190441415Y-85707819D01*
X190585330Y-85563904D01*
X191265253Y-84883980D01*
X191326574Y-84850497D01*
X191385025Y-84851888D01*
X191403753Y-84856906D01*
X191482872Y-84878106D01*
X191633487Y-84891283D01*
X191709998Y-84897977D01*
X191710000Y-84897977D01*
X191710002Y-84897977D01*
X191786513Y-84891283D01*
X191937128Y-84878106D01*
X192157354Y-84819096D01*
X192363989Y-84722741D01*
X192550751Y-84591969D01*
X192711969Y-84430751D01*
X192725716Y-84411118D01*
X192780291Y-84367493D01*
X192849789Y-84360299D01*
X192912145Y-84391821D01*
X192947559Y-84452050D01*
X192950580Y-84468983D01*
X192953901Y-84499873D01*
X192953903Y-84499879D01*
X193004145Y-84634586D01*
X193004149Y-84634593D01*
X193090309Y-84749687D01*
X193090312Y-84749690D01*
X193205406Y-84835850D01*
X193205413Y-84835854D01*
X193340120Y-84886096D01*
X193340127Y-84886098D01*
X193399655Y-84892499D01*
X193399672Y-84892500D01*
X194000000Y-84892500D01*
X194000000Y-84064128D01*
X194034851Y-84085322D01*
X194176466Y-84125000D01*
X194286595Y-84125000D01*
X194395698Y-84110004D01*
X194500000Y-84064699D01*
X194500000Y-84892500D01*
X195100328Y-84892500D01*
X195100344Y-84892499D01*
X195159872Y-84886098D01*
X195159879Y-84886096D01*
X195294586Y-84835854D01*
X195294593Y-84835850D01*
X195409687Y-84749690D01*
X195409690Y-84749687D01*
X195495850Y-84634593D01*
X195495854Y-84634586D01*
X195546096Y-84499879D01*
X195546098Y-84499872D01*
X195552499Y-84440344D01*
X195552500Y-84440327D01*
X195552500Y-83840000D01*
X194728390Y-83840000D01*
X194729485Y-83838449D01*
X194778735Y-83699872D01*
X194788771Y-83553147D01*
X194758849Y-83409155D01*
X194723016Y-83340000D01*
X195552500Y-83340000D01*
X195552500Y-82739672D01*
X195552499Y-82739655D01*
X195546098Y-82680127D01*
X195546096Y-82680120D01*
X195495854Y-82545413D01*
X195495850Y-82545406D01*
X195409690Y-82430312D01*
X195409687Y-82430309D01*
X195294593Y-82344149D01*
X195294586Y-82344145D01*
X195159879Y-82293903D01*
X195159872Y-82293901D01*
X195100344Y-82287500D01*
X194500000Y-82287500D01*
X194500000Y-83115871D01*
X194465149Y-83094678D01*
X194323534Y-83055000D01*
X194213405Y-83055000D01*
X194104302Y-83069996D01*
X194000000Y-83115300D01*
X194000000Y-82287500D01*
X193399655Y-82287500D01*
X193340127Y-82293901D01*
X193340120Y-82293903D01*
X193205413Y-82344145D01*
X193205406Y-82344149D01*
X193090312Y-82430309D01*
X193090309Y-82430312D01*
X193004149Y-82545406D01*
X193004145Y-82545413D01*
X192953903Y-82680120D01*
X192953901Y-82680126D01*
X192950580Y-82711017D01*
X192923841Y-82775567D01*
X192866448Y-82815414D01*
X192796622Y-82817907D01*
X192736534Y-82782253D01*
X192725715Y-82768881D01*
X192724780Y-82767546D01*
X192711969Y-82749249D01*
X192550751Y-82588031D01*
X192550747Y-82588028D01*
X192550746Y-82588027D01*
X192363993Y-82457261D01*
X192363989Y-82457259D01*
X192354785Y-82452967D01*
X192157354Y-82360904D01*
X192157351Y-82360903D01*
X192157349Y-82360902D01*
X191937129Y-82301894D01*
X191937122Y-82301893D01*
X191710002Y-82282023D01*
X191709998Y-82282023D01*
X191482877Y-82301893D01*
X191482870Y-82301894D01*
X191262642Y-82360905D01*
X191056013Y-82457258D01*
X191056011Y-82457259D01*
X190869246Y-82588032D01*
X190708032Y-82749246D01*
X190577259Y-82936011D01*
X190577258Y-82936013D01*
X190552382Y-82989361D01*
X190506209Y-83041800D01*
X190439016Y-83060952D01*
X190372135Y-83040736D01*
X190327618Y-82989361D01*
X190302741Y-82936013D01*
X190302740Y-82936011D01*
X190299931Y-82932000D01*
X190199934Y-82789187D01*
X190171970Y-82749250D01*
X190094310Y-82671590D01*
X190010751Y-82588031D01*
X190010747Y-82588028D01*
X190010746Y-82588027D01*
X189823993Y-82457261D01*
X189823989Y-82457259D01*
X189814785Y-82452967D01*
X189617354Y-82360904D01*
X189617351Y-82360903D01*
X189617349Y-82360902D01*
X189397129Y-82301894D01*
X189397122Y-82301893D01*
X189170002Y-82282023D01*
X189169998Y-82282023D01*
X188942877Y-82301893D01*
X188942870Y-82301894D01*
X188722642Y-82360905D01*
X188516013Y-82457258D01*
X188516011Y-82457259D01*
X188329246Y-82588032D01*
X188168032Y-82749246D01*
X188037259Y-82936011D01*
X188037258Y-82936013D01*
X188012382Y-82989361D01*
X187966209Y-83041800D01*
X187899016Y-83060952D01*
X187832135Y-83040736D01*
X187787618Y-82989361D01*
X187762741Y-82936013D01*
X187762740Y-82936011D01*
X187759931Y-82932000D01*
X187659934Y-82789187D01*
X187631970Y-82749250D01*
X187554310Y-82671590D01*
X187470751Y-82588031D01*
X187470747Y-82588028D01*
X187470746Y-82588027D01*
X187283993Y-82457261D01*
X187283989Y-82457259D01*
X187274785Y-82452967D01*
X187077354Y-82360904D01*
X187077351Y-82360903D01*
X187077349Y-82360902D01*
X186857129Y-82301894D01*
X186857122Y-82301893D01*
X186630002Y-82282023D01*
X186629998Y-82282023D01*
X186494233Y-82293901D01*
X186402872Y-82301894D01*
X186402869Y-82301894D01*
X186305026Y-82328111D01*
X186235176Y-82326448D01*
X186185252Y-82296017D01*
X184258416Y-80369181D01*
X184224931Y-80307858D01*
X184229915Y-80238166D01*
X184271787Y-80182233D01*
X184337251Y-80157816D01*
X184346097Y-80157500D01*
X184738605Y-80157500D01*
X184786057Y-80166939D01*
X184903708Y-80215671D01*
X185016342Y-80230500D01*
X185217770Y-80230500D01*
X185284809Y-80250185D01*
X185305451Y-80266819D01*
X185524268Y-80485635D01*
X185536049Y-80499267D01*
X185550390Y-80518530D01*
X185590420Y-80552119D01*
X185594392Y-80555759D01*
X185600223Y-80561590D01*
X185600222Y-80561590D01*
X185622027Y-80578830D01*
X185625944Y-80581927D01*
X185684786Y-80631302D01*
X185684794Y-80631306D01*
X185690824Y-80635273D01*
X185690790Y-80635323D01*
X185697137Y-80639366D01*
X185697169Y-80639316D01*
X185703318Y-80643108D01*
X185703320Y-80643109D01*
X185703323Y-80643111D01*
X185772930Y-80675569D01*
X185841567Y-80710040D01*
X185841576Y-80710042D01*
X185848355Y-80712510D01*
X185848334Y-80712567D01*
X185855451Y-80715040D01*
X185855470Y-80714984D01*
X185862330Y-80717257D01*
X185937532Y-80732784D01*
X186012279Y-80750500D01*
X186012288Y-80750500D01*
X186019452Y-80751338D01*
X186019445Y-80751397D01*
X186026946Y-80752163D01*
X186026952Y-80752104D01*
X186034140Y-80752733D01*
X186034143Y-80752732D01*
X186034144Y-80752733D01*
X186110898Y-80750500D01*
X188936295Y-80750500D01*
X188954265Y-80751809D01*
X188978023Y-80755289D01*
X189030068Y-80750735D01*
X189035470Y-80750500D01*
X189043704Y-80750500D01*
X189043709Y-80750500D01*
X189066900Y-80747789D01*
X189076276Y-80746693D01*
X189089028Y-80745577D01*
X189152797Y-80739999D01*
X189152805Y-80739996D01*
X189159866Y-80738539D01*
X189159878Y-80738598D01*
X189167243Y-80736965D01*
X189167229Y-80736906D01*
X189174246Y-80735241D01*
X189174255Y-80735241D01*
X189246423Y-80708974D01*
X189319334Y-80684814D01*
X189319343Y-80684807D01*
X189325882Y-80681760D01*
X189325908Y-80681816D01*
X189332690Y-80678532D01*
X189332663Y-80678478D01*
X189339106Y-80675240D01*
X189339117Y-80675237D01*
X189403283Y-80633034D01*
X189468656Y-80592712D01*
X189468662Y-80592705D01*
X189474325Y-80588229D01*
X189474363Y-80588277D01*
X189480200Y-80583522D01*
X189480161Y-80583475D01*
X189485696Y-80578830D01*
X189538385Y-80522983D01*
X190539209Y-79522158D01*
X190885642Y-79175724D01*
X190899271Y-79163947D01*
X190918530Y-79149610D01*
X190952101Y-79109601D01*
X190955761Y-79105606D01*
X190961590Y-79099778D01*
X190967164Y-79092729D01*
X190981940Y-79074040D01*
X191031302Y-79015214D01*
X191031306Y-79015205D01*
X191035274Y-79009175D01*
X191035325Y-79009208D01*
X191039372Y-79002856D01*
X191039320Y-79002824D01*
X191043112Y-78996675D01*
X191075575Y-78927058D01*
X191093116Y-78892128D01*
X191110040Y-78858433D01*
X191110042Y-78858421D01*
X191112509Y-78851646D01*
X191112567Y-78851667D01*
X191115043Y-78844546D01*
X191114986Y-78844528D01*
X191117257Y-78837673D01*
X191132792Y-78762434D01*
X191140479Y-78730000D01*
X191150500Y-78687721D01*
X191150500Y-78687710D01*
X191151338Y-78680548D01*
X191151398Y-78680555D01*
X191152164Y-78673055D01*
X191152105Y-78673050D01*
X191152734Y-78665860D01*
X191150500Y-78589083D01*
X191150500Y-77421364D01*
X192749500Y-77421364D01*
X192764903Y-77558077D01*
X192809232Y-77684761D01*
X192825555Y-77731409D01*
X192923254Y-77886897D01*
X193053103Y-78016746D01*
X193208591Y-78114445D01*
X193314012Y-78151333D01*
X193381922Y-78175096D01*
X193469354Y-78184946D01*
X193518635Y-78190499D01*
X193518636Y-78190500D01*
X193518640Y-78190500D01*
X194291364Y-78190500D01*
X194291364Y-78190499D01*
X194353361Y-78183513D01*
X194428077Y-78175096D01*
X194428080Y-78175095D01*
X194601409Y-78114445D01*
X194756897Y-78016746D01*
X194886746Y-77886897D01*
X194984445Y-77731409D01*
X195045095Y-77558080D01*
X195045095Y-77558079D01*
X195045096Y-77558077D01*
X195054291Y-77476469D01*
X195060500Y-77421360D01*
X195060500Y-74718640D01*
X195050438Y-74629336D01*
X195045096Y-74581922D01*
X195003412Y-74462797D01*
X194984445Y-74408591D01*
X194886746Y-74253103D01*
X194756897Y-74123254D01*
X194601409Y-74025555D01*
X194590495Y-74021736D01*
X194428077Y-73964903D01*
X194291364Y-73949500D01*
X194291360Y-73949500D01*
X193518640Y-73949500D01*
X193518636Y-73949500D01*
X193381922Y-73964903D01*
X193208590Y-74025555D01*
X193053102Y-74123254D01*
X192923254Y-74253102D01*
X192825555Y-74408590D01*
X192764903Y-74581922D01*
X192749500Y-74718635D01*
X192749500Y-77421364D01*
X191150500Y-77421364D01*
X191150500Y-77165629D01*
X191150889Y-77158690D01*
X191155249Y-77120000D01*
X191155040Y-77118148D01*
X191150890Y-77081317D01*
X191150500Y-77074369D01*
X191150500Y-76853705D01*
X191151809Y-76835735D01*
X191153495Y-76824225D01*
X191155289Y-76811977D01*
X191154465Y-76802563D01*
X191150736Y-76759934D01*
X191150500Y-76754528D01*
X191150500Y-76746297D01*
X191150500Y-76746291D01*
X191146693Y-76713724D01*
X191142354Y-76664128D01*
X191139999Y-76637201D01*
X191138539Y-76630129D01*
X191138597Y-76630116D01*
X191136965Y-76622757D01*
X191136906Y-76622772D01*
X191135242Y-76615753D01*
X191135241Y-76615745D01*
X191108974Y-76543576D01*
X191084814Y-76470666D01*
X191084809Y-76470659D01*
X191081760Y-76464118D01*
X191081815Y-76464091D01*
X191078533Y-76457313D01*
X191078480Y-76457340D01*
X191075235Y-76450880D01*
X191033028Y-76386708D01*
X190992710Y-76321342D01*
X190988234Y-76315682D01*
X190988281Y-76315644D01*
X190983519Y-76309799D01*
X190983474Y-76309838D01*
X190978834Y-76304308D01*
X190922964Y-76251596D01*
X188406819Y-73735451D01*
X188373334Y-73674128D01*
X188370500Y-73647770D01*
X188370500Y-73343032D01*
X188370499Y-73343018D01*
X188368777Y-73329937D01*
X188355942Y-73232449D01*
X188298951Y-73094859D01*
X188208291Y-72976709D01*
X188090141Y-72886049D01*
X188090140Y-72886048D01*
X188090138Y-72886047D01*
X187952554Y-72829059D01*
X187952552Y-72829058D01*
X187952551Y-72829058D01*
X187935491Y-72826812D01*
X187841981Y-72814500D01*
X187841974Y-72814500D01*
X186588026Y-72814500D01*
X186588018Y-72814500D01*
X186477449Y-72829058D01*
X186477445Y-72829059D01*
X186339861Y-72886047D01*
X186221709Y-72976709D01*
X186131047Y-73094861D01*
X186074059Y-73232445D01*
X186074058Y-73232449D01*
X186059500Y-73343018D01*
X186059500Y-73712500D01*
X186039815Y-73779539D01*
X185987011Y-73825294D01*
X185935500Y-73836500D01*
X185633914Y-73836500D01*
X185601818Y-73832274D01*
X185598293Y-73831329D01*
X185560448Y-73826346D01*
X185496553Y-73798077D01*
X185488956Y-73791088D01*
X184398229Y-72700361D01*
X184386449Y-72686730D01*
X184375336Y-72671803D01*
X184372112Y-72667472D01*
X184334851Y-72636206D01*
X184332087Y-72633886D01*
X184328112Y-72630244D01*
X184325190Y-72627322D01*
X184322280Y-72624411D01*
X184296540Y-72604059D01*
X184274910Y-72585909D01*
X184237714Y-72554698D01*
X184237713Y-72554697D01*
X184237709Y-72554694D01*
X184231680Y-72550729D01*
X184231712Y-72550680D01*
X184225353Y-72546628D01*
X184225322Y-72546679D01*
X184219180Y-72542891D01*
X184219178Y-72542890D01*
X184219177Y-72542889D01*
X184164163Y-72517235D01*
X184149558Y-72510424D01*
X184109803Y-72490459D01*
X184080933Y-72475960D01*
X184080931Y-72475959D01*
X184080930Y-72475959D01*
X184074145Y-72473489D01*
X184074165Y-72473433D01*
X184067049Y-72470959D01*
X184067031Y-72471015D01*
X184060171Y-72468742D01*
X184032341Y-72462996D01*
X183984934Y-72453207D01*
X183935972Y-72441603D01*
X183910219Y-72435499D01*
X183903047Y-72434661D01*
X183903053Y-72434601D01*
X183895555Y-72433835D01*
X183895550Y-72433895D01*
X183888360Y-72433265D01*
X183811583Y-72435500D01*
X183394499Y-72435500D01*
X183327460Y-72415815D01*
X183281705Y-72363011D01*
X183270499Y-72311500D01*
X183270499Y-72229998D01*
X183270498Y-72229981D01*
X183259999Y-72127203D01*
X183259998Y-72127200D01*
X183244802Y-72081342D01*
X183204814Y-71960666D01*
X183112712Y-71811344D01*
X182988656Y-71687288D01*
X182875830Y-71617697D01*
X182839336Y-71595187D01*
X182839331Y-71595185D01*
X182837804Y-71594679D01*
X182672797Y-71540001D01*
X182672795Y-71540000D01*
X182570010Y-71529500D01*
X181369998Y-71529500D01*
X181369981Y-71529501D01*
X181267203Y-71540000D01*
X181267200Y-71540001D01*
X181100668Y-71595185D01*
X181100663Y-71595187D01*
X180951342Y-71687289D01*
X180827289Y-71811342D01*
X180735187Y-71960663D01*
X180735185Y-71960668D01*
X180731942Y-71970456D01*
X180680001Y-72127203D01*
X180680001Y-72127204D01*
X180680000Y-72127204D01*
X180669500Y-72229983D01*
X180669500Y-72344500D01*
X180649815Y-72411539D01*
X180597011Y-72457294D01*
X180545500Y-72468500D01*
X178034499Y-72468500D01*
X177967460Y-72448815D01*
X177921705Y-72396011D01*
X177910499Y-72344500D01*
X177910499Y-72159998D01*
X177910498Y-72159981D01*
X177899999Y-72057203D01*
X177899998Y-72057200D01*
X177889763Y-72026313D01*
X177844814Y-71890666D01*
X177752712Y-71741344D01*
X177628656Y-71617288D01*
X177503353Y-71540001D01*
X177479336Y-71525187D01*
X177479331Y-71525185D01*
X177477862Y-71524698D01*
X177312797Y-71470001D01*
X177312795Y-71470000D01*
X177210010Y-71459500D01*
X176009998Y-71459500D01*
X176009981Y-71459501D01*
X175907203Y-71470000D01*
X175907200Y-71470001D01*
X175740668Y-71525185D01*
X175740663Y-71525187D01*
X175591342Y-71617289D01*
X175467289Y-71741342D01*
X175375187Y-71890663D01*
X175375185Y-71890668D01*
X175362152Y-71929999D01*
X175320001Y-72057203D01*
X175320001Y-72057204D01*
X175320000Y-72057204D01*
X175309500Y-72159983D01*
X175309500Y-73762402D01*
X175289815Y-73829441D01*
X175273181Y-73850083D01*
X174390084Y-74733181D01*
X174328761Y-74766666D01*
X174302403Y-74769500D01*
X173132130Y-74769500D01*
X173132123Y-74769501D01*
X173072516Y-74775908D01*
X172937671Y-74826202D01*
X172937664Y-74826206D01*
X172822455Y-74912452D01*
X172822452Y-74912455D01*
X172736206Y-75027664D01*
X172736202Y-75027671D01*
X172690033Y-75151459D01*
X172685909Y-75162517D01*
X172679500Y-75222127D01*
X172679500Y-75222134D01*
X172679500Y-75222135D01*
X172679500Y-75517868D01*
X172679501Y-75517872D01*
X172683931Y-75559093D01*
X172683931Y-75585596D01*
X172680000Y-75622165D01*
X172680000Y-75917844D01*
X172686401Y-75977372D01*
X172686403Y-75977379D01*
X172736645Y-76112086D01*
X172736649Y-76112093D01*
X172822809Y-76227187D01*
X172822812Y-76227190D01*
X172937906Y-76313350D01*
X172937913Y-76313354D01*
X173072620Y-76363596D01*
X173072627Y-76363598D01*
X173132155Y-76369999D01*
X173132172Y-76370000D01*
X173507828Y-76370000D01*
X173507844Y-76369999D01*
X173567372Y-76363598D01*
X173567379Y-76363596D01*
X173702086Y-76313354D01*
X173702093Y-76313350D01*
X173817187Y-76227190D01*
X173817190Y-76227187D01*
X173903350Y-76112093D01*
X173903354Y-76112086D01*
X173926076Y-76051167D01*
X173967947Y-75995233D01*
X174033412Y-75970816D01*
X174042258Y-75970500D01*
X174559072Y-75970500D01*
X174567170Y-75971030D01*
X174602500Y-75975682D01*
X174602501Y-75975682D01*
X174654754Y-75968802D01*
X174759262Y-75955044D01*
X174905341Y-75894536D01*
X174921470Y-75882159D01*
X174928474Y-75876786D01*
X175002478Y-75820000D01*
X175030782Y-75798282D01*
X175052483Y-75769999D01*
X175057811Y-75763922D01*
X175098321Y-75723412D01*
X175159642Y-75689929D01*
X175229334Y-75694913D01*
X175285267Y-75736785D01*
X175309684Y-75802249D01*
X175310000Y-75811095D01*
X175310000Y-76610000D01*
X177909999Y-76610000D01*
X177909999Y-75760028D01*
X177909998Y-75760013D01*
X177899505Y-75657302D01*
X177844358Y-75490880D01*
X177844356Y-75490875D01*
X177752315Y-75341654D01*
X177628344Y-75217683D01*
X177628340Y-75217680D01*
X177544280Y-75165831D01*
X177497555Y-75113883D01*
X177486334Y-75044921D01*
X177514177Y-74980839D01*
X177544278Y-74954756D01*
X177628656Y-74902712D01*
X177752712Y-74778656D01*
X177844814Y-74629334D01*
X177899999Y-74462797D01*
X177910500Y-74360009D01*
X177910500Y-74093500D01*
X177930185Y-74026461D01*
X177982989Y-73980706D01*
X178034500Y-73969500D01*
X180545501Y-73969500D01*
X180612540Y-73989185D01*
X180658295Y-74041989D01*
X180669501Y-74093500D01*
X180669501Y-74430018D01*
X180680000Y-74532796D01*
X180680001Y-74532799D01*
X180731393Y-74687888D01*
X180735186Y-74699334D01*
X180825834Y-74846299D01*
X180827289Y-74848657D01*
X180951344Y-74972712D01*
X181035718Y-75024754D01*
X181082443Y-75076702D01*
X181093666Y-75145664D01*
X181065822Y-75209747D01*
X181035720Y-75235831D01*
X180951656Y-75287682D01*
X180827684Y-75411654D01*
X180735643Y-75560875D01*
X180735641Y-75560880D01*
X180680494Y-75727302D01*
X180680493Y-75727309D01*
X180670000Y-75830013D01*
X180670000Y-76680000D01*
X183269999Y-76680000D01*
X183269999Y-76320000D01*
X186060000Y-76320000D01*
X186060000Y-76506938D01*
X186074544Y-76617419D01*
X186074545Y-76617421D01*
X186131484Y-76754885D01*
X186222066Y-76872933D01*
X186340114Y-76963515D01*
X186477578Y-77020454D01*
X186477580Y-77020455D01*
X186588061Y-77035000D01*
X186965000Y-77035000D01*
X186965000Y-76320000D01*
X187465000Y-76320000D01*
X187465000Y-77035000D01*
X187841939Y-77035000D01*
X187952419Y-77020455D01*
X187952421Y-77020454D01*
X188089885Y-76963515D01*
X188207933Y-76872933D01*
X188298515Y-76754885D01*
X188355454Y-76617421D01*
X188355455Y-76617419D01*
X188370000Y-76506938D01*
X188370000Y-76320000D01*
X187465000Y-76320000D01*
X186965000Y-76320000D01*
X186060000Y-76320000D01*
X183269999Y-76320000D01*
X183269999Y-75830028D01*
X183269998Y-75830013D01*
X183259505Y-75727302D01*
X183249464Y-75697001D01*
X184425853Y-75697001D01*
X184438313Y-75791653D01*
X184438316Y-75791665D01*
X184496311Y-75931679D01*
X184496311Y-75931680D01*
X184588577Y-76051922D01*
X184708820Y-76144188D01*
X184848834Y-76202183D01*
X184848839Y-76202185D01*
X184961369Y-76216999D01*
X184973500Y-76216998D01*
X184973500Y-75697000D01*
X184425855Y-75697000D01*
X184425853Y-75697001D01*
X183249464Y-75697001D01*
X183204358Y-75560880D01*
X183204356Y-75560875D01*
X183112315Y-75411654D01*
X182988344Y-75287683D01*
X182988340Y-75287680D01*
X182904280Y-75235831D01*
X182857555Y-75183883D01*
X182846334Y-75114921D01*
X182874177Y-75050839D01*
X182904278Y-75024756D01*
X182988656Y-74972712D01*
X183112712Y-74848656D01*
X183204814Y-74699334D01*
X183259999Y-74532797D01*
X183270500Y-74430009D01*
X183270500Y-74060500D01*
X183290185Y-73993461D01*
X183342989Y-73947706D01*
X183394500Y-73936500D01*
X183460270Y-73936500D01*
X183527309Y-73956185D01*
X183547951Y-73972819D01*
X184397588Y-74822456D01*
X184431073Y-74883779D01*
X184432846Y-74893948D01*
X184437829Y-74931791D01*
X184453738Y-74970200D01*
X184461206Y-75039669D01*
X184453738Y-75065101D01*
X184438316Y-75102334D01*
X184438315Y-75102339D01*
X184425853Y-75196999D01*
X184425854Y-75197000D01*
X184552280Y-75197000D01*
X184619319Y-75216685D01*
X184627766Y-75222624D01*
X184708563Y-75284621D01*
X184708565Y-75284623D01*
X184796935Y-75321226D01*
X184848708Y-75342671D01*
X184961342Y-75357500D01*
X184961349Y-75357500D01*
X185349500Y-75357500D01*
X185416539Y-75377185D01*
X185462294Y-75429989D01*
X185473500Y-75481500D01*
X185473500Y-76216999D01*
X185485631Y-76216999D01*
X185598153Y-76202187D01*
X185598165Y-76202183D01*
X185738179Y-76144188D01*
X185738180Y-76144188D01*
X185858422Y-76051922D01*
X185950687Y-75931681D01*
X185965239Y-75896549D01*
X186009080Y-75842145D01*
X186075374Y-75820079D01*
X186079801Y-75820000D01*
X186965000Y-75820000D01*
X186965000Y-75142728D01*
X186984685Y-75075689D01*
X187001315Y-75055051D01*
X187214818Y-74841547D01*
X187276141Y-74808063D01*
X187345833Y-74813047D01*
X187390180Y-74841548D01*
X187471635Y-74923003D01*
X187505120Y-74984326D01*
X187500136Y-75054018D01*
X187471635Y-75098365D01*
X187465000Y-75105000D01*
X187465000Y-75820000D01*
X188317270Y-75820000D01*
X188384309Y-75839685D01*
X188404951Y-75856319D01*
X189611037Y-77062405D01*
X189644522Y-77123728D01*
X189646576Y-77136198D01*
X189649110Y-77158693D01*
X189649500Y-77165628D01*
X189649500Y-78237770D01*
X189629815Y-78304809D01*
X189613181Y-78325451D01*
X188725451Y-79213181D01*
X188664128Y-79246666D01*
X188637770Y-79249500D01*
X188393588Y-79249500D01*
X188326549Y-79229815D01*
X188280794Y-79177011D01*
X188270850Y-79107853D01*
X188295212Y-79050014D01*
X188295828Y-79049210D01*
X188298951Y-79045141D01*
X188355942Y-78907551D01*
X188370500Y-78796974D01*
X188370500Y-77923026D01*
X188355942Y-77812449D01*
X188303053Y-77684763D01*
X188298952Y-77674861D01*
X188298951Y-77674860D01*
X188298951Y-77674859D01*
X188208291Y-77556709D01*
X188090141Y-77466049D01*
X188090140Y-77466048D01*
X188090138Y-77466047D01*
X187952554Y-77409059D01*
X187952552Y-77409058D01*
X187952551Y-77409058D01*
X187938728Y-77407238D01*
X187841981Y-77394500D01*
X187841974Y-77394500D01*
X186588026Y-77394500D01*
X186588018Y-77394500D01*
X186477449Y-77409058D01*
X186477445Y-77409059D01*
X186339861Y-77466047D01*
X186221707Y-77556710D01*
X186218425Y-77560989D01*
X186161996Y-77602190D01*
X186120051Y-77609500D01*
X185582205Y-77609500D01*
X185564235Y-77608191D01*
X185540472Y-77604710D01*
X185495809Y-77608619D01*
X185488433Y-77609264D01*
X185483032Y-77609500D01*
X185474787Y-77609500D01*
X185448722Y-77612546D01*
X185442205Y-77613308D01*
X185436903Y-77613771D01*
X185365701Y-77620001D01*
X185358634Y-77621461D01*
X185358622Y-77621404D01*
X185351253Y-77623038D01*
X185351267Y-77623095D01*
X185344239Y-77624760D01*
X185272068Y-77651028D01*
X185199165Y-77675186D01*
X185199163Y-77675186D01*
X185199160Y-77675188D01*
X185192623Y-77678236D01*
X185192598Y-77678184D01*
X185185810Y-77681470D01*
X185185836Y-77681521D01*
X185179385Y-77684761D01*
X185115223Y-77726961D01*
X185049846Y-77767285D01*
X185044182Y-77771765D01*
X185044146Y-77771719D01*
X185038292Y-77776488D01*
X185038330Y-77776533D01*
X185032798Y-77781173D01*
X185013344Y-77801794D01*
X184953020Y-77837047D01*
X184939341Y-77839637D01*
X184903706Y-77844329D01*
X184900182Y-77845274D01*
X184868086Y-77849500D01*
X184298395Y-77849500D01*
X184250943Y-77840061D01*
X184133295Y-77791330D01*
X184133293Y-77791329D01*
X184133292Y-77791329D01*
X184105242Y-77787636D01*
X184020665Y-77776500D01*
X184020658Y-77776500D01*
X183496342Y-77776500D01*
X183496334Y-77776500D01*
X183410186Y-77787843D01*
X183341151Y-77777078D01*
X183288895Y-77730698D01*
X183270000Y-77664904D01*
X183270000Y-77180000D01*
X180670001Y-77180000D01*
X180670001Y-78029989D01*
X180676428Y-78092899D01*
X180663658Y-78161592D01*
X180615777Y-78212476D01*
X180553070Y-78229500D01*
X178015952Y-78229500D01*
X177948913Y-78209815D01*
X177903158Y-78157011D01*
X177893214Y-78087853D01*
X177898248Y-78066492D01*
X177899504Y-78062701D01*
X177899506Y-78062690D01*
X177909999Y-77959986D01*
X177910000Y-77959973D01*
X177910000Y-77110000D01*
X175310001Y-77110000D01*
X175310001Y-77959986D01*
X175320493Y-78062695D01*
X175321753Y-78066495D01*
X175321838Y-78068980D01*
X175321911Y-78069319D01*
X175321850Y-78069331D01*
X175324155Y-78136323D01*
X175288424Y-78196366D01*
X175225904Y-78227559D01*
X175204047Y-78229500D01*
X173562229Y-78229500D01*
X173495190Y-78209815D01*
X173474548Y-78193181D01*
X172006819Y-76725451D01*
X171973334Y-76664128D01*
X171970500Y-76637770D01*
X171970500Y-72613705D01*
X171971809Y-72595735D01*
X171974187Y-72579500D01*
X171975289Y-72571977D01*
X171974661Y-72564803D01*
X171970736Y-72519934D01*
X171970500Y-72514528D01*
X171970500Y-72506297D01*
X171970500Y-72506291D01*
X171966693Y-72473724D01*
X171961253Y-72411539D01*
X171959999Y-72397201D01*
X171958539Y-72390129D01*
X171958597Y-72390116D01*
X171956965Y-72382757D01*
X171956906Y-72382772D01*
X171955242Y-72375753D01*
X171955241Y-72375745D01*
X171928974Y-72303576D01*
X171904814Y-72230666D01*
X171904809Y-72230659D01*
X171901760Y-72224118D01*
X171901815Y-72224091D01*
X171898533Y-72217313D01*
X171898480Y-72217340D01*
X171895235Y-72210880D01*
X171891696Y-72205500D01*
X171853028Y-72146708D01*
X171812712Y-72081345D01*
X171812711Y-72081344D01*
X171812710Y-72081342D01*
X171808234Y-72075682D01*
X171808281Y-72075644D01*
X171803519Y-72069799D01*
X171803474Y-72069838D01*
X171798834Y-72064308D01*
X171742964Y-72011596D01*
X169835729Y-70104361D01*
X169823949Y-70090730D01*
X169815588Y-70079500D01*
X169809612Y-70071472D01*
X169809610Y-70071470D01*
X169769587Y-70037886D01*
X169765612Y-70034244D01*
X169762690Y-70031322D01*
X169759780Y-70028411D01*
X169734040Y-70008059D01*
X169675209Y-69958694D01*
X169669180Y-69954729D01*
X169669212Y-69954680D01*
X169662853Y-69950628D01*
X169662822Y-69950679D01*
X169656680Y-69946891D01*
X169656678Y-69946890D01*
X169656677Y-69946889D01*
X169617474Y-69928608D01*
X169587058Y-69914424D01*
X169552894Y-69897267D01*
X169518433Y-69879960D01*
X169518431Y-69879959D01*
X169518430Y-69879959D01*
X169511645Y-69877489D01*
X169511665Y-69877433D01*
X169504549Y-69874959D01*
X169504531Y-69875015D01*
X169497671Y-69872742D01*
X169469841Y-69866996D01*
X169422434Y-69857207D01*
X169373472Y-69845603D01*
X169347719Y-69839499D01*
X169340547Y-69838661D01*
X169340553Y-69838601D01*
X169333055Y-69837835D01*
X169333050Y-69837895D01*
X169325860Y-69837265D01*
X169249083Y-69839500D01*
X167186500Y-69839500D01*
X167119461Y-69819815D01*
X167073706Y-69767011D01*
X167062500Y-69715500D01*
X167062500Y-69182713D01*
X167082185Y-69115674D01*
X167115376Y-69081139D01*
X167152751Y-69054969D01*
X167313969Y-68893751D01*
X167444741Y-68706989D01*
X167469618Y-68653640D01*
X167515790Y-68601200D01*
X167582983Y-68582048D01*
X167649865Y-68602263D01*
X167694382Y-68653640D01*
X167719257Y-68706985D01*
X167719261Y-68706993D01*
X167850027Y-68893746D01*
X167850032Y-68893752D01*
X168011247Y-69054967D01*
X168011253Y-69054972D01*
X168198006Y-69185738D01*
X168198008Y-69185739D01*
X168198011Y-69185741D01*
X168404646Y-69282096D01*
X168624872Y-69341106D01*
X168770115Y-69353813D01*
X168851998Y-69360977D01*
X168852000Y-69360977D01*
X168852002Y-69360977D01*
X168908911Y-69355998D01*
X169079128Y-69341106D01*
X169299354Y-69282096D01*
X169505989Y-69185741D01*
X169692751Y-69054969D01*
X169853969Y-68893751D01*
X169984741Y-68706989D01*
X170009618Y-68653640D01*
X170055790Y-68601200D01*
X170122983Y-68582048D01*
X170189865Y-68602263D01*
X170234382Y-68653640D01*
X170259257Y-68706985D01*
X170259261Y-68706993D01*
X170390027Y-68893746D01*
X170390032Y-68893752D01*
X170551247Y-69054967D01*
X170551253Y-69054972D01*
X170738006Y-69185738D01*
X170738008Y-69185739D01*
X170738011Y-69185741D01*
X170944646Y-69282096D01*
X171164872Y-69341106D01*
X171310115Y-69353813D01*
X171391998Y-69360977D01*
X171392000Y-69360977D01*
X171392002Y-69360977D01*
X171448911Y-69355998D01*
X171619128Y-69341106D01*
X171839354Y-69282096D01*
X172045989Y-69185741D01*
X172232751Y-69054969D01*
X172393969Y-68893751D01*
X172524741Y-68706989D01*
X172549618Y-68653640D01*
X172595790Y-68601200D01*
X172662983Y-68582048D01*
X172729865Y-68602263D01*
X172774382Y-68653640D01*
X172799257Y-68706985D01*
X172799261Y-68706993D01*
X172930027Y-68893746D01*
X172930032Y-68893752D01*
X173091247Y-69054967D01*
X173091253Y-69054972D01*
X173278006Y-69185738D01*
X173278008Y-69185739D01*
X173278011Y-69185741D01*
X173484646Y-69282096D01*
X173704872Y-69341106D01*
X173850115Y-69353813D01*
X173931998Y-69360977D01*
X173932000Y-69360977D01*
X173932002Y-69360977D01*
X173988911Y-69355998D01*
X174159128Y-69341106D01*
X174379354Y-69282096D01*
X174585989Y-69185741D01*
X174772751Y-69054969D01*
X174933969Y-68893751D01*
X175064741Y-68706989D01*
X175089618Y-68653640D01*
X175135790Y-68601200D01*
X175202983Y-68582048D01*
X175269865Y-68602263D01*
X175314382Y-68653640D01*
X175339257Y-68706985D01*
X175339261Y-68706993D01*
X175470027Y-68893746D01*
X175470032Y-68893752D01*
X175631247Y-69054967D01*
X175631253Y-69054972D01*
X175818006Y-69185738D01*
X175818008Y-69185739D01*
X175818011Y-69185741D01*
X176024646Y-69282096D01*
X176244872Y-69341106D01*
X176390115Y-69353813D01*
X176471998Y-69360977D01*
X176472000Y-69360977D01*
X176472002Y-69360977D01*
X176528911Y-69355998D01*
X176699128Y-69341106D01*
X176919354Y-69282096D01*
X177125989Y-69185741D01*
X177312751Y-69054969D01*
X177473969Y-68893751D01*
X177604741Y-68706989D01*
X177629618Y-68653640D01*
X177675790Y-68601200D01*
X177742983Y-68582048D01*
X177809865Y-68602263D01*
X177854382Y-68653640D01*
X177879257Y-68706985D01*
X177879261Y-68706993D01*
X178010027Y-68893746D01*
X178010032Y-68893752D01*
X178171247Y-69054967D01*
X178171253Y-69054972D01*
X178358006Y-69185738D01*
X178358008Y-69185739D01*
X178358011Y-69185741D01*
X178564646Y-69282096D01*
X178784872Y-69341106D01*
X178930115Y-69353813D01*
X179011998Y-69360977D01*
X179012000Y-69360977D01*
X179012002Y-69360977D01*
X179068911Y-69355998D01*
X179239128Y-69341106D01*
X179459354Y-69282096D01*
X179665989Y-69185741D01*
X179852751Y-69054969D01*
X180013969Y-68893751D01*
X180144741Y-68706989D01*
X180169618Y-68653640D01*
X180215790Y-68601200D01*
X180282983Y-68582048D01*
X180349865Y-68602263D01*
X180394382Y-68653640D01*
X180419257Y-68706985D01*
X180419261Y-68706993D01*
X180550027Y-68893746D01*
X180550032Y-68893752D01*
X180711247Y-69054967D01*
X180711253Y-69054972D01*
X180898006Y-69185738D01*
X180898008Y-69185739D01*
X180898011Y-69185741D01*
X181104646Y-69282096D01*
X181324872Y-69341106D01*
X181470115Y-69353813D01*
X181551998Y-69360977D01*
X181552000Y-69360977D01*
X181552002Y-69360977D01*
X181608911Y-69355998D01*
X181779128Y-69341106D01*
X181999354Y-69282096D01*
X182205989Y-69185741D01*
X182392751Y-69054969D01*
X182553969Y-68893751D01*
X182684741Y-68706989D01*
X182709618Y-68653640D01*
X182755790Y-68601200D01*
X182822983Y-68582048D01*
X182889865Y-68602263D01*
X182934382Y-68653640D01*
X182959257Y-68706985D01*
X182959261Y-68706993D01*
X183090027Y-68893746D01*
X183090032Y-68893752D01*
X183251247Y-69054967D01*
X183251253Y-69054972D01*
X183438006Y-69185738D01*
X183438008Y-69185739D01*
X183438011Y-69185741D01*
X183644646Y-69282096D01*
X183864872Y-69341106D01*
X184010115Y-69353813D01*
X184091998Y-69360977D01*
X184092000Y-69360977D01*
X184092002Y-69360977D01*
X184148911Y-69355998D01*
X184319128Y-69341106D01*
X184539354Y-69282096D01*
X184745989Y-69185741D01*
X184932751Y-69054969D01*
X185093969Y-68893751D01*
X185224741Y-68706989D01*
X185249618Y-68653640D01*
X185295790Y-68601200D01*
X185362983Y-68582048D01*
X185429865Y-68602263D01*
X185474382Y-68653640D01*
X185499257Y-68706985D01*
X185499261Y-68706993D01*
X185616721Y-68874743D01*
X185630031Y-68893751D01*
X185791249Y-69054969D01*
X185978011Y-69185741D01*
X185978013Y-69185742D01*
X185979820Y-69187007D01*
X186023445Y-69241584D01*
X186031636Y-69272395D01*
X186034377Y-69293214D01*
X186046955Y-69388760D01*
X186046956Y-69388762D01*
X186107464Y-69534841D01*
X186203718Y-69660282D01*
X186231995Y-69681980D01*
X186238085Y-69687320D01*
X187079765Y-70529000D01*
X187916004Y-71365239D01*
X187949489Y-71426562D01*
X187951542Y-71439031D01*
X187953687Y-71458059D01*
X187957866Y-71470001D01*
X188009544Y-71617692D01*
X188009547Y-71617697D01*
X188099518Y-71760884D01*
X188099523Y-71760890D01*
X188219109Y-71880476D01*
X188219115Y-71880481D01*
X188362302Y-71970452D01*
X188362305Y-71970454D01*
X188362309Y-71970455D01*
X188362310Y-71970456D01*
X188432182Y-71994905D01*
X188521943Y-72026314D01*
X188689997Y-72045249D01*
X188690000Y-72045249D01*
X188690003Y-72045249D01*
X188858056Y-72026314D01*
X188900115Y-72011597D01*
X189017690Y-71970456D01*
X189017692Y-71970454D01*
X189017694Y-71970454D01*
X189017697Y-71970452D01*
X189160884Y-71880481D01*
X189160885Y-71880480D01*
X189160890Y-71880477D01*
X189280477Y-71760890D01*
X189321678Y-71695320D01*
X189370452Y-71617697D01*
X189370454Y-71617694D01*
X189370454Y-71617692D01*
X189370456Y-71617690D01*
X189426313Y-71458059D01*
X189426313Y-71458058D01*
X189426314Y-71458056D01*
X189445249Y-71290002D01*
X189445249Y-71289997D01*
X189426314Y-71121943D01*
X189390817Y-71020499D01*
X189370456Y-70962310D01*
X189370455Y-70962309D01*
X189370454Y-70962305D01*
X189370452Y-70962302D01*
X189280481Y-70819115D01*
X189280476Y-70819109D01*
X189160890Y-70699523D01*
X189160884Y-70699518D01*
X189017697Y-70609547D01*
X189017692Y-70609544D01*
X188898603Y-70567874D01*
X188858059Y-70553687D01*
X188839031Y-70551542D01*
X188774619Y-70524474D01*
X188765239Y-70516004D01*
X187476158Y-69226923D01*
X187442673Y-69165600D01*
X187447657Y-69095908D01*
X187476154Y-69051565D01*
X187633969Y-68893751D01*
X187764741Y-68706989D01*
X187789618Y-68653640D01*
X187835790Y-68601200D01*
X187902983Y-68582048D01*
X187969865Y-68602263D01*
X188014382Y-68653640D01*
X188039257Y-68706985D01*
X188039261Y-68706993D01*
X188170027Y-68893746D01*
X188170032Y-68893752D01*
X188331247Y-69054967D01*
X188331253Y-69054972D01*
X188518006Y-69185738D01*
X188518008Y-69185739D01*
X188518011Y-69185741D01*
X188724646Y-69282096D01*
X188944872Y-69341106D01*
X189090115Y-69353813D01*
X189171998Y-69360977D01*
X189172000Y-69360977D01*
X189172002Y-69360977D01*
X189228911Y-69355998D01*
X189399128Y-69341106D01*
X189619354Y-69282096D01*
X189825989Y-69185741D01*
X190012751Y-69054969D01*
X190173969Y-68893751D01*
X190304741Y-68706989D01*
X190329618Y-68653640D01*
X190375790Y-68601200D01*
X190442983Y-68582048D01*
X190509865Y-68602263D01*
X190554382Y-68653640D01*
X190579257Y-68706985D01*
X190579261Y-68706993D01*
X190710027Y-68893746D01*
X190710032Y-68893752D01*
X190871247Y-69054967D01*
X190871253Y-69054972D01*
X191058006Y-69185738D01*
X191058008Y-69185739D01*
X191058011Y-69185741D01*
X191264646Y-69282096D01*
X191484872Y-69341106D01*
X191630115Y-69353813D01*
X191711998Y-69360977D01*
X191712000Y-69360977D01*
X191712002Y-69360977D01*
X191768911Y-69355998D01*
X191939128Y-69341106D01*
X192159354Y-69282096D01*
X192365989Y-69185741D01*
X192552751Y-69054969D01*
X192713969Y-68893751D01*
X192727279Y-68874742D01*
X192781854Y-68831118D01*
X192851352Y-68823923D01*
X192913707Y-68855444D01*
X192949122Y-68915674D01*
X192952144Y-68932611D01*
X192955409Y-68962983D01*
X193005702Y-69097828D01*
X193005706Y-69097835D01*
X193091952Y-69213044D01*
X193091955Y-69213047D01*
X193207164Y-69299293D01*
X193207171Y-69299297D01*
X193342017Y-69349591D01*
X193342016Y-69349591D01*
X193348944Y-69350335D01*
X193401627Y-69356000D01*
X195102372Y-69355999D01*
X195161983Y-69349591D01*
X195296831Y-69299296D01*
X195412046Y-69213046D01*
X195498296Y-69097831D01*
X195548591Y-68962983D01*
X195555000Y-68903373D01*
X195554999Y-67202628D01*
X195548591Y-67143017D01*
X195514282Y-67051031D01*
X195498297Y-67008171D01*
X195498293Y-67008164D01*
X195412047Y-66892955D01*
X195412044Y-66892952D01*
X195296835Y-66806706D01*
X195296828Y-66806702D01*
X195161982Y-66756408D01*
X195161983Y-66756408D01*
X195102383Y-66750001D01*
X195102381Y-66750000D01*
X195102373Y-66750000D01*
X195102364Y-66750000D01*
X193401629Y-66750000D01*
X193401623Y-66750001D01*
X193342016Y-66756408D01*
X193207171Y-66806702D01*
X193207164Y-66806706D01*
X193091955Y-66892952D01*
X193091952Y-66892955D01*
X193005706Y-67008164D01*
X193005702Y-67008171D01*
X192955408Y-67143016D01*
X192952143Y-67173390D01*
X192925405Y-67237941D01*
X192868012Y-67277789D01*
X192798187Y-67280282D01*
X192738098Y-67244629D01*
X192727279Y-67231258D01*
X192717204Y-67216869D01*
X192713969Y-67212249D01*
X192552751Y-67051031D01*
X192552747Y-67051028D01*
X192552746Y-67051027D01*
X192365993Y-66920261D01*
X192365989Y-66920259D01*
X192307433Y-66892954D01*
X192159354Y-66823904D01*
X192159351Y-66823903D01*
X192159349Y-66823902D01*
X191939129Y-66764894D01*
X191939122Y-66764893D01*
X191712002Y-66745023D01*
X191711998Y-66745023D01*
X191484877Y-66764893D01*
X191484870Y-66764894D01*
X191264642Y-66823905D01*
X191058013Y-66920258D01*
X191058011Y-66920259D01*
X190871246Y-67051032D01*
X190710032Y-67212246D01*
X190579259Y-67399011D01*
X190579258Y-67399013D01*
X190554382Y-67452361D01*
X190508209Y-67504800D01*
X190441016Y-67523952D01*
X190374135Y-67503736D01*
X190329618Y-67452361D01*
X190304741Y-67399013D01*
X190304740Y-67399011D01*
X190290179Y-67378216D01*
X190187279Y-67231258D01*
X190173970Y-67212250D01*
X190104736Y-67143016D01*
X190012751Y-67051031D01*
X190012747Y-67051028D01*
X190012746Y-67051027D01*
X189825993Y-66920261D01*
X189825989Y-66920259D01*
X189767433Y-66892954D01*
X189619354Y-66823904D01*
X189619351Y-66823903D01*
X189619349Y-66823902D01*
X189399129Y-66764894D01*
X189399122Y-66764893D01*
X189172002Y-66745023D01*
X189171998Y-66745023D01*
X188944877Y-66764893D01*
X188944870Y-66764894D01*
X188724642Y-66823905D01*
X188518013Y-66920258D01*
X188518011Y-66920259D01*
X188331246Y-67051032D01*
X188170032Y-67212246D01*
X188039259Y-67399011D01*
X188039258Y-67399013D01*
X188014382Y-67452361D01*
X187968209Y-67504800D01*
X187901016Y-67523952D01*
X187834135Y-67503736D01*
X187789618Y-67452361D01*
X187764741Y-67399013D01*
X187764740Y-67399011D01*
X187750179Y-67378216D01*
X187647279Y-67231258D01*
X187633970Y-67212250D01*
X187564736Y-67143016D01*
X187472751Y-67051031D01*
X187472747Y-67051028D01*
X187472746Y-67051027D01*
X187285993Y-66920261D01*
X187285989Y-66920259D01*
X187227433Y-66892954D01*
X187079354Y-66823904D01*
X187079351Y-66823903D01*
X187079349Y-66823902D01*
X186859129Y-66764894D01*
X186859122Y-66764893D01*
X186632002Y-66745023D01*
X186631998Y-66745023D01*
X186404877Y-66764893D01*
X186404870Y-66764894D01*
X186184642Y-66823905D01*
X185978013Y-66920258D01*
X185978011Y-66920259D01*
X185791246Y-67051032D01*
X185630032Y-67212246D01*
X185499259Y-67399011D01*
X185499258Y-67399013D01*
X185474382Y-67452361D01*
X185428209Y-67504800D01*
X185361016Y-67523952D01*
X185294135Y-67503736D01*
X185249618Y-67452361D01*
X185224741Y-67399013D01*
X185224740Y-67399011D01*
X185210179Y-67378216D01*
X185107279Y-67231258D01*
X185093970Y-67212250D01*
X185024736Y-67143016D01*
X184932751Y-67051031D01*
X184932747Y-67051028D01*
X184932746Y-67051027D01*
X184745993Y-66920261D01*
X184745989Y-66920259D01*
X184687433Y-66892954D01*
X184539354Y-66823904D01*
X184539351Y-66823903D01*
X184539349Y-66823902D01*
X184319129Y-66764894D01*
X184319122Y-66764893D01*
X184092002Y-66745023D01*
X184091998Y-66745023D01*
X183864877Y-66764893D01*
X183864870Y-66764894D01*
X183644642Y-66823905D01*
X183438013Y-66920258D01*
X183438011Y-66920259D01*
X183251246Y-67051032D01*
X183090032Y-67212246D01*
X182959259Y-67399011D01*
X182959258Y-67399013D01*
X182934382Y-67452361D01*
X182888209Y-67504800D01*
X182821016Y-67523952D01*
X182754135Y-67503736D01*
X182709618Y-67452361D01*
X182684741Y-67399013D01*
X182684740Y-67399011D01*
X182670179Y-67378216D01*
X182567279Y-67231258D01*
X182553970Y-67212250D01*
X182484736Y-67143016D01*
X182392751Y-67051031D01*
X182392747Y-67051028D01*
X182392746Y-67051027D01*
X182205993Y-66920261D01*
X182205989Y-66920259D01*
X182147433Y-66892954D01*
X181999354Y-66823904D01*
X181999351Y-66823903D01*
X181999349Y-66823902D01*
X181779129Y-66764894D01*
X181779122Y-66764893D01*
X181552002Y-66745023D01*
X181551998Y-66745023D01*
X181324877Y-66764893D01*
X181324870Y-66764894D01*
X181104642Y-66823905D01*
X180898013Y-66920258D01*
X180898011Y-66920259D01*
X180711246Y-67051032D01*
X180550032Y-67212246D01*
X180419259Y-67399011D01*
X180419258Y-67399013D01*
X180394382Y-67452361D01*
X180348209Y-67504800D01*
X180281016Y-67523952D01*
X180214135Y-67503736D01*
X180169618Y-67452361D01*
X180144741Y-67399013D01*
X180144740Y-67399011D01*
X180130179Y-67378216D01*
X180027279Y-67231258D01*
X180013970Y-67212250D01*
X179944736Y-67143016D01*
X179852751Y-67051031D01*
X179852747Y-67051028D01*
X179852746Y-67051027D01*
X179665993Y-66920261D01*
X179665989Y-66920259D01*
X179607433Y-66892954D01*
X179459354Y-66823904D01*
X179459351Y-66823903D01*
X179459349Y-66823902D01*
X179239129Y-66764894D01*
X179239122Y-66764893D01*
X179012002Y-66745023D01*
X179011998Y-66745023D01*
X178784877Y-66764893D01*
X178784870Y-66764894D01*
X178564642Y-66823905D01*
X178358013Y-66920258D01*
X178358011Y-66920259D01*
X178171246Y-67051032D01*
X178010032Y-67212246D01*
X177879259Y-67399011D01*
X177879258Y-67399013D01*
X177854382Y-67452361D01*
X177808209Y-67504800D01*
X177741016Y-67523952D01*
X177674135Y-67503736D01*
X177629618Y-67452361D01*
X177604741Y-67399013D01*
X177604740Y-67399011D01*
X177590179Y-67378216D01*
X177487279Y-67231258D01*
X177473970Y-67212250D01*
X177404736Y-67143016D01*
X177312751Y-67051031D01*
X177312747Y-67051028D01*
X177312746Y-67051027D01*
X177125993Y-66920261D01*
X177125989Y-66920259D01*
X177067433Y-66892954D01*
X176919354Y-66823904D01*
X176919351Y-66823903D01*
X176919349Y-66823902D01*
X176699129Y-66764894D01*
X176699122Y-66764893D01*
X176472002Y-66745023D01*
X176471998Y-66745023D01*
X176244877Y-66764893D01*
X176244870Y-66764894D01*
X176024642Y-66823905D01*
X175818013Y-66920258D01*
X175818011Y-66920259D01*
X175631246Y-67051032D01*
X175470032Y-67212246D01*
X175339259Y-67399011D01*
X175339258Y-67399013D01*
X175314382Y-67452361D01*
X175268209Y-67504800D01*
X175201016Y-67523952D01*
X175134135Y-67503736D01*
X175089618Y-67452361D01*
X175064741Y-67399013D01*
X175064740Y-67399011D01*
X175050179Y-67378216D01*
X174947279Y-67231258D01*
X174933970Y-67212250D01*
X174864736Y-67143016D01*
X174772751Y-67051031D01*
X174772747Y-67051028D01*
X174772746Y-67051027D01*
X174585993Y-66920261D01*
X174585989Y-66920259D01*
X174527433Y-66892954D01*
X174379354Y-66823904D01*
X174379351Y-66823903D01*
X174379349Y-66823902D01*
X174159129Y-66764894D01*
X174159122Y-66764893D01*
X173932002Y-66745023D01*
X173931998Y-66745023D01*
X173704877Y-66764893D01*
X173704870Y-66764894D01*
X173484642Y-66823905D01*
X173278013Y-66920258D01*
X173278011Y-66920259D01*
X173091246Y-67051032D01*
X172930032Y-67212246D01*
X172799259Y-67399011D01*
X172799258Y-67399013D01*
X172774382Y-67452361D01*
X172728209Y-67504800D01*
X172661016Y-67523952D01*
X172594135Y-67503736D01*
X172549618Y-67452361D01*
X172524741Y-67399013D01*
X172524740Y-67399011D01*
X172510179Y-67378216D01*
X172407279Y-67231258D01*
X172393970Y-67212250D01*
X172324736Y-67143016D01*
X172232751Y-67051031D01*
X172232747Y-67051028D01*
X172232746Y-67051027D01*
X172045993Y-66920261D01*
X172045989Y-66920259D01*
X171987433Y-66892954D01*
X171839354Y-66823904D01*
X171839351Y-66823903D01*
X171839349Y-66823902D01*
X171619129Y-66764894D01*
X171619122Y-66764893D01*
X171392002Y-66745023D01*
X171391998Y-66745023D01*
X171164877Y-66764893D01*
X171164870Y-66764894D01*
X170944642Y-66823905D01*
X170738013Y-66920258D01*
X170738011Y-66920259D01*
X170551246Y-67051032D01*
X170390032Y-67212246D01*
X170259259Y-67399011D01*
X170259258Y-67399013D01*
X170234382Y-67452361D01*
X170188209Y-67504800D01*
X170121016Y-67523952D01*
X170054135Y-67503736D01*
X170009618Y-67452361D01*
X169984741Y-67399013D01*
X169984740Y-67399011D01*
X169970179Y-67378216D01*
X169867279Y-67231258D01*
X169853970Y-67212250D01*
X169784736Y-67143016D01*
X169692751Y-67051031D01*
X169692747Y-67051028D01*
X169692746Y-67051027D01*
X169505993Y-66920261D01*
X169505989Y-66920259D01*
X169447433Y-66892954D01*
X169299354Y-66823904D01*
X169299351Y-66823903D01*
X169299349Y-66823902D01*
X169079129Y-66764894D01*
X169079122Y-66764893D01*
X168852002Y-66745023D01*
X168851998Y-66745023D01*
X168624877Y-66764893D01*
X168624870Y-66764894D01*
X168404642Y-66823905D01*
X168198013Y-66920258D01*
X168198011Y-66920259D01*
X168011246Y-67051032D01*
X167850032Y-67212246D01*
X167719259Y-67399011D01*
X167719258Y-67399013D01*
X167694382Y-67452361D01*
X167648209Y-67504800D01*
X167581016Y-67523952D01*
X167514135Y-67503736D01*
X167469618Y-67452361D01*
X167444741Y-67399013D01*
X167444740Y-67399011D01*
X167430179Y-67378216D01*
X167327279Y-67231258D01*
X167313970Y-67212250D01*
X167244736Y-67143016D01*
X167152751Y-67051031D01*
X167152747Y-67051028D01*
X167152746Y-67051027D01*
X166965993Y-66920261D01*
X166965989Y-66920259D01*
X166907433Y-66892954D01*
X166759354Y-66823904D01*
X166759351Y-66823903D01*
X166759349Y-66823902D01*
X166539129Y-66764894D01*
X166539122Y-66764893D01*
X166312002Y-66745023D01*
X166311998Y-66745023D01*
X166084877Y-66764893D01*
X166084870Y-66764894D01*
X165864642Y-66823905D01*
X165658013Y-66920258D01*
X165658011Y-66920259D01*
X165471246Y-67051032D01*
X165310032Y-67212246D01*
X165179259Y-67399011D01*
X165179258Y-67399013D01*
X165154382Y-67452361D01*
X165108209Y-67504800D01*
X165041016Y-67523952D01*
X164974135Y-67503736D01*
X164929618Y-67452361D01*
X164904741Y-67399013D01*
X164904740Y-67399011D01*
X164890179Y-67378216D01*
X164787279Y-67231258D01*
X164773970Y-67212250D01*
X164704736Y-67143016D01*
X164612751Y-67051031D01*
X164612747Y-67051028D01*
X164612746Y-67051027D01*
X164425993Y-66920261D01*
X164425989Y-66920259D01*
X164367433Y-66892954D01*
X164219354Y-66823904D01*
X164219351Y-66823903D01*
X164219349Y-66823902D01*
X163999129Y-66764894D01*
X163999122Y-66764893D01*
X163772002Y-66745023D01*
X163771998Y-66745023D01*
X163620581Y-66758270D01*
X163544872Y-66764894D01*
X163544869Y-66764894D01*
X163447026Y-66791111D01*
X163377176Y-66789448D01*
X163327252Y-66759017D01*
X163082123Y-66513888D01*
X162724820Y-66156585D01*
X162719479Y-66150494D01*
X162697782Y-66122218D01*
X162572341Y-66025964D01*
X162426262Y-65965456D01*
X162426260Y-65965455D01*
X162308861Y-65950000D01*
X162269500Y-65944818D01*
X162234170Y-65949469D01*
X162226072Y-65950000D01*
X141942934Y-65950000D01*
X141934834Y-65949469D01*
X141899500Y-65944817D01*
X141899499Y-65944817D01*
X141742738Y-65965455D01*
X141596657Y-66025964D01*
X141471219Y-66122216D01*
X141449519Y-66150494D01*
X141444168Y-66156596D01*
X140023489Y-67577274D01*
X139962166Y-67610759D01*
X139949700Y-67612812D01*
X139941945Y-67613686D01*
X139941943Y-67613686D01*
X139782307Y-67669544D01*
X139782302Y-67669547D01*
X139639115Y-67759518D01*
X139639109Y-67759523D01*
X139519523Y-67879109D01*
X139519518Y-67879115D01*
X139429547Y-68022302D01*
X139429545Y-68022305D01*
X139373685Y-68181943D01*
X139354751Y-68349997D01*
X139354751Y-68350002D01*
X139373685Y-68518056D01*
X139429545Y-68677694D01*
X139429547Y-68677697D01*
X139519518Y-68820884D01*
X139519523Y-68820890D01*
X139639109Y-68940476D01*
X139639115Y-68940481D01*
X139782302Y-69030452D01*
X139782305Y-69030454D01*
X139782309Y-69030455D01*
X139782310Y-69030456D01*
X139788109Y-69032485D01*
X139941943Y-69086314D01*
X140109997Y-69105249D01*
X140110000Y-69105249D01*
X140110003Y-69105249D01*
X140278056Y-69086314D01*
X140307066Y-69076163D01*
X140437690Y-69030456D01*
X140437692Y-69030454D01*
X140437694Y-69030454D01*
X140437697Y-69030452D01*
X140580884Y-68940481D01*
X140580885Y-68940480D01*
X140580890Y-68940477D01*
X140700477Y-68820890D01*
X140717866Y-68793216D01*
X140790452Y-68677697D01*
X140790455Y-68677691D01*
X140790456Y-68677690D01*
X140846313Y-68518059D01*
X140849726Y-68487765D01*
X140876791Y-68423354D01*
X140885255Y-68413978D01*
X141187233Y-68112000D01*
X142351001Y-68112000D01*
X142351001Y-68124131D01*
X142365812Y-68236653D01*
X142365816Y-68236665D01*
X142423811Y-68376679D01*
X142423811Y-68376680D01*
X142516077Y-68496922D01*
X142636320Y-68589188D01*
X142776334Y-68647183D01*
X142776339Y-68647184D01*
X142870999Y-68659646D01*
X142871000Y-68659646D01*
X142871000Y-68112000D01*
X142351001Y-68112000D01*
X141187233Y-68112000D01*
X142111916Y-67187319D01*
X142173239Y-67153834D01*
X142199597Y-67151000D01*
X142323006Y-67151000D01*
X142390045Y-67170685D01*
X142435800Y-67223489D01*
X142445744Y-67292647D01*
X142426107Y-67339260D01*
X142427876Y-67340281D01*
X142423811Y-67347320D01*
X142365816Y-67487334D01*
X142365814Y-67487339D01*
X142351000Y-67599870D01*
X142351000Y-67612000D01*
X143086500Y-67612000D01*
X143153539Y-67631685D01*
X143199294Y-67684489D01*
X143210500Y-67736000D01*
X143210500Y-68124165D01*
X143221802Y-68210000D01*
X143225312Y-68236665D01*
X143225329Y-68236790D01*
X143225330Y-68236795D01*
X143283376Y-68376934D01*
X143283378Y-68376937D01*
X143297381Y-68395185D01*
X143342271Y-68453687D01*
X143345375Y-68457731D01*
X143370570Y-68522900D01*
X143371000Y-68533218D01*
X143371000Y-68659645D01*
X143371001Y-68659646D01*
X143465653Y-68647186D01*
X143473399Y-68645111D01*
X143543249Y-68646770D01*
X143601114Y-68685928D01*
X143628622Y-68750155D01*
X143629500Y-68764884D01*
X143629500Y-69181043D01*
X143609815Y-69248082D01*
X143557011Y-69293837D01*
X143552953Y-69295604D01*
X143415020Y-69352737D01*
X143294905Y-69444905D01*
X143202736Y-69565021D01*
X143144801Y-69704891D01*
X143144800Y-69704895D01*
X143130000Y-69817302D01*
X143130000Y-70405000D01*
X143505500Y-70405000D01*
X143572539Y-70424685D01*
X143618294Y-70477489D01*
X143629500Y-70529000D01*
X143629500Y-70581000D01*
X143609815Y-70648039D01*
X143557011Y-70693794D01*
X143505500Y-70705000D01*
X143129999Y-70705000D01*
X143124797Y-70710202D01*
X143063474Y-70743687D01*
X142993782Y-70738701D01*
X142949436Y-70710201D01*
X142524944Y-70285709D01*
X142095320Y-69856085D01*
X142089980Y-69849995D01*
X142068282Y-69821718D01*
X141942841Y-69725464D01*
X141893173Y-69704891D01*
X141796762Y-69664956D01*
X141796760Y-69664955D01*
X141640001Y-69644318D01*
X141640000Y-69644318D01*
X141604670Y-69648969D01*
X141596572Y-69649500D01*
X141073600Y-69649500D01*
X141006561Y-69629815D01*
X140998114Y-69623876D01*
X140904936Y-69552378D01*
X140904934Y-69552376D01*
X140764795Y-69494330D01*
X140764793Y-69494329D01*
X140764792Y-69494329D01*
X140739762Y-69491033D01*
X140652165Y-69479500D01*
X140652158Y-69479500D01*
X140127842Y-69479500D01*
X140127834Y-69479500D01*
X140027722Y-69492681D01*
X140015208Y-69494329D01*
X140015207Y-69494329D01*
X140015204Y-69494330D01*
X139875065Y-69552376D01*
X139875062Y-69552378D01*
X139754721Y-69644721D01*
X139662378Y-69765062D01*
X139662376Y-69765065D01*
X139604330Y-69905204D01*
X139604329Y-69905209D01*
X139589500Y-70017834D01*
X139589500Y-70205780D01*
X139569815Y-70272819D01*
X139517011Y-70318574D01*
X139447853Y-70328518D01*
X139418048Y-70320341D01*
X139356765Y-70294957D01*
X139356763Y-70294956D01*
X139356762Y-70294956D01*
X139322915Y-70290500D01*
X139286524Y-70285709D01*
X139200001Y-70274318D01*
X139200000Y-70274318D01*
X139164670Y-70278969D01*
X139156572Y-70279500D01*
X137921420Y-70279500D01*
X137854381Y-70259815D01*
X137841750Y-70249636D01*
X137841726Y-70249668D01*
X137714937Y-70152378D01*
X137714934Y-70152376D01*
X137574795Y-70094330D01*
X137574793Y-70094329D01*
X137574792Y-70094329D01*
X137549762Y-70091033D01*
X137462165Y-70079500D01*
X137462158Y-70079500D01*
X136997842Y-70079500D01*
X136997834Y-70079500D01*
X136885204Y-70094329D01*
X136847450Y-70109967D01*
X136777980Y-70117434D01*
X136752550Y-70109967D01*
X136714794Y-70094329D01*
X136714796Y-70094329D01*
X136602165Y-70079500D01*
X136602158Y-70079500D01*
X136137842Y-70079500D01*
X136137834Y-70079500D01*
X136037722Y-70092681D01*
X136025208Y-70094329D01*
X136025207Y-70094329D01*
X136025204Y-70094330D01*
X135885065Y-70152376D01*
X135885062Y-70152378D01*
X135764721Y-70244721D01*
X135672378Y-70365062D01*
X135672376Y-70365065D01*
X135614330Y-70505204D01*
X135614329Y-70505209D01*
X135599500Y-70617834D01*
X135599500Y-70749902D01*
X135579815Y-70816941D01*
X135563181Y-70837583D01*
X135276096Y-71124668D01*
X135269994Y-71130019D01*
X135241717Y-71151718D01*
X135185521Y-71224956D01*
X135145462Y-71277161D01*
X135139061Y-71292616D01*
X135095219Y-71347020D01*
X135028925Y-71369084D01*
X134961226Y-71351804D01*
X134913616Y-71300667D01*
X134900500Y-71245163D01*
X134900500Y-66601569D01*
X134920185Y-66534530D01*
X134936819Y-66513888D01*
X135863888Y-65586819D01*
X135925211Y-65553334D01*
X135951569Y-65550500D01*
X194998430Y-65550500D01*
X195065469Y-65570185D01*
G37*
%TD.AperFunction*%
%TA.AperFunction,Conductor*%
G36*
X148054763Y-83165686D02*
G01*
X148054764Y-83165687D01*
X148167280Y-83180500D01*
X148167287Y-83180500D01*
X148366500Y-83180500D01*
X148433539Y-83200185D01*
X148479294Y-83252989D01*
X148490500Y-83304500D01*
X148490500Y-83920870D01*
X148490501Y-83920876D01*
X148496909Y-83980484D01*
X148498471Y-83984673D01*
X148503452Y-84054365D01*
X148498471Y-84071327D01*
X148496909Y-84075513D01*
X148496908Y-84075517D01*
X148490501Y-84135116D01*
X148490500Y-84135135D01*
X148490500Y-84362901D01*
X148470815Y-84429940D01*
X148454182Y-84450582D01*
X148371584Y-84533181D01*
X148310261Y-84566666D01*
X148283902Y-84569500D01*
X147470663Y-84569500D01*
X147404691Y-84550494D01*
X147403610Y-84549815D01*
X147324138Y-84499879D01*
X147307692Y-84489545D01*
X147307691Y-84489544D01*
X147307690Y-84489544D01*
X147248930Y-84468983D01*
X147148056Y-84433685D01*
X146980003Y-84414751D01*
X146979997Y-84414751D01*
X146811943Y-84433685D01*
X146652307Y-84489545D01*
X146582862Y-84533181D01*
X146556390Y-84549815D01*
X146555309Y-84550494D01*
X146489337Y-84569500D01*
X145931671Y-84569500D01*
X145864632Y-84549815D01*
X145818877Y-84497011D01*
X145808732Y-84429315D01*
X145821000Y-84336129D01*
X145821000Y-84324000D01*
X145085500Y-84324000D01*
X145018461Y-84304315D01*
X144972706Y-84251511D01*
X144961500Y-84200000D01*
X144961500Y-83948000D01*
X144981185Y-83880961D01*
X145033989Y-83835206D01*
X145085500Y-83824000D01*
X145820999Y-83824000D01*
X145820999Y-83811868D01*
X145806187Y-83699346D01*
X145806183Y-83699334D01*
X145748188Y-83559320D01*
X145748188Y-83559319D01*
X145655922Y-83439077D01*
X145608744Y-83402876D01*
X145567542Y-83346448D01*
X145563387Y-83276701D01*
X145597600Y-83215781D01*
X145659317Y-83183029D01*
X145684231Y-83180500D01*
X145892713Y-83180500D01*
X145892720Y-83180500D01*
X146005236Y-83165687D01*
X146005236Y-83165686D01*
X146013295Y-83164626D01*
X146013698Y-83167689D01*
X146046302Y-83167689D01*
X146046705Y-83164626D01*
X146054763Y-83165686D01*
X146054764Y-83165687D01*
X146167280Y-83180500D01*
X146167287Y-83180500D01*
X146392713Y-83180500D01*
X146392720Y-83180500D01*
X146505236Y-83165687D01*
X146505236Y-83165686D01*
X146513295Y-83164626D01*
X146513698Y-83167689D01*
X146546302Y-83167689D01*
X146546705Y-83164626D01*
X146554763Y-83165686D01*
X146554764Y-83165687D01*
X146667280Y-83180500D01*
X146667287Y-83180500D01*
X146892713Y-83180500D01*
X146892720Y-83180500D01*
X147005236Y-83165687D01*
X147005236Y-83165686D01*
X147013295Y-83164626D01*
X147013698Y-83167689D01*
X147046302Y-83167689D01*
X147046705Y-83164626D01*
X147054763Y-83165686D01*
X147054764Y-83165687D01*
X147167280Y-83180500D01*
X147167287Y-83180500D01*
X147392713Y-83180500D01*
X147392720Y-83180500D01*
X147505236Y-83165687D01*
X147505236Y-83165686D01*
X147513295Y-83164626D01*
X147513698Y-83167689D01*
X147546302Y-83167689D01*
X147546705Y-83164626D01*
X147554763Y-83165686D01*
X147554764Y-83165687D01*
X147667280Y-83180500D01*
X147667287Y-83180500D01*
X147892713Y-83180500D01*
X147892720Y-83180500D01*
X148005236Y-83165687D01*
X148005236Y-83165686D01*
X148013295Y-83164626D01*
X148013698Y-83167689D01*
X148046302Y-83167689D01*
X148046705Y-83164626D01*
X148054763Y-83165686D01*
G37*
%TD.AperFunction*%
%TA.AperFunction,Conductor*%
G36*
X161796942Y-71100185D02*
G01*
X161817584Y-71116819D01*
X163111520Y-72410755D01*
X163145005Y-72472078D01*
X163140021Y-72541770D01*
X163098149Y-72597703D01*
X163062614Y-72615305D01*
X163062779Y-72615729D01*
X163058102Y-72617540D01*
X163057781Y-72617700D01*
X163057442Y-72617796D01*
X162865612Y-72692111D01*
X162774547Y-72748495D01*
X163313729Y-73287676D01*
X163235788Y-73300021D01*
X163121480Y-73358264D01*
X163030764Y-73448980D01*
X162972521Y-73563288D01*
X162960176Y-73641228D01*
X162417895Y-73098947D01*
X162417893Y-73098947D01*
X162414714Y-73103157D01*
X162414713Y-73103160D01*
X162323024Y-73287297D01*
X162323019Y-73287308D01*
X162266726Y-73485161D01*
X162266725Y-73485164D01*
X162247745Y-73689999D01*
X162247745Y-73690000D01*
X162266725Y-73894835D01*
X162266726Y-73894838D01*
X162323019Y-74092691D01*
X162323022Y-74092697D01*
X162414714Y-74276840D01*
X162417894Y-74281051D01*
X162417895Y-74281052D01*
X162960176Y-73738770D01*
X162972521Y-73816712D01*
X163030764Y-73931020D01*
X163121480Y-74021736D01*
X163235788Y-74079979D01*
X163313727Y-74092323D01*
X162774547Y-74631503D01*
X162865612Y-74687888D01*
X162865613Y-74687889D01*
X163057430Y-74762198D01*
X163259645Y-74800000D01*
X163465355Y-74800000D01*
X163667569Y-74762198D01*
X163859392Y-74687886D01*
X163860217Y-74687476D01*
X163860653Y-74687398D01*
X163864735Y-74685817D01*
X163865044Y-74686614D01*
X163929001Y-74675207D01*
X163993498Y-74702074D01*
X164033232Y-74759545D01*
X164039500Y-74798470D01*
X164039500Y-75406571D01*
X164038969Y-75414669D01*
X164034318Y-75450000D01*
X164043254Y-75517873D01*
X164053108Y-75592727D01*
X164054956Y-75606760D01*
X164054956Y-75606762D01*
X164112923Y-75746708D01*
X164115464Y-75752841D01*
X164211718Y-75878282D01*
X164239995Y-75899980D01*
X164246085Y-75905320D01*
X164791645Y-76450880D01*
X165312278Y-76971513D01*
X165345763Y-77032836D01*
X165340779Y-77102528D01*
X165298907Y-77158461D01*
X165233443Y-77182878D01*
X165166144Y-77168552D01*
X165071850Y-77118151D01*
X165071847Y-77118150D01*
X165071846Y-77118149D01*
X165071843Y-77118148D01*
X164884662Y-77061368D01*
X164884660Y-77061367D01*
X164884662Y-77061367D01*
X164705412Y-77043713D01*
X164690000Y-77042195D01*
X164689999Y-77042195D01*
X164613114Y-77049767D01*
X164544468Y-77036748D01*
X164513280Y-77014045D01*
X160775328Y-73276093D01*
X160769974Y-73269988D01*
X160748286Y-73241722D01*
X160748283Y-73241720D01*
X160748282Y-73241718D01*
X160622841Y-73145464D01*
X160476762Y-73084956D01*
X160422232Y-73077777D01*
X160320001Y-73064318D01*
X160320000Y-73064318D01*
X160284670Y-73068969D01*
X160276572Y-73069500D01*
X156414500Y-73069500D01*
X156347461Y-73049815D01*
X156301706Y-72997011D01*
X156290500Y-72945500D01*
X156290500Y-72807848D01*
X156290499Y-72807834D01*
X156283512Y-72754764D01*
X156275671Y-72695208D01*
X156259760Y-72656796D01*
X156252292Y-72587332D01*
X156259763Y-72561890D01*
X156275184Y-72524662D01*
X156287647Y-72430000D01*
X156161220Y-72430000D01*
X156094181Y-72410315D01*
X156085734Y-72404376D01*
X156004936Y-72342378D01*
X156004934Y-72342376D01*
X155864795Y-72284330D01*
X155864793Y-72284329D01*
X155864792Y-72284329D01*
X155839762Y-72281033D01*
X155752165Y-72269500D01*
X155752158Y-72269500D01*
X155227842Y-72269500D01*
X155227834Y-72269500D01*
X155115206Y-72284329D01*
X155075379Y-72300825D01*
X155005909Y-72308291D01*
X154990729Y-72304293D01*
X154988057Y-72303683D01*
X154820007Y-72284749D01*
X154820001Y-72284749D01*
X154651946Y-72303684D01*
X154617143Y-72315862D01*
X154547364Y-72319423D01*
X154486737Y-72284694D01*
X154461628Y-72246272D01*
X154407263Y-72115021D01*
X154315094Y-71994905D01*
X154230508Y-71929999D01*
X154692353Y-71929999D01*
X154692354Y-71930000D01*
X155240000Y-71930000D01*
X155240000Y-71410000D01*
X155740000Y-71410000D01*
X155740000Y-71930000D01*
X156287645Y-71930000D01*
X156287646Y-71929998D01*
X156275186Y-71835346D01*
X156275183Y-71835334D01*
X156217188Y-71695320D01*
X156217188Y-71695319D01*
X156124922Y-71575077D01*
X156004679Y-71482811D01*
X155864665Y-71424816D01*
X155864660Y-71424814D01*
X155752130Y-71410000D01*
X155740000Y-71410000D01*
X155240000Y-71410000D01*
X155239998Y-71409999D01*
X155227870Y-71410000D01*
X155227869Y-71410000D01*
X155115345Y-71424813D01*
X155115334Y-71424816D01*
X154975320Y-71482811D01*
X154975319Y-71482811D01*
X154855077Y-71575077D01*
X154762811Y-71695319D01*
X154762811Y-71695320D01*
X154704816Y-71835334D01*
X154704815Y-71835339D01*
X154692353Y-71929999D01*
X154230508Y-71929999D01*
X154194978Y-71902736D01*
X154055108Y-71844801D01*
X154055104Y-71844800D01*
X153942697Y-71830000D01*
X153355000Y-71830000D01*
X153355000Y-72205500D01*
X153335315Y-72272539D01*
X153282511Y-72318294D01*
X153231000Y-72329500D01*
X153179000Y-72329500D01*
X153111961Y-72309815D01*
X153066206Y-72257011D01*
X153055000Y-72205500D01*
X153055000Y-71830000D01*
X152467302Y-71830000D01*
X152354895Y-71844800D01*
X152347553Y-71847841D01*
X152278083Y-71855306D01*
X152215606Y-71824027D01*
X152183065Y-71774229D01*
X152179070Y-71762812D01*
X152179065Y-71762802D01*
X152089094Y-71619615D01*
X152089089Y-71619609D01*
X151969504Y-71500024D01*
X151964275Y-71495854D01*
X151924135Y-71438666D01*
X151918650Y-71382726D01*
X151930500Y-71292720D01*
X151930500Y-71204500D01*
X151950185Y-71137461D01*
X152002989Y-71091706D01*
X152054500Y-71080500D01*
X161729903Y-71080500D01*
X161796942Y-71100185D01*
G37*
%TD.AperFunction*%
%TA.AperFunction,Conductor*%
G36*
X141406942Y-70870185D02*
G01*
X141427584Y-70886819D01*
X142159084Y-71618319D01*
X142192569Y-71679642D01*
X142187585Y-71749334D01*
X142145713Y-71805267D01*
X142080249Y-71829684D01*
X142071403Y-71830000D01*
X142005000Y-71830000D01*
X142005000Y-72205500D01*
X141985315Y-72272539D01*
X141932511Y-72318294D01*
X141881000Y-72329500D01*
X141829000Y-72329500D01*
X141761961Y-72309815D01*
X141716206Y-72257011D01*
X141705000Y-72205500D01*
X141705000Y-71830000D01*
X141188068Y-71830000D01*
X141121029Y-71810315D01*
X141075274Y-71757511D01*
X141065330Y-71688353D01*
X141089693Y-71630513D01*
X141117185Y-71594684D01*
X141117188Y-71594679D01*
X141175183Y-71454665D01*
X141175184Y-71454660D01*
X141187647Y-71360000D01*
X140580597Y-71360000D01*
X140513558Y-71340315D01*
X140492916Y-71323681D01*
X140401416Y-71232181D01*
X140367931Y-71170858D01*
X140372915Y-71101166D01*
X140414787Y-71045233D01*
X140480251Y-71020816D01*
X140489097Y-71020500D01*
X140652151Y-71020500D01*
X140652158Y-71020500D01*
X140764792Y-71005671D01*
X140904936Y-70947622D01*
X140948200Y-70914423D01*
X140985734Y-70885624D01*
X141050903Y-70860430D01*
X141061220Y-70860000D01*
X141210552Y-70860000D01*
X141217938Y-70855316D01*
X141252159Y-70850500D01*
X141339903Y-70850500D01*
X141406942Y-70870185D01*
G37*
%TD.AperFunction*%
%TD*%
M02*
