%TF.GenerationSoftware,KiCad,Pcbnew,7.0.9*%
%TF.CreationDate,2024-02-06T13:27:41-04:00*%
%TF.ProjectId,proyecto_micro_v1,70726f79-6563-4746-9f5f-6d6963726f5f,rev?*%
%TF.SameCoordinates,Original*%
%TF.FileFunction,Legend,Top*%
%TF.FilePolarity,Positive*%
%FSLAX46Y46*%
G04 Gerber Fmt 4.6, Leading zero omitted, Abs format (unit mm)*
G04 Created by KiCad (PCBNEW 7.0.9) date 2024-02-06 13:27:41*
%MOMM*%
%LPD*%
G01*
G04 APERTURE LIST*
%ADD10C,0.060464*%
%ADD11C,0.150000*%
%ADD12C,0.300000*%
%ADD13C,0.098425*%
%ADD14C,0.127000*%
%ADD15C,0.120000*%
%ADD16C,0.200000*%
G04 APERTURE END LIST*
D10*
X136553522Y-71696708D02*
X136542005Y-71708225D01*
X136542005Y-71708225D02*
X136507455Y-71719741D01*
X136507455Y-71719741D02*
X136484421Y-71719741D01*
X136484421Y-71719741D02*
X136449870Y-71708225D01*
X136449870Y-71708225D02*
X136426837Y-71685191D01*
X136426837Y-71685191D02*
X136415320Y-71662157D01*
X136415320Y-71662157D02*
X136403803Y-71616090D01*
X136403803Y-71616090D02*
X136403803Y-71581539D01*
X136403803Y-71581539D02*
X136415320Y-71535472D01*
X136415320Y-71535472D02*
X136426837Y-71512438D01*
X136426837Y-71512438D02*
X136449870Y-71489404D01*
X136449870Y-71489404D02*
X136484421Y-71477887D01*
X136484421Y-71477887D02*
X136507455Y-71477887D01*
X136507455Y-71477887D02*
X136542005Y-71489404D01*
X136542005Y-71489404D02*
X136553522Y-71500921D01*
X136783859Y-71719741D02*
X136645657Y-71719741D01*
X136714758Y-71719741D02*
X136714758Y-71477887D01*
X136714758Y-71477887D02*
X136691724Y-71512438D01*
X136691724Y-71512438D02*
X136668691Y-71535472D01*
X136668691Y-71535472D02*
X136645657Y-71546989D01*
X136875994Y-71500921D02*
X136887511Y-71489404D01*
X136887511Y-71489404D02*
X136910545Y-71477887D01*
X136910545Y-71477887D02*
X136968129Y-71477887D01*
X136968129Y-71477887D02*
X136991163Y-71489404D01*
X136991163Y-71489404D02*
X137002679Y-71500921D01*
X137002679Y-71500921D02*
X137014196Y-71523955D01*
X137014196Y-71523955D02*
X137014196Y-71546989D01*
X137014196Y-71546989D02*
X137002679Y-71581539D01*
X137002679Y-71581539D02*
X136864477Y-71719741D01*
X136864477Y-71719741D02*
X137014196Y-71719741D01*
D11*
X146553810Y-69284819D02*
X146553810Y-68284819D01*
X147601428Y-69189580D02*
X147553809Y-69237200D01*
X147553809Y-69237200D02*
X147410952Y-69284819D01*
X147410952Y-69284819D02*
X147315714Y-69284819D01*
X147315714Y-69284819D02*
X147172857Y-69237200D01*
X147172857Y-69237200D02*
X147077619Y-69141961D01*
X147077619Y-69141961D02*
X147030000Y-69046723D01*
X147030000Y-69046723D02*
X146982381Y-68856247D01*
X146982381Y-68856247D02*
X146982381Y-68713390D01*
X146982381Y-68713390D02*
X147030000Y-68522914D01*
X147030000Y-68522914D02*
X147077619Y-68427676D01*
X147077619Y-68427676D02*
X147172857Y-68332438D01*
X147172857Y-68332438D02*
X147315714Y-68284819D01*
X147315714Y-68284819D02*
X147410952Y-68284819D01*
X147410952Y-68284819D02*
X147553809Y-68332438D01*
X147553809Y-68332438D02*
X147601428Y-68380057D01*
X148553809Y-69284819D02*
X147982381Y-69284819D01*
X148268095Y-69284819D02*
X148268095Y-68284819D01*
X148268095Y-68284819D02*
X148172857Y-68427676D01*
X148172857Y-68427676D02*
X148077619Y-68522914D01*
X148077619Y-68522914D02*
X147982381Y-68570533D01*
X137743693Y-84494939D02*
X138253629Y-84494939D01*
X138253629Y-84494939D02*
X138313621Y-84464943D01*
X138313621Y-84464943D02*
X138343618Y-84434947D01*
X138343618Y-84434947D02*
X138373614Y-84374954D01*
X138373614Y-84374954D02*
X138373614Y-84254969D01*
X138373614Y-84254969D02*
X138343618Y-84194977D01*
X138343618Y-84194977D02*
X138313621Y-84164981D01*
X138313621Y-84164981D02*
X138253629Y-84134984D01*
X138253629Y-84134984D02*
X137743693Y-84134984D01*
X137953666Y-83565056D02*
X138373614Y-83565056D01*
X137713697Y-83715037D02*
X138163640Y-83865019D01*
X138163640Y-83865019D02*
X138163640Y-83475067D01*
D10*
X154733708Y-72636308D02*
X154745225Y-72647825D01*
X154745225Y-72647825D02*
X154756741Y-72682375D01*
X154756741Y-72682375D02*
X154756741Y-72705409D01*
X154756741Y-72705409D02*
X154745225Y-72739960D01*
X154745225Y-72739960D02*
X154722191Y-72762993D01*
X154722191Y-72762993D02*
X154699157Y-72774510D01*
X154699157Y-72774510D02*
X154653090Y-72786027D01*
X154653090Y-72786027D02*
X154618539Y-72786027D01*
X154618539Y-72786027D02*
X154572472Y-72774510D01*
X154572472Y-72774510D02*
X154549438Y-72762993D01*
X154549438Y-72762993D02*
X154526404Y-72739960D01*
X154526404Y-72739960D02*
X154514887Y-72705409D01*
X154514887Y-72705409D02*
X154514887Y-72682375D01*
X154514887Y-72682375D02*
X154526404Y-72647825D01*
X154526404Y-72647825D02*
X154537921Y-72636308D01*
X154595505Y-72429005D02*
X154756741Y-72429005D01*
X154503371Y-72486589D02*
X154676123Y-72544173D01*
X154676123Y-72544173D02*
X154676123Y-72394454D01*
D11*
X164609166Y-70974819D02*
X164609166Y-71689104D01*
X164609166Y-71689104D02*
X164561547Y-71831961D01*
X164561547Y-71831961D02*
X164466309Y-71927200D01*
X164466309Y-71927200D02*
X164323452Y-71974819D01*
X164323452Y-71974819D02*
X164228214Y-71974819D01*
X165609166Y-71974819D02*
X165037738Y-71974819D01*
X165323452Y-71974819D02*
X165323452Y-70974819D01*
X165323452Y-70974819D02*
X165228214Y-71117676D01*
X165228214Y-71117676D02*
X165132976Y-71212914D01*
X165132976Y-71212914D02*
X165037738Y-71260533D01*
D10*
X135924708Y-79756308D02*
X135936225Y-79767825D01*
X135936225Y-79767825D02*
X135947741Y-79802375D01*
X135947741Y-79802375D02*
X135947741Y-79825409D01*
X135947741Y-79825409D02*
X135936225Y-79859960D01*
X135936225Y-79859960D02*
X135913191Y-79882993D01*
X135913191Y-79882993D02*
X135890157Y-79894510D01*
X135890157Y-79894510D02*
X135844090Y-79906027D01*
X135844090Y-79906027D02*
X135809539Y-79906027D01*
X135809539Y-79906027D02*
X135763472Y-79894510D01*
X135763472Y-79894510D02*
X135740438Y-79882993D01*
X135740438Y-79882993D02*
X135717404Y-79859960D01*
X135717404Y-79859960D02*
X135705887Y-79825409D01*
X135705887Y-79825409D02*
X135705887Y-79802375D01*
X135705887Y-79802375D02*
X135717404Y-79767825D01*
X135717404Y-79767825D02*
X135728921Y-79756308D01*
X135705887Y-79675690D02*
X135705887Y-79514454D01*
X135705887Y-79514454D02*
X135947741Y-79618106D01*
X151391997Y-84861931D02*
X151380480Y-84873448D01*
X151380480Y-84873448D02*
X151345930Y-84884964D01*
X151345930Y-84884964D02*
X151322896Y-84884964D01*
X151322896Y-84884964D02*
X151288345Y-84873448D01*
X151288345Y-84873448D02*
X151265312Y-84850414D01*
X151265312Y-84850414D02*
X151253795Y-84827380D01*
X151253795Y-84827380D02*
X151242278Y-84781313D01*
X151242278Y-84781313D02*
X151242278Y-84746762D01*
X151242278Y-84746762D02*
X151253795Y-84700695D01*
X151253795Y-84700695D02*
X151265312Y-84677661D01*
X151265312Y-84677661D02*
X151288345Y-84654627D01*
X151288345Y-84654627D02*
X151322896Y-84643110D01*
X151322896Y-84643110D02*
X151345930Y-84643110D01*
X151345930Y-84643110D02*
X151380480Y-84654627D01*
X151380480Y-84654627D02*
X151391997Y-84666144D01*
X151484132Y-84666144D02*
X151495649Y-84654627D01*
X151495649Y-84654627D02*
X151518683Y-84643110D01*
X151518683Y-84643110D02*
X151576267Y-84643110D01*
X151576267Y-84643110D02*
X151599301Y-84654627D01*
X151599301Y-84654627D02*
X151610817Y-84666144D01*
X151610817Y-84666144D02*
X151622334Y-84689178D01*
X151622334Y-84689178D02*
X151622334Y-84712212D01*
X151622334Y-84712212D02*
X151610817Y-84746762D01*
X151610817Y-84746762D02*
X151472615Y-84884964D01*
X151472615Y-84884964D02*
X151622334Y-84884964D01*
D12*
D11*
X189868319Y-76799904D02*
X190677842Y-76799904D01*
X190677842Y-76799904D02*
X190773080Y-76752285D01*
X190773080Y-76752285D02*
X190820700Y-76704666D01*
X190820700Y-76704666D02*
X190868319Y-76609428D01*
X190868319Y-76609428D02*
X190868319Y-76418952D01*
X190868319Y-76418952D02*
X190820700Y-76323714D01*
X190820700Y-76323714D02*
X190773080Y-76276095D01*
X190773080Y-76276095D02*
X190677842Y-76228476D01*
X190677842Y-76228476D02*
X189868319Y-76228476D01*
X190868319Y-75228476D02*
X190868319Y-75799904D01*
X190868319Y-75514190D02*
X189868319Y-75514190D01*
X189868319Y-75514190D02*
X190011176Y-75609428D01*
X190011176Y-75609428D02*
X190106414Y-75704666D01*
X190106414Y-75704666D02*
X190154033Y-75799904D01*
X172093693Y-76259939D02*
X172603629Y-76259939D01*
X172603629Y-76259939D02*
X172663621Y-76229943D01*
X172663621Y-76229943D02*
X172693618Y-76199947D01*
X172693618Y-76199947D02*
X172723614Y-76139954D01*
X172723614Y-76139954D02*
X172723614Y-76019969D01*
X172723614Y-76019969D02*
X172693618Y-75959977D01*
X172693618Y-75959977D02*
X172663621Y-75929981D01*
X172663621Y-75929981D02*
X172603629Y-75899984D01*
X172603629Y-75899984D02*
X172093693Y-75899984D01*
X172093693Y-75300060D02*
X172093693Y-75600022D01*
X172093693Y-75600022D02*
X172393655Y-75630019D01*
X172393655Y-75630019D02*
X172363659Y-75600022D01*
X172363659Y-75600022D02*
X172333663Y-75540030D01*
X172333663Y-75540030D02*
X172333663Y-75390049D01*
X172333663Y-75390049D02*
X172363659Y-75330056D01*
X172363659Y-75330056D02*
X172393655Y-75300060D01*
X172393655Y-75300060D02*
X172453648Y-75270064D01*
X172453648Y-75270064D02*
X172603629Y-75270064D01*
X172603629Y-75270064D02*
X172663621Y-75300060D01*
X172663621Y-75300060D02*
X172693618Y-75330056D01*
X172693618Y-75330056D02*
X172723614Y-75390049D01*
X172723614Y-75390049D02*
X172723614Y-75540030D01*
X172723614Y-75540030D02*
X172693618Y-75600022D01*
X172693618Y-75600022D02*
X172663621Y-75630019D01*
D13*
X142334383Y-81917014D02*
X142203149Y-81729538D01*
X142109411Y-81917014D02*
X142109411Y-81523313D01*
X142109411Y-81523313D02*
X142259392Y-81523313D01*
X142259392Y-81523313D02*
X142296888Y-81542061D01*
X142296888Y-81542061D02*
X142315635Y-81560809D01*
X142315635Y-81560809D02*
X142334383Y-81598304D01*
X142334383Y-81598304D02*
X142334383Y-81654547D01*
X142334383Y-81654547D02*
X142315635Y-81692042D01*
X142315635Y-81692042D02*
X142296888Y-81710790D01*
X142296888Y-81710790D02*
X142259392Y-81729538D01*
X142259392Y-81729538D02*
X142109411Y-81729538D01*
X142671841Y-81523313D02*
X142596850Y-81523313D01*
X142596850Y-81523313D02*
X142559355Y-81542061D01*
X142559355Y-81542061D02*
X142540607Y-81560809D01*
X142540607Y-81560809D02*
X142503112Y-81617052D01*
X142503112Y-81617052D02*
X142484364Y-81692042D01*
X142484364Y-81692042D02*
X142484364Y-81842024D01*
X142484364Y-81842024D02*
X142503112Y-81879519D01*
X142503112Y-81879519D02*
X142521860Y-81898267D01*
X142521860Y-81898267D02*
X142559355Y-81917014D01*
X142559355Y-81917014D02*
X142634346Y-81917014D01*
X142634346Y-81917014D02*
X142671841Y-81898267D01*
X142671841Y-81898267D02*
X142690589Y-81879519D01*
X142690589Y-81879519D02*
X142709336Y-81842024D01*
X142709336Y-81842024D02*
X142709336Y-81748285D01*
X142709336Y-81748285D02*
X142690589Y-81710790D01*
X142690589Y-81710790D02*
X142671841Y-81692042D01*
X142671841Y-81692042D02*
X142634346Y-81673295D01*
X142634346Y-81673295D02*
X142559355Y-81673295D01*
X142559355Y-81673295D02*
X142521860Y-81692042D01*
X142521860Y-81692042D02*
X142503112Y-81710790D01*
X142503112Y-81710790D02*
X142484364Y-81748285D01*
D10*
X138895708Y-80480308D02*
X138907225Y-80491825D01*
X138907225Y-80491825D02*
X138918741Y-80526375D01*
X138918741Y-80526375D02*
X138918741Y-80549409D01*
X138918741Y-80549409D02*
X138907225Y-80583960D01*
X138907225Y-80583960D02*
X138884191Y-80606993D01*
X138884191Y-80606993D02*
X138861157Y-80618510D01*
X138861157Y-80618510D02*
X138815090Y-80630027D01*
X138815090Y-80630027D02*
X138780539Y-80630027D01*
X138780539Y-80630027D02*
X138734472Y-80618510D01*
X138734472Y-80618510D02*
X138711438Y-80606993D01*
X138711438Y-80606993D02*
X138688404Y-80583960D01*
X138688404Y-80583960D02*
X138676887Y-80549409D01*
X138676887Y-80549409D02*
X138676887Y-80526375D01*
X138676887Y-80526375D02*
X138688404Y-80491825D01*
X138688404Y-80491825D02*
X138699921Y-80480308D01*
X138780539Y-80342106D02*
X138769022Y-80365139D01*
X138769022Y-80365139D02*
X138757505Y-80376656D01*
X138757505Y-80376656D02*
X138734472Y-80388173D01*
X138734472Y-80388173D02*
X138722955Y-80388173D01*
X138722955Y-80388173D02*
X138699921Y-80376656D01*
X138699921Y-80376656D02*
X138688404Y-80365139D01*
X138688404Y-80365139D02*
X138676887Y-80342106D01*
X138676887Y-80342106D02*
X138676887Y-80296038D01*
X138676887Y-80296038D02*
X138688404Y-80273005D01*
X138688404Y-80273005D02*
X138699921Y-80261488D01*
X138699921Y-80261488D02*
X138722955Y-80249971D01*
X138722955Y-80249971D02*
X138734472Y-80249971D01*
X138734472Y-80249971D02*
X138757505Y-80261488D01*
X138757505Y-80261488D02*
X138769022Y-80273005D01*
X138769022Y-80273005D02*
X138780539Y-80296038D01*
X138780539Y-80296038D02*
X138780539Y-80342106D01*
X138780539Y-80342106D02*
X138792056Y-80365139D01*
X138792056Y-80365139D02*
X138803573Y-80376656D01*
X138803573Y-80376656D02*
X138826607Y-80388173D01*
X138826607Y-80388173D02*
X138872674Y-80388173D01*
X138872674Y-80388173D02*
X138895708Y-80376656D01*
X138895708Y-80376656D02*
X138907225Y-80365139D01*
X138907225Y-80365139D02*
X138918741Y-80342106D01*
X138918741Y-80342106D02*
X138918741Y-80296038D01*
X138918741Y-80296038D02*
X138907225Y-80273005D01*
X138907225Y-80273005D02*
X138895708Y-80261488D01*
X138895708Y-80261488D02*
X138872674Y-80249971D01*
X138872674Y-80249971D02*
X138826607Y-80249971D01*
X138826607Y-80249971D02*
X138803573Y-80261488D01*
X138803573Y-80261488D02*
X138792056Y-80273005D01*
X138792056Y-80273005D02*
X138780539Y-80296038D01*
D13*
X145079014Y-68280616D02*
X144891538Y-68411850D01*
X145079014Y-68505588D02*
X144685313Y-68505588D01*
X144685313Y-68505588D02*
X144685313Y-68355607D01*
X144685313Y-68355607D02*
X144704061Y-68318112D01*
X144704061Y-68318112D02*
X144722809Y-68299364D01*
X144722809Y-68299364D02*
X144760304Y-68280616D01*
X144760304Y-68280616D02*
X144816547Y-68280616D01*
X144816547Y-68280616D02*
X144854042Y-68299364D01*
X144854042Y-68299364D02*
X144872790Y-68318112D01*
X144872790Y-68318112D02*
X144891538Y-68355607D01*
X144891538Y-68355607D02*
X144891538Y-68505588D01*
X144685313Y-68149383D02*
X144685313Y-67905663D01*
X144685313Y-67905663D02*
X144835295Y-68036897D01*
X144835295Y-68036897D02*
X144835295Y-67980654D01*
X144835295Y-67980654D02*
X144854042Y-67943158D01*
X144854042Y-67943158D02*
X144872790Y-67924411D01*
X144872790Y-67924411D02*
X144910285Y-67905663D01*
X144910285Y-67905663D02*
X145004024Y-67905663D01*
X145004024Y-67905663D02*
X145041519Y-67924411D01*
X145041519Y-67924411D02*
X145060267Y-67943158D01*
X145060267Y-67943158D02*
X145079014Y-67980654D01*
X145079014Y-67980654D02*
X145079014Y-68093140D01*
X145079014Y-68093140D02*
X145060267Y-68130635D01*
X145060267Y-68130635D02*
X145041519Y-68149383D01*
D10*
X136254522Y-77005708D02*
X136243005Y-77017225D01*
X136243005Y-77017225D02*
X136208455Y-77028741D01*
X136208455Y-77028741D02*
X136185421Y-77028741D01*
X136185421Y-77028741D02*
X136150870Y-77017225D01*
X136150870Y-77017225D02*
X136127837Y-76994191D01*
X136127837Y-76994191D02*
X136116320Y-76971157D01*
X136116320Y-76971157D02*
X136104803Y-76925090D01*
X136104803Y-76925090D02*
X136104803Y-76890539D01*
X136104803Y-76890539D02*
X136116320Y-76844472D01*
X136116320Y-76844472D02*
X136127837Y-76821438D01*
X136127837Y-76821438D02*
X136150870Y-76798404D01*
X136150870Y-76798404D02*
X136185421Y-76786887D01*
X136185421Y-76786887D02*
X136208455Y-76786887D01*
X136208455Y-76786887D02*
X136243005Y-76798404D01*
X136243005Y-76798404D02*
X136254522Y-76809921D01*
X136484859Y-77028741D02*
X136346657Y-77028741D01*
X136415758Y-77028741D02*
X136415758Y-76786887D01*
X136415758Y-76786887D02*
X136392724Y-76821438D01*
X136392724Y-76821438D02*
X136369691Y-76844472D01*
X136369691Y-76844472D02*
X136346657Y-76855989D01*
X136715196Y-77028741D02*
X136576994Y-77028741D01*
X136646095Y-77028741D02*
X136646095Y-76786887D01*
X136646095Y-76786887D02*
X136623061Y-76821438D01*
X136623061Y-76821438D02*
X136600028Y-76844472D01*
X136600028Y-76844472D02*
X136576994Y-76855989D01*
D13*
X139714383Y-79087014D02*
X139583149Y-78899538D01*
X139489411Y-79087014D02*
X139489411Y-78693313D01*
X139489411Y-78693313D02*
X139639392Y-78693313D01*
X139639392Y-78693313D02*
X139676888Y-78712061D01*
X139676888Y-78712061D02*
X139695635Y-78730809D01*
X139695635Y-78730809D02*
X139714383Y-78768304D01*
X139714383Y-78768304D02*
X139714383Y-78824547D01*
X139714383Y-78824547D02*
X139695635Y-78862042D01*
X139695635Y-78862042D02*
X139676888Y-78880790D01*
X139676888Y-78880790D02*
X139639392Y-78899538D01*
X139639392Y-78899538D02*
X139489411Y-78899538D01*
X140070589Y-78693313D02*
X139883112Y-78693313D01*
X139883112Y-78693313D02*
X139864364Y-78880790D01*
X139864364Y-78880790D02*
X139883112Y-78862042D01*
X139883112Y-78862042D02*
X139920607Y-78843295D01*
X139920607Y-78843295D02*
X140014346Y-78843295D01*
X140014346Y-78843295D02*
X140051841Y-78862042D01*
X140051841Y-78862042D02*
X140070589Y-78880790D01*
X140070589Y-78880790D02*
X140089336Y-78918285D01*
X140089336Y-78918285D02*
X140089336Y-79012024D01*
X140089336Y-79012024D02*
X140070589Y-79049519D01*
X140070589Y-79049519D02*
X140051841Y-79068267D01*
X140051841Y-79068267D02*
X140014346Y-79087014D01*
X140014346Y-79087014D02*
X139920607Y-79087014D01*
X139920607Y-79087014D02*
X139883112Y-79068267D01*
X139883112Y-79068267D02*
X139864364Y-79049519D01*
D11*
X159611666Y-69799819D02*
X159611666Y-70514104D01*
X159611666Y-70514104D02*
X159564047Y-70656961D01*
X159564047Y-70656961D02*
X159468809Y-70752200D01*
X159468809Y-70752200D02*
X159325952Y-70799819D01*
X159325952Y-70799819D02*
X159230714Y-70799819D01*
X160516428Y-70133152D02*
X160516428Y-70799819D01*
X160278333Y-69752200D02*
X160040238Y-70466485D01*
X160040238Y-70466485D02*
X160659285Y-70466485D01*
X172981319Y-74882904D02*
X173790842Y-74882904D01*
X173790842Y-74882904D02*
X173886080Y-74835285D01*
X173886080Y-74835285D02*
X173933700Y-74787666D01*
X173933700Y-74787666D02*
X173981319Y-74692428D01*
X173981319Y-74692428D02*
X173981319Y-74501952D01*
X173981319Y-74501952D02*
X173933700Y-74406714D01*
X173933700Y-74406714D02*
X173886080Y-74359095D01*
X173886080Y-74359095D02*
X173790842Y-74311476D01*
X173790842Y-74311476D02*
X172981319Y-74311476D01*
X172981319Y-73930523D02*
X172981319Y-73311476D01*
X172981319Y-73311476D02*
X173362271Y-73644809D01*
X173362271Y-73644809D02*
X173362271Y-73501952D01*
X173362271Y-73501952D02*
X173409890Y-73406714D01*
X173409890Y-73406714D02*
X173457509Y-73359095D01*
X173457509Y-73359095D02*
X173552747Y-73311476D01*
X173552747Y-73311476D02*
X173790842Y-73311476D01*
X173790842Y-73311476D02*
X173886080Y-73359095D01*
X173886080Y-73359095D02*
X173933700Y-73406714D01*
X173933700Y-73406714D02*
X173981319Y-73501952D01*
X173981319Y-73501952D02*
X173981319Y-73787666D01*
X173981319Y-73787666D02*
X173933700Y-73882904D01*
X173933700Y-73882904D02*
X173886080Y-73930523D01*
D13*
X136295014Y-81749616D02*
X136295014Y-81937092D01*
X136295014Y-81937092D02*
X135901313Y-81937092D01*
X136295014Y-81412158D02*
X136295014Y-81637130D01*
X136295014Y-81524644D02*
X135901313Y-81524644D01*
X135901313Y-81524644D02*
X135957556Y-81562139D01*
X135957556Y-81562139D02*
X135995052Y-81599635D01*
X135995052Y-81599635D02*
X136013799Y-81637130D01*
D10*
X139757485Y-70799614D02*
X139769002Y-70811131D01*
X139769002Y-70811131D02*
X139780518Y-70845681D01*
X139780518Y-70845681D02*
X139780518Y-70868715D01*
X139780518Y-70868715D02*
X139769002Y-70903266D01*
X139769002Y-70903266D02*
X139745968Y-70926299D01*
X139745968Y-70926299D02*
X139722934Y-70937816D01*
X139722934Y-70937816D02*
X139676867Y-70949333D01*
X139676867Y-70949333D02*
X139642316Y-70949333D01*
X139642316Y-70949333D02*
X139596249Y-70937816D01*
X139596249Y-70937816D02*
X139573215Y-70926299D01*
X139573215Y-70926299D02*
X139550181Y-70903266D01*
X139550181Y-70903266D02*
X139538664Y-70868715D01*
X139538664Y-70868715D02*
X139538664Y-70845681D01*
X139538664Y-70845681D02*
X139550181Y-70811131D01*
X139550181Y-70811131D02*
X139561698Y-70799614D01*
X139538664Y-70718996D02*
X139538664Y-70569277D01*
X139538664Y-70569277D02*
X139630799Y-70649895D01*
X139630799Y-70649895D02*
X139630799Y-70615344D01*
X139630799Y-70615344D02*
X139642316Y-70592311D01*
X139642316Y-70592311D02*
X139653833Y-70580794D01*
X139653833Y-70580794D02*
X139676867Y-70569277D01*
X139676867Y-70569277D02*
X139734451Y-70569277D01*
X139734451Y-70569277D02*
X139757485Y-70580794D01*
X139757485Y-70580794D02*
X139769002Y-70592311D01*
X139769002Y-70592311D02*
X139780518Y-70615344D01*
X139780518Y-70615344D02*
X139780518Y-70684445D01*
X139780518Y-70684445D02*
X139769002Y-70707479D01*
X139769002Y-70707479D02*
X139757485Y-70718996D01*
X137323708Y-78257308D02*
X137335225Y-78268825D01*
X137335225Y-78268825D02*
X137346741Y-78303375D01*
X137346741Y-78303375D02*
X137346741Y-78326409D01*
X137346741Y-78326409D02*
X137335225Y-78360960D01*
X137335225Y-78360960D02*
X137312191Y-78383993D01*
X137312191Y-78383993D02*
X137289157Y-78395510D01*
X137289157Y-78395510D02*
X137243090Y-78407027D01*
X137243090Y-78407027D02*
X137208539Y-78407027D01*
X137208539Y-78407027D02*
X137162472Y-78395510D01*
X137162472Y-78395510D02*
X137139438Y-78383993D01*
X137139438Y-78383993D02*
X137116404Y-78360960D01*
X137116404Y-78360960D02*
X137104887Y-78326409D01*
X137104887Y-78326409D02*
X137104887Y-78303375D01*
X137104887Y-78303375D02*
X137116404Y-78268825D01*
X137116404Y-78268825D02*
X137127921Y-78257308D01*
X137346741Y-78142139D02*
X137346741Y-78096072D01*
X137346741Y-78096072D02*
X137335225Y-78073038D01*
X137335225Y-78073038D02*
X137323708Y-78061521D01*
X137323708Y-78061521D02*
X137289157Y-78038488D01*
X137289157Y-78038488D02*
X137243090Y-78026971D01*
X137243090Y-78026971D02*
X137150955Y-78026971D01*
X137150955Y-78026971D02*
X137127921Y-78038488D01*
X137127921Y-78038488D02*
X137116404Y-78050005D01*
X137116404Y-78050005D02*
X137104887Y-78073038D01*
X137104887Y-78073038D02*
X137104887Y-78119106D01*
X137104887Y-78119106D02*
X137116404Y-78142139D01*
X137116404Y-78142139D02*
X137127921Y-78153656D01*
X137127921Y-78153656D02*
X137150955Y-78165173D01*
X137150955Y-78165173D02*
X137208539Y-78165173D01*
X137208539Y-78165173D02*
X137231573Y-78153656D01*
X137231573Y-78153656D02*
X137243090Y-78142139D01*
X137243090Y-78142139D02*
X137254607Y-78119106D01*
X137254607Y-78119106D02*
X137254607Y-78073038D01*
X137254607Y-78073038D02*
X137243090Y-78050005D01*
X137243090Y-78050005D02*
X137231573Y-78038488D01*
X137231573Y-78038488D02*
X137208539Y-78026971D01*
X186122431Y-79147171D02*
X186133948Y-79158688D01*
X186133948Y-79158688D02*
X186145464Y-79193238D01*
X186145464Y-79193238D02*
X186145464Y-79216272D01*
X186145464Y-79216272D02*
X186133948Y-79250823D01*
X186133948Y-79250823D02*
X186110914Y-79273856D01*
X186110914Y-79273856D02*
X186087880Y-79285373D01*
X186087880Y-79285373D02*
X186041813Y-79296890D01*
X186041813Y-79296890D02*
X186007262Y-79296890D01*
X186007262Y-79296890D02*
X185961195Y-79285373D01*
X185961195Y-79285373D02*
X185938161Y-79273856D01*
X185938161Y-79273856D02*
X185915127Y-79250823D01*
X185915127Y-79250823D02*
X185903610Y-79216272D01*
X185903610Y-79216272D02*
X185903610Y-79193238D01*
X185903610Y-79193238D02*
X185915127Y-79158688D01*
X185915127Y-79158688D02*
X185926644Y-79147171D01*
X186145464Y-78916834D02*
X186145464Y-79055036D01*
X186145464Y-78985935D02*
X185903610Y-78985935D01*
X185903610Y-78985935D02*
X185938161Y-79008969D01*
X185938161Y-79008969D02*
X185961195Y-79032002D01*
X185961195Y-79032002D02*
X185972712Y-79055036D01*
X185903610Y-78836216D02*
X185903610Y-78686497D01*
X185903610Y-78686497D02*
X185995745Y-78767115D01*
X185995745Y-78767115D02*
X185995745Y-78732564D01*
X185995745Y-78732564D02*
X186007262Y-78709531D01*
X186007262Y-78709531D02*
X186018779Y-78698014D01*
X186018779Y-78698014D02*
X186041813Y-78686497D01*
X186041813Y-78686497D02*
X186099397Y-78686497D01*
X186099397Y-78686497D02*
X186122431Y-78698014D01*
X186122431Y-78698014D02*
X186133948Y-78709531D01*
X186133948Y-78709531D02*
X186145464Y-78732564D01*
X186145464Y-78732564D02*
X186145464Y-78801665D01*
X186145464Y-78801665D02*
X186133948Y-78824699D01*
X186133948Y-78824699D02*
X186122431Y-78836216D01*
X140582828Y-83683931D02*
X140571311Y-83695448D01*
X140571311Y-83695448D02*
X140536761Y-83706964D01*
X140536761Y-83706964D02*
X140513727Y-83706964D01*
X140513727Y-83706964D02*
X140479176Y-83695448D01*
X140479176Y-83695448D02*
X140456143Y-83672414D01*
X140456143Y-83672414D02*
X140444626Y-83649380D01*
X140444626Y-83649380D02*
X140433109Y-83603313D01*
X140433109Y-83603313D02*
X140433109Y-83568762D01*
X140433109Y-83568762D02*
X140444626Y-83522695D01*
X140444626Y-83522695D02*
X140456143Y-83499661D01*
X140456143Y-83499661D02*
X140479176Y-83476627D01*
X140479176Y-83476627D02*
X140513727Y-83465110D01*
X140513727Y-83465110D02*
X140536761Y-83465110D01*
X140536761Y-83465110D02*
X140571311Y-83476627D01*
X140571311Y-83476627D02*
X140582828Y-83488144D01*
X140813165Y-83706964D02*
X140674963Y-83706964D01*
X140744064Y-83706964D02*
X140744064Y-83465110D01*
X140744064Y-83465110D02*
X140721030Y-83499661D01*
X140721030Y-83499661D02*
X140697997Y-83522695D01*
X140697997Y-83522695D02*
X140674963Y-83534212D01*
X141020469Y-83545728D02*
X141020469Y-83706964D01*
X140962884Y-83453594D02*
X140905300Y-83626346D01*
X140905300Y-83626346D02*
X141055019Y-83626346D01*
X144618997Y-84917931D02*
X144607480Y-84929448D01*
X144607480Y-84929448D02*
X144572930Y-84940964D01*
X144572930Y-84940964D02*
X144549896Y-84940964D01*
X144549896Y-84940964D02*
X144515345Y-84929448D01*
X144515345Y-84929448D02*
X144492312Y-84906414D01*
X144492312Y-84906414D02*
X144480795Y-84883380D01*
X144480795Y-84883380D02*
X144469278Y-84837313D01*
X144469278Y-84837313D02*
X144469278Y-84802762D01*
X144469278Y-84802762D02*
X144480795Y-84756695D01*
X144480795Y-84756695D02*
X144492312Y-84733661D01*
X144492312Y-84733661D02*
X144515345Y-84710627D01*
X144515345Y-84710627D02*
X144549896Y-84699110D01*
X144549896Y-84699110D02*
X144572930Y-84699110D01*
X144572930Y-84699110D02*
X144607480Y-84710627D01*
X144607480Y-84710627D02*
X144618997Y-84722144D01*
X144837817Y-84699110D02*
X144722649Y-84699110D01*
X144722649Y-84699110D02*
X144711132Y-84814279D01*
X144711132Y-84814279D02*
X144722649Y-84802762D01*
X144722649Y-84802762D02*
X144745683Y-84791245D01*
X144745683Y-84791245D02*
X144803267Y-84791245D01*
X144803267Y-84791245D02*
X144826301Y-84802762D01*
X144826301Y-84802762D02*
X144837817Y-84814279D01*
X144837817Y-84814279D02*
X144849334Y-84837313D01*
X144849334Y-84837313D02*
X144849334Y-84894897D01*
X144849334Y-84894897D02*
X144837817Y-84917931D01*
X144837817Y-84917931D02*
X144826301Y-84929448D01*
X144826301Y-84929448D02*
X144803267Y-84940964D01*
X144803267Y-84940964D02*
X144745683Y-84940964D01*
X144745683Y-84940964D02*
X144722649Y-84929448D01*
X144722649Y-84929448D02*
X144711132Y-84917931D01*
D13*
X139784383Y-76807014D02*
X139653149Y-76619538D01*
X139559411Y-76807014D02*
X139559411Y-76413313D01*
X139559411Y-76413313D02*
X139709392Y-76413313D01*
X139709392Y-76413313D02*
X139746888Y-76432061D01*
X139746888Y-76432061D02*
X139765635Y-76450809D01*
X139765635Y-76450809D02*
X139784383Y-76488304D01*
X139784383Y-76488304D02*
X139784383Y-76544547D01*
X139784383Y-76544547D02*
X139765635Y-76582042D01*
X139765635Y-76582042D02*
X139746888Y-76600790D01*
X139746888Y-76600790D02*
X139709392Y-76619538D01*
X139709392Y-76619538D02*
X139559411Y-76619538D01*
X139915617Y-76413313D02*
X140178084Y-76413313D01*
X140178084Y-76413313D02*
X140009355Y-76807014D01*
D11*
X137439238Y-75262914D02*
X137439238Y-75567676D01*
X137225905Y-74927676D02*
X137439238Y-75262914D01*
X137439238Y-75262914D02*
X137652572Y-74927676D01*
X138201143Y-75567676D02*
X137835428Y-75567676D01*
X138018285Y-75567676D02*
X138018285Y-74927676D01*
X138018285Y-74927676D02*
X137957333Y-75019104D01*
X137957333Y-75019104D02*
X137896381Y-75080057D01*
X137896381Y-75080057D02*
X137835428Y-75110533D01*
X159761666Y-80409819D02*
X159761666Y-81124104D01*
X159761666Y-81124104D02*
X159714047Y-81266961D01*
X159714047Y-81266961D02*
X159618809Y-81362200D01*
X159618809Y-81362200D02*
X159475952Y-81409819D01*
X159475952Y-81409819D02*
X159380714Y-81409819D01*
X160142619Y-80409819D02*
X160761666Y-80409819D01*
X160761666Y-80409819D02*
X160428333Y-80790771D01*
X160428333Y-80790771D02*
X160571190Y-80790771D01*
X160571190Y-80790771D02*
X160666428Y-80838390D01*
X160666428Y-80838390D02*
X160714047Y-80886009D01*
X160714047Y-80886009D02*
X160761666Y-80981247D01*
X160761666Y-80981247D02*
X160761666Y-81219342D01*
X160761666Y-81219342D02*
X160714047Y-81314580D01*
X160714047Y-81314580D02*
X160666428Y-81362200D01*
X160666428Y-81362200D02*
X160571190Y-81409819D01*
X160571190Y-81409819D02*
X160285476Y-81409819D01*
X160285476Y-81409819D02*
X160190238Y-81362200D01*
X160190238Y-81362200D02*
X160142619Y-81314580D01*
X179214819Y-71861904D02*
X180024342Y-71861904D01*
X180024342Y-71861904D02*
X180119580Y-71814285D01*
X180119580Y-71814285D02*
X180167200Y-71766666D01*
X180167200Y-71766666D02*
X180214819Y-71671428D01*
X180214819Y-71671428D02*
X180214819Y-71480952D01*
X180214819Y-71480952D02*
X180167200Y-71385714D01*
X180167200Y-71385714D02*
X180119580Y-71338095D01*
X180119580Y-71338095D02*
X180024342Y-71290476D01*
X180024342Y-71290476D02*
X179214819Y-71290476D01*
X179310057Y-70861904D02*
X179262438Y-70814285D01*
X179262438Y-70814285D02*
X179214819Y-70719047D01*
X179214819Y-70719047D02*
X179214819Y-70480952D01*
X179214819Y-70480952D02*
X179262438Y-70385714D01*
X179262438Y-70385714D02*
X179310057Y-70338095D01*
X179310057Y-70338095D02*
X179405295Y-70290476D01*
X179405295Y-70290476D02*
X179500533Y-70290476D01*
X179500533Y-70290476D02*
X179643390Y-70338095D01*
X179643390Y-70338095D02*
X180214819Y-70909523D01*
X180214819Y-70909523D02*
X180214819Y-70290476D01*
D13*
X148546014Y-84104616D02*
X148358538Y-84235850D01*
X148546014Y-84329588D02*
X148152313Y-84329588D01*
X148152313Y-84329588D02*
X148152313Y-84179607D01*
X148152313Y-84179607D02*
X148171061Y-84142112D01*
X148171061Y-84142112D02*
X148189809Y-84123364D01*
X148189809Y-84123364D02*
X148227304Y-84104616D01*
X148227304Y-84104616D02*
X148283547Y-84104616D01*
X148283547Y-84104616D02*
X148321042Y-84123364D01*
X148321042Y-84123364D02*
X148339790Y-84142112D01*
X148339790Y-84142112D02*
X148358538Y-84179607D01*
X148358538Y-84179607D02*
X148358538Y-84329588D01*
X148546014Y-83729663D02*
X148546014Y-83954635D01*
X148546014Y-83842149D02*
X148152313Y-83842149D01*
X148152313Y-83842149D02*
X148208556Y-83879644D01*
X148208556Y-83879644D02*
X148246052Y-83917140D01*
X148246052Y-83917140D02*
X148264799Y-83954635D01*
D10*
X184602431Y-79094171D02*
X184613948Y-79105688D01*
X184613948Y-79105688D02*
X184625464Y-79140238D01*
X184625464Y-79140238D02*
X184625464Y-79163272D01*
X184625464Y-79163272D02*
X184613948Y-79197823D01*
X184613948Y-79197823D02*
X184590914Y-79220856D01*
X184590914Y-79220856D02*
X184567880Y-79232373D01*
X184567880Y-79232373D02*
X184521813Y-79243890D01*
X184521813Y-79243890D02*
X184487262Y-79243890D01*
X184487262Y-79243890D02*
X184441195Y-79232373D01*
X184441195Y-79232373D02*
X184418161Y-79220856D01*
X184418161Y-79220856D02*
X184395127Y-79197823D01*
X184395127Y-79197823D02*
X184383610Y-79163272D01*
X184383610Y-79163272D02*
X184383610Y-79140238D01*
X184383610Y-79140238D02*
X184395127Y-79105688D01*
X184395127Y-79105688D02*
X184406644Y-79094171D01*
X184625464Y-78863834D02*
X184625464Y-79002036D01*
X184625464Y-78932935D02*
X184383610Y-78932935D01*
X184383610Y-78932935D02*
X184418161Y-78955969D01*
X184418161Y-78955969D02*
X184441195Y-78979002D01*
X184441195Y-78979002D02*
X184452712Y-79002036D01*
X184383610Y-78714115D02*
X184383610Y-78691081D01*
X184383610Y-78691081D02*
X184395127Y-78668047D01*
X184395127Y-78668047D02*
X184406644Y-78656531D01*
X184406644Y-78656531D02*
X184429678Y-78645014D01*
X184429678Y-78645014D02*
X184475745Y-78633497D01*
X184475745Y-78633497D02*
X184533330Y-78633497D01*
X184533330Y-78633497D02*
X184579397Y-78645014D01*
X184579397Y-78645014D02*
X184602431Y-78656531D01*
X184602431Y-78656531D02*
X184613948Y-78668047D01*
X184613948Y-78668047D02*
X184625464Y-78691081D01*
X184625464Y-78691081D02*
X184625464Y-78714115D01*
X184625464Y-78714115D02*
X184613948Y-78737149D01*
X184613948Y-78737149D02*
X184602431Y-78748665D01*
X184602431Y-78748665D02*
X184579397Y-78760182D01*
X184579397Y-78760182D02*
X184533330Y-78771699D01*
X184533330Y-78771699D02*
X184475745Y-78771699D01*
X184475745Y-78771699D02*
X184429678Y-78760182D01*
X184429678Y-78760182D02*
X184406644Y-78748665D01*
X184406644Y-78748665D02*
X184395127Y-78737149D01*
X184395127Y-78737149D02*
X184383610Y-78714115D01*
D13*
X137273014Y-77183616D02*
X137085538Y-77314850D01*
X137273014Y-77408588D02*
X136879313Y-77408588D01*
X136879313Y-77408588D02*
X136879313Y-77258607D01*
X136879313Y-77258607D02*
X136898061Y-77221112D01*
X136898061Y-77221112D02*
X136916809Y-77202364D01*
X136916809Y-77202364D02*
X136954304Y-77183616D01*
X136954304Y-77183616D02*
X137010547Y-77183616D01*
X137010547Y-77183616D02*
X137048042Y-77202364D01*
X137048042Y-77202364D02*
X137066790Y-77221112D01*
X137066790Y-77221112D02*
X137085538Y-77258607D01*
X137085538Y-77258607D02*
X137085538Y-77408588D01*
X136916809Y-77033635D02*
X136898061Y-77014887D01*
X136898061Y-77014887D02*
X136879313Y-76977392D01*
X136879313Y-76977392D02*
X136879313Y-76883654D01*
X136879313Y-76883654D02*
X136898061Y-76846158D01*
X136898061Y-76846158D02*
X136916809Y-76827411D01*
X136916809Y-76827411D02*
X136954304Y-76808663D01*
X136954304Y-76808663D02*
X136991799Y-76808663D01*
X136991799Y-76808663D02*
X137048042Y-76827411D01*
X137048042Y-76827411D02*
X137273014Y-77052383D01*
X137273014Y-77052383D02*
X137273014Y-76808663D01*
X139357014Y-83225616D02*
X139169538Y-83356850D01*
X139357014Y-83450588D02*
X138963313Y-83450588D01*
X138963313Y-83450588D02*
X138963313Y-83300607D01*
X138963313Y-83300607D02*
X138982061Y-83263112D01*
X138982061Y-83263112D02*
X139000809Y-83244364D01*
X139000809Y-83244364D02*
X139038304Y-83225616D01*
X139038304Y-83225616D02*
X139094547Y-83225616D01*
X139094547Y-83225616D02*
X139132042Y-83244364D01*
X139132042Y-83244364D02*
X139150790Y-83263112D01*
X139150790Y-83263112D02*
X139169538Y-83300607D01*
X139169538Y-83300607D02*
X139169538Y-83450588D01*
X139094547Y-82888158D02*
X139357014Y-82888158D01*
X138944566Y-82981897D02*
X139225781Y-83075635D01*
X139225781Y-83075635D02*
X139225781Y-82831915D01*
D10*
X143472385Y-67189485D02*
X143460868Y-67201002D01*
X143460868Y-67201002D02*
X143426318Y-67212518D01*
X143426318Y-67212518D02*
X143403284Y-67212518D01*
X143403284Y-67212518D02*
X143368733Y-67201002D01*
X143368733Y-67201002D02*
X143345700Y-67177968D01*
X143345700Y-67177968D02*
X143334183Y-67154934D01*
X143334183Y-67154934D02*
X143322666Y-67108867D01*
X143322666Y-67108867D02*
X143322666Y-67074316D01*
X143322666Y-67074316D02*
X143334183Y-67028249D01*
X143334183Y-67028249D02*
X143345700Y-67005215D01*
X143345700Y-67005215D02*
X143368733Y-66982181D01*
X143368733Y-66982181D02*
X143403284Y-66970664D01*
X143403284Y-66970664D02*
X143426318Y-66970664D01*
X143426318Y-66970664D02*
X143460868Y-66982181D01*
X143460868Y-66982181D02*
X143472385Y-66993698D01*
X143702722Y-67212518D02*
X143564520Y-67212518D01*
X143633621Y-67212518D02*
X143633621Y-66970664D01*
X143633621Y-66970664D02*
X143610587Y-67005215D01*
X143610587Y-67005215D02*
X143587554Y-67028249D01*
X143587554Y-67028249D02*
X143564520Y-67039766D01*
X184550985Y-75095614D02*
X184562502Y-75107131D01*
X184562502Y-75107131D02*
X184574018Y-75141681D01*
X184574018Y-75141681D02*
X184574018Y-75164715D01*
X184574018Y-75164715D02*
X184562502Y-75199266D01*
X184562502Y-75199266D02*
X184539468Y-75222299D01*
X184539468Y-75222299D02*
X184516434Y-75233816D01*
X184516434Y-75233816D02*
X184470367Y-75245333D01*
X184470367Y-75245333D02*
X184435816Y-75245333D01*
X184435816Y-75245333D02*
X184389749Y-75233816D01*
X184389749Y-75233816D02*
X184366715Y-75222299D01*
X184366715Y-75222299D02*
X184343681Y-75199266D01*
X184343681Y-75199266D02*
X184332164Y-75164715D01*
X184332164Y-75164715D02*
X184332164Y-75141681D01*
X184332164Y-75141681D02*
X184343681Y-75107131D01*
X184343681Y-75107131D02*
X184355198Y-75095614D01*
X184332164Y-74888311D02*
X184332164Y-74934378D01*
X184332164Y-74934378D02*
X184343681Y-74957412D01*
X184343681Y-74957412D02*
X184355198Y-74968929D01*
X184355198Y-74968929D02*
X184389749Y-74991962D01*
X184389749Y-74991962D02*
X184435816Y-75003479D01*
X184435816Y-75003479D02*
X184527951Y-75003479D01*
X184527951Y-75003479D02*
X184550985Y-74991962D01*
X184550985Y-74991962D02*
X184562502Y-74980445D01*
X184562502Y-74980445D02*
X184574018Y-74957412D01*
X184574018Y-74957412D02*
X184574018Y-74911344D01*
X184574018Y-74911344D02*
X184562502Y-74888311D01*
X184562502Y-74888311D02*
X184550985Y-74876794D01*
X184550985Y-74876794D02*
X184527951Y-74865277D01*
X184527951Y-74865277D02*
X184470367Y-74865277D01*
X184470367Y-74865277D02*
X184447333Y-74876794D01*
X184447333Y-74876794D02*
X184435816Y-74888311D01*
X184435816Y-74888311D02*
X184424299Y-74911344D01*
X184424299Y-74911344D02*
X184424299Y-74957412D01*
X184424299Y-74957412D02*
X184435816Y-74980445D01*
X184435816Y-74980445D02*
X184447333Y-74991962D01*
X184447333Y-74991962D02*
X184470367Y-75003479D01*
D14*
%TO.C,C12*%
X137300000Y-70400000D02*
X136300000Y-70400000D01*
X136300000Y-71360000D02*
X137300000Y-71360000D01*
D15*
%TO.C,IC1*%
X142420000Y-71120000D02*
X142420000Y-72070000D01*
X142420000Y-72070000D02*
X141080000Y-72070000D01*
X142420000Y-81340000D02*
X142420000Y-80390000D01*
X143370000Y-71120000D02*
X142420000Y-71120000D01*
X143370000Y-81340000D02*
X142420000Y-81340000D01*
X151690000Y-71120000D02*
X152640000Y-71120000D01*
X151690000Y-81340000D02*
X152640000Y-81340000D01*
X152640000Y-71120000D02*
X152640000Y-72070000D01*
X152640000Y-81340000D02*
X152640000Y-80390000D01*
D16*
%TO.C,U4*%
X138180000Y-81210000D02*
G75*
G03*
X138180000Y-81210000I-100000J0D01*
G01*
D14*
%TO.C,C4*%
X155010000Y-72110000D02*
X155010000Y-73110000D01*
X155970000Y-73110000D02*
X155970000Y-72110000D01*
%TO.C,J1*%
X162092500Y-74960000D02*
X162092500Y-72420000D01*
X169712500Y-72420000D02*
X162092500Y-72420000D01*
X169712500Y-72420000D02*
X169712500Y-74960000D01*
X169712500Y-74960000D02*
X162092500Y-74960000D01*
D16*
X170462500Y-73690000D02*
G75*
G03*
X170462500Y-73690000I-100000J0D01*
G01*
D14*
%TO.C,C7*%
X137120000Y-80220000D02*
X137120000Y-79220000D01*
X136160000Y-79220000D02*
X136160000Y-80220000D01*
%TO.C,C2*%
X151894000Y-83538000D02*
X150894000Y-83538000D01*
X150894000Y-84498000D02*
X151894000Y-84498000D01*
%TO.C,   *%
G36*
X157732066Y-73649157D02*
G01*
X157795626Y-73652231D01*
X158151475Y-73722156D01*
X158191378Y-73729997D01*
X158379575Y-73787322D01*
X158718729Y-73926711D01*
X159025770Y-74106267D01*
X159313165Y-74333769D01*
X159424986Y-74439511D01*
X159697485Y-74747392D01*
X159916640Y-75079620D01*
X160083539Y-75438141D01*
X160197844Y-75818595D01*
X160225105Y-75988550D01*
X160241184Y-76196758D01*
X160246094Y-76423684D01*
X160239844Y-76649790D01*
X160222444Y-76855540D01*
X160197214Y-77007367D01*
X160082119Y-77388741D01*
X159919761Y-77740320D01*
X159714775Y-78059657D01*
X159471794Y-78344306D01*
X159195450Y-78591821D01*
X158890378Y-78799756D01*
X158561211Y-78965664D01*
X158212582Y-79087100D01*
X157849124Y-79161617D01*
X157475472Y-79186769D01*
X157096258Y-79160110D01*
X156716115Y-79079193D01*
X156447305Y-78987111D01*
X156106534Y-78822475D01*
X155792886Y-78610217D01*
X155523270Y-78370091D01*
X155257765Y-78064990D01*
X155041005Y-77730977D01*
X154875887Y-77373244D01*
X154770194Y-77019289D01*
X154740666Y-76840963D01*
X154721742Y-76629513D01*
X154713906Y-76405322D01*
X154715700Y-76301207D01*
X155142286Y-76301207D01*
X155150837Y-76654933D01*
X155200487Y-76947898D01*
X155314202Y-77299383D01*
X155478659Y-77625120D01*
X155689681Y-77920088D01*
X155943091Y-78179268D01*
X156234712Y-78397638D01*
X156544523Y-78563243D01*
X156637413Y-78604075D01*
X156703376Y-78626726D01*
X156747012Y-78624564D01*
X156772919Y-78590956D01*
X156785695Y-78519269D01*
X156789937Y-78402872D01*
X156790245Y-78235131D01*
X156790235Y-78208818D01*
X156790638Y-78107721D01*
X157170902Y-78107721D01*
X157179236Y-78422168D01*
X157187570Y-78736614D01*
X157452099Y-78745220D01*
X157806221Y-78728393D01*
X158147467Y-78657214D01*
X158470851Y-78535665D01*
X158771385Y-78367728D01*
X159044081Y-78157385D01*
X159283952Y-77908616D01*
X159486010Y-77625405D01*
X159645269Y-77311732D01*
X159756739Y-76971580D01*
X159774937Y-76890776D01*
X159815667Y-76574665D01*
X159813790Y-76244171D01*
X159770866Y-75917543D01*
X159688455Y-75613030D01*
X159659131Y-75535725D01*
X159499209Y-75218286D01*
X159290375Y-74925709D01*
X159039975Y-74665527D01*
X158755351Y-74445271D01*
X158443848Y-74272473D01*
X158414630Y-74259456D01*
X158306130Y-74213863D01*
X158216129Y-74179301D01*
X158159805Y-74161491D01*
X158151475Y-74160264D01*
X158142507Y-74171922D01*
X158135005Y-74209835D01*
X158128857Y-74278132D01*
X158123948Y-74380938D01*
X158120165Y-74522380D01*
X158117395Y-74706585D01*
X158115523Y-74937680D01*
X158114438Y-75219791D01*
X158114038Y-75521145D01*
X158113391Y-76882385D01*
X157981657Y-76970681D01*
X157906938Y-77023549D01*
X157867679Y-77067839D01*
X157852461Y-77125632D01*
X157849863Y-77219009D01*
X157849859Y-77225511D01*
X157851893Y-77321155D01*
X157865694Y-77379512D01*
X157902678Y-77422158D01*
X157974255Y-77470670D01*
X157982187Y-77475684D01*
X158114580Y-77559326D01*
X158114632Y-77770906D01*
X158114685Y-77982486D01*
X157974882Y-78000528D01*
X157866789Y-78014757D01*
X157734791Y-78032513D01*
X157643770Y-78044957D01*
X157515680Y-78062422D01*
X157386356Y-78079738D01*
X157311681Y-78089533D01*
X157170902Y-78107721D01*
X156790638Y-78107721D01*
X156790903Y-78041188D01*
X156793615Y-77923325D01*
X156799435Y-77846143D01*
X156809428Y-77800551D01*
X156824658Y-77777462D01*
X156841742Y-77768962D01*
X156892447Y-77757298D01*
X156985074Y-77738691D01*
X157103555Y-77716314D01*
X157165496Y-77705057D01*
X157437744Y-77656223D01*
X157437744Y-77558251D01*
X157437206Y-77513576D01*
X157429525Y-77481602D01*
X157405603Y-77458260D01*
X157356345Y-77439480D01*
X157272650Y-77421192D01*
X157145423Y-77399326D01*
X157046221Y-77383092D01*
X156934304Y-77364769D01*
X156943208Y-77226590D01*
X156952113Y-77088410D01*
X157118067Y-77055634D01*
X157257235Y-77027720D01*
X157348710Y-77006111D01*
X157402496Y-76985452D01*
X157428597Y-76960382D01*
X157437017Y-76925544D01*
X157437744Y-76884411D01*
X157432490Y-76818142D01*
X157405181Y-76786124D01*
X157338497Y-76770170D01*
X157327373Y-76768521D01*
X157241169Y-76755670D01*
X157122998Y-76737635D01*
X157003619Y-76719127D01*
X156790235Y-76685757D01*
X156790235Y-76502940D01*
X156790235Y-76320122D01*
X157150780Y-76356456D01*
X157301817Y-76370933D01*
X157441919Y-76383031D01*
X157554878Y-76391430D01*
X157621696Y-76394772D01*
X157732066Y-76396753D01*
X157732066Y-76208140D01*
X157732066Y-76019528D01*
X157261389Y-75847596D01*
X156790712Y-75675664D01*
X156790474Y-75477525D01*
X156790235Y-75279386D01*
X157062483Y-75378811D01*
X157209404Y-75432514D01*
X157363214Y-75488815D01*
X157497304Y-75537970D01*
X157533399Y-75551222D01*
X157732066Y-75624210D01*
X157731951Y-75414479D01*
X157731835Y-75204749D01*
X157261035Y-75032328D01*
X156790235Y-74859907D01*
X156790235Y-74671783D01*
X156794208Y-74575275D01*
X156804589Y-74507413D01*
X156818101Y-74483659D01*
X156854340Y-74492932D01*
X156935664Y-74518480D01*
X157051681Y-74556895D01*
X157191998Y-74604771D01*
X157266942Y-74630814D01*
X157414858Y-74682035D01*
X157543025Y-74725501D01*
X157641226Y-74757820D01*
X157699248Y-74775599D01*
X157709992Y-74777976D01*
X157718466Y-74750433D01*
X157725435Y-74675336D01*
X157730199Y-74563989D01*
X157732062Y-74427699D01*
X157732066Y-74420513D01*
X157732066Y-74063044D01*
X157371522Y-74079685D01*
X157022812Y-74115837D01*
X156708346Y-74193071D01*
X156418144Y-74315670D01*
X156142227Y-74487920D01*
X155870613Y-74714102D01*
X155851419Y-74732146D01*
X155616834Y-74993842D01*
X155426380Y-75289249D01*
X155282306Y-75610713D01*
X155186858Y-75950583D01*
X155142286Y-76301207D01*
X154715700Y-76301207D01*
X154717638Y-76188773D01*
X154733422Y-76000246D01*
X154744437Y-75930753D01*
X154849126Y-75531556D01*
X155003796Y-75160421D01*
X155205936Y-74820692D01*
X155453034Y-74515713D01*
X155742576Y-74248827D01*
X156072053Y-74023378D01*
X156248612Y-73928407D01*
X156628665Y-73771363D01*
X157013619Y-73672956D01*
X157402823Y-73633232D01*
X157732066Y-73649157D01*
G37*
%TO.C,U1*%
X188807500Y-72817500D02*
X192312500Y-72817500D01*
X188807500Y-79322500D02*
X188807500Y-72817500D01*
X192312500Y-72817500D02*
X192312500Y-79322500D01*
X192312500Y-79322500D02*
X188807500Y-79322500D01*
D16*
X185660000Y-73780000D02*
G75*
G03*
X185660000Y-73780000I-100000J0D01*
G01*
%TO.C,U5*%
X173420000Y-76470000D02*
G75*
G03*
X173420000Y-76470000I-100000J0D01*
G01*
D14*
%TO.C,C8*%
X138458000Y-80194000D02*
X138458000Y-79194000D01*
X137498000Y-79194000D02*
X137498000Y-80194000D01*
%TO.C,C11*%
X137020000Y-75560000D02*
X136020000Y-75560000D01*
X136020000Y-76520000D02*
X137020000Y-76520000D01*
%TO.C,J4*%
X157172000Y-66803000D02*
X157172000Y-69303000D01*
X157172000Y-69303000D02*
X195772000Y-69303000D01*
X195772000Y-66803000D02*
X157172000Y-66803000D01*
X195772000Y-69303000D02*
X195772000Y-66803000D01*
D16*
X196482000Y-68053000D02*
G75*
G03*
X196482000Y-68053000I-100000J0D01*
G01*
D15*
%TO.C,U3*%
X175050000Y-78060000D02*
X175050000Y-77560000D01*
X174800000Y-77810000D02*
X175300000Y-77810000D01*
X175414437Y-77320000D02*
X175550000Y-77320000D01*
X175414437Y-77320000D02*
X174350000Y-76255563D01*
X177805563Y-77320000D02*
X177670000Y-77320000D01*
X177805563Y-77320000D02*
X178870000Y-76255563D01*
X174350000Y-76255563D02*
X174350000Y-72800000D01*
X178870000Y-76255563D02*
X178870000Y-72800000D01*
X174350000Y-72800000D02*
X175550000Y-72800000D01*
X178870000Y-72800000D02*
X177670000Y-72800000D01*
D14*
%TO.C,C3*%
X140870000Y-71180000D02*
X140870000Y-70180000D01*
X139910000Y-70180000D02*
X139910000Y-71180000D01*
%TO.C,C9*%
X138920000Y-77710000D02*
X137920000Y-77710000D01*
X137920000Y-78670000D02*
X138920000Y-78670000D01*
%TO.C,C13*%
X184798500Y-78530000D02*
X184798500Y-79530000D01*
X185758500Y-79530000D02*
X185758500Y-78530000D01*
%TO.C,C14*%
X141200000Y-82360000D02*
X140200000Y-82360000D01*
X140200000Y-83320000D02*
X141200000Y-83320000D01*
%TO.C,C5*%
X145121000Y-83594000D02*
X144121000Y-83594000D01*
X144121000Y-84554000D02*
X145121000Y-84554000D01*
D16*
%TO.C,J2*%
X160880000Y-79310000D02*
X160880000Y-76770000D01*
X171040000Y-76770000D02*
X160880000Y-76770000D01*
X171040000Y-76770000D02*
X171040000Y-79310000D01*
X171040000Y-79310000D02*
X160880000Y-79310000D01*
X160330000Y-78040000D02*
G75*
G03*
X160330000Y-78040000I-100000J0D01*
G01*
D14*
%TO.C,J3*%
X157170000Y-82340000D02*
X157170000Y-84840000D01*
X157170000Y-84840000D02*
X195770000Y-84840000D01*
X195770000Y-82340000D02*
X157170000Y-82340000D01*
X195770000Y-84840000D02*
X195770000Y-82340000D01*
D16*
X196480000Y-83590000D02*
G75*
G03*
X196480000Y-83590000I-100000J0D01*
G01*
D15*
%TO.C,U2*%
X180410000Y-78130000D02*
X180410000Y-77630000D01*
X180160000Y-77880000D02*
X180660000Y-77880000D01*
X180774437Y-77390000D02*
X180910000Y-77390000D01*
X180774437Y-77390000D02*
X179710000Y-76325563D01*
X183165563Y-77390000D02*
X183030000Y-77390000D01*
X183165563Y-77390000D02*
X184230000Y-76325563D01*
X179710000Y-76325563D02*
X179710000Y-72870000D01*
X184230000Y-76325563D02*
X184230000Y-72870000D01*
X179710000Y-72870000D02*
X180910000Y-72870000D01*
X184230000Y-72870000D02*
X183030000Y-72870000D01*
D14*
%TO.C,C10*%
X183278500Y-78477000D02*
X183278500Y-79477000D01*
X184238500Y-79477000D02*
X184238500Y-78477000D01*
%TO.C,C1*%
X143051000Y-68342000D02*
X144051000Y-68342000D01*
X144051000Y-67382000D02*
X143051000Y-67382000D01*
%TO.C,C6*%
X185703500Y-75517000D02*
X185703500Y-74517000D01*
X184743500Y-74517000D02*
X184743500Y-75517000D01*
%TD*%
M02*
